SplineFontDB: 3.2
FontName: Banana-Outline-Light
FullName: Banana-Outline-Light
FamilyName: Banana
Weight: Light
Copyright: (c) Clara Bougon
Version: 1.0
StyleMapFamilyName: Outline
ItalicAngle: 0
UnderlinePosition: -100
UnderlineWidth: 50
Ascent: 800
Descent: 200
InvalidEm: 1
UFOAscent: 800
UFODescent: -250
LayerCount: 2
Layer: 0 0 "Arri+AOgA-re" 1
Layer: 1 0 "public.default" 0 "glyphs"
PreferredKerning: 1
StyleMap: 0x0040
FSType: 4
OS2Version: 0
OS2_WeightWidthSlopeOnly: 0
OS2_UseTypoMetrics: 0
CreationTime: 1730653931
ModificationTime: 1730654937
PfmFamily: 16
TTFWeight: 300
TTFWidth: 5
LineGap: 100
VLineGap: 0
Panose: 0 0 0 0 0 0 0 0 0 0
OS2TypoAscent: 800
OS2TypoAOffset: 0
OS2TypoDescent: -250
OS2TypoDOffset: 0
OS2TypoLinegap: 100
OS2WinAscent: 750
OS2WinAOffset: 0
OS2WinDescent: 250
OS2WinDOffset: 0
HheadAscent: 750
HheadAOffset: 0
HheadDescent: -250
HheadDOffset: 0
OS2SubXSize: 650
OS2SubYSize: 600
OS2SubXOff: 0
OS2SubYOff: 75
OS2SupXSize: 650
OS2SupYSize: 600
OS2SupXOff: 0
OS2SupYOff: 350
OS2StrikeYSize: 50
OS2StrikeYPos: 300
OS2CapHeight: 700
OS2XHeight: 500
OS2UnicodeRanges: 00000007.00000000.04000000.00000000
Lookup: 1 0 0 "'case' Formes sensibles +AOAA la casse dans Latin lookup 0" { "sous-table 'case' Formes sensibles +AOAA la casse dans Latin lookup 0"  } ['case' ('latn' <'dflt' > 'DFLT' <'dflt' > ) ]
Lookup: 4 0 1 "'liga' Ligatures standard dans Latin lookup 1" { "sous-table 'liga' Ligatures standard dans Latin lookup 1"  } ['liga' ('latn' <'dflt' > 'DFLT' <'dflt' > ) ]
Lookup: 4 0 1 "'rlig' Ligatures requises  dans Latin lookup 2" { "sous-table 'rlig' Ligatures requises  dans Latin lookup 2"  } ['rlig' ('latn' <'dflt' > 'DFLT' <'dflt' > ) ]
Lookup: 258 0 0 "'kern' Cr+AOkA-nage horizontal lookups0" { "sous-table 'kern' Cr+AOkA-nage horizontal lookups0"  } ['kern' ('DFLT' <'dflt' > ) ]
DEI: 91125

StartChar: A
Encoding: 1 65 1
GlifName: A_
Width: 592
VWidth: 0
Flags: W
LayerCount: 2
Fore
SplineSet
31.0233 -1.0233 m 257
 41.2563 16.3728 50.466 33.7689 57.6291 52.1883 c 256
 115.957 193.404 84.2349 352.015 110.841 502.44 c 256
 130.283 610.91 187.588 714.263 296.058 714.263 c 256
 404.528 714.263 462.856 610.91 481.275 502.44 c 256
 507.881 352.015 477.182 193.404 534.487 52.1883 c 256
 541.65 33.7689 550.86 16.3728 561.093 -1.0233 c 1281
57.6291 284.477 m 257
 534.487 284.477 l 1281
EndSplineSet
Validated: 524291
EndChar

StartChar: AE
Encoding: 2 198 2
GlifName: A_E_
Width: 976
VWidth: 0
Flags: W
LayerCount: 2
Fore
SplineSet
31.0233 -1.0233 m 257
 41.2563 16.3728 50.466 33.7689 57.6291 52.1883 c 256
 115.957 193.404 84.2349 352.015 110.841 502.44 c 256
 130.283 610.91 187.588 714.263 296.058 714.263 c 256
 404.528 714.263 464.903 607.84 483.322 499.37 c 1281
907.344 714.53 m 257
 880.358 601.399 744.393 555.731 656.172 630.46 c 256
 618.807 661.597 593.898 714.53 544.079 714.53 c 256
 483.88 714.53 471.426 643.953 475.577 575.451 c 256
 483.88 409.387 555.495 249.551 516.055 87.6384 c 256
 508.79 54.4256 492.184 22.2507 461.047 17.0612 c 256
 434.061 12.9096 408.114 31.5918 405 59.6151 c 256
 390.469 172.746 539.927 117.737 677.968 25.3644 c 256
 768.265 -34.8338 898.002 6.68223 934.329 109.434 c 1281
50.0382 325.317 m 257
 208.837 325.317 683.157 325.317 841.956 325.317 c 1281
EndSplineSet
Validated: 524323
PickledDataWithLists: "(dp0
Vcom.fontlab.metricsLeft
p1
VA
p2
sVcom.fontlab.metricsRight
p3
VE
p4
sVcom.fontlab.recipe
p5
VA_E
p6
s."
EndChar

StartChar: A_E
Encoding: 3 987152 3
GlifName: A__E_
Width: 975
VWidth: 0
Flags: W
LayerCount: 2
Fore
SplineSet
31 -1 m 257
 41 16 50 34 58 52 c 257
 116 193 84 352 111 502 c 256
 130 611 188 714 296 714 c 256
 405 714 465 608 483 499 c 1281
907 715 m 257
 880 601 744 556 656 630 c 256
 619 662 594 715 544 715 c 256
 484 715 471 644 476 575 c 256
 484 409 555 250 516 88 c 257
 509 54 492 22 461 17 c 256
 434 13 408 32 405 60 c 256
 390 173 540 118 678 25 c 256
 768 -35 898 7 934 109 c 1281
50 325 m 257
 209 325 683 325 842 325 c 1281
EndSplineSet
Validated: 35
PickledDataWithLists: "(dp0
Vcom.fontlab.metricsLeft
p1
VA
p2
sVcom.fontlab.metricsRight
p3
VE
p4
sVpublic.markColor
p5
V1,0.6,0.994,1
p6
s."
Ligature2: "sous-table 'rlig' Ligatures requises  dans Latin lookup 2" A periodcentered E
Ligature2: "sous-table 'liga' Ligatures standard dans Latin lookup 1" A periodcentered E
EndChar

StartChar: A_L
Encoding: 4 987168 4
GlifName: A__L_
Width: 997
VWidth: 0
Flags: W
LayerCount: 2
Fore
SplineSet
614 661 m 257
 609 688 581 716 552 716 c 256
 489 716 469 659 473 589 c 256
 482 419 558 254 517 89 c 257
 510 55 494 22 461 17 c 256
 434 13 407 31 404 60 c 256
 389 176 542 120 683 25 c 256
 776 -36 908 6 945 111 c 1281
31 -1 m 257
 41 16 50 34 58 52 c 257
 116 193 84 352 111 502 c 256
 130 611 188 714 296 714 c 256
 405 714 465 608 483 499 c 1281
50 325 m 257
 209 325 407 325 566 325 c 1281
EndSplineSet
Validated: 35
PickledDataWithLists: "(dp0
Vcom.fontlab.metricsLeft
p1
VA
p2
sVcom.fontlab.metricsRight
p3
VL
p4
sVcom.fontlab.recipe
p5
VA_L
p6
sVpublic.markColor
p7
V1,0.6,0.994,1
p8
s."
Ligature2: "sous-table 'rlig' Ligatures requises  dans Latin lookup 2" A periodcentered L
Ligature2: "sous-table 'liga' Ligatures standard dans Latin lookup 1" A periodcentered L
EndChar

StartChar: A_O
Encoding: 5 987184 5
GlifName: A__O_
Width: 1058
VWidth: 0
Flags: W
LayerCount: 2
Fore
SplineSet
31 -1 m 257
 41 16 50 34 58 52 c 257
 116 193 84 352 111 502 c 256
 130 611 188 714 296 714 c 256
 405 714 462 611 481 502 c 256
 491 450 494 396 495 343 c 1281
58 284 m 257
 534 284 l 1281
EndSplineSet
Refer: 85 79 N 1 0 0 1 464.65 -0.0463 2
Validated: 524299
PickledDataWithLists: "(dp0
Vcom.fontlab.metricsLeft
p1
VA
p2
sVcom.fontlab.metricsRight
p3
VO
p4
sVcom.fontlab.recipe
p5
VA_O
p6
sVpublic.markColor
p7
V1,0.6,0.994,1
p8
s."
Ligature2: "sous-table 'rlig' Ligatures requises  dans Latin lookup 2" A periodcentered O
Ligature2: "sous-table 'liga' Ligatures standard dans Latin lookup 1" A periodcentered O
EndChar

StartChar: A_U_L_A
Encoding: 6 987216 6
GlifName: A__U__L__A_
Width: 1957
VWidth: 0
Flags: W
LayerCount: 2
Fore
SplineSet
1398.84 47.1047 m 257
 1425.62 71.4256 1445.45 120.876 1451.14 155.331 c 256
 1461.35 217.179 1461.54 279.062 1463.2 343.038 c 256
 1464.59 396.444 1466.77 449.941 1476.05 502.44 c 256
 1495.5 610.91 1552.8 714.263 1661.27 714.263 c 256
 1769.74 714.263 1828.07 610.91 1846.49 502.44 c 256
 1873.09 352.015 1842.39 193.404 1899.7 52.1883 c 256
 1906.86 33.7689 1916.07 16.3728 1926.31 -1.0233 c 1281
1422.84 284.477 m 257
 1899.7 284.477 l 1281
31.0233 -1.0233 m 257
 41.2563 16.3728 50.1279 33.904 57.6291 52.1883 c 256
 115.62 193.543 84.0904 352.041 110.841 502.44 c 256
 130.138 610.936 187.588 714.263 296.058 714.263 c 256
 404.528 714.263 462.56 610.859 481.275 502.44 c 256
 493.664 430.67 493.619 357.143 496 284.476 c 1281
57.6291 284.477 m 257
 534.487 284.477 l 1281
EndSplineSet
Refer: 132 1003600 N 1 0 0 1 434.672 -1.721 2
Validated: 524291
PickledDataWithLists: "(dp0
Vcom.fontlab.metricsLeft
p1
VA
p2
sVcom.fontlab.metricsRight
p3
g2
sVcom.fontlab.recipe
p4
VA_U_L_A
p5
sVpublic.markColor
p6
V1,0.6,0.994,1
p7
s."
Ligature2: "sous-table 'rlig' Ligatures requises  dans Latin lookup 2" A U periodcentered Agrave L A
Ligature2: "sous-table 'rlig' Ligatures requises  dans Latin lookup 2" A U periodcentered Agrave space L A
Ligature2: "sous-table 'rlig' Ligatures requises  dans Latin lookup 2" A U periodcentered L A
Ligature2: "sous-table 'liga' Ligatures standard dans Latin lookup 1" A U periodcentered Agrave L A
Ligature2: "sous-table 'liga' Ligatures standard dans Latin lookup 1" A U periodcentered Agrave space L A
Ligature2: "sous-table 'liga' Ligatures standard dans Latin lookup 1" A U periodcentered L A
EndChar

StartChar: B
Encoding: 14 66 14
GlifName: B_
Width: 559
VWidth: 0
Flags: HW
LayerCount: 2
Fore
SplineSet
48.28 461.536 m 257
 11.32 614.656 138.04 720.256 264.76 720.256 c 256
 337.624 720.256 409.432 685.408 451.672 604.096 c 256
 531.928 445.696 393.592 297.856 249.976 299.968 c 256
 197.176 301.024 144.376 322.144 100.024 369.664 c 257
 100.024 372.832 l 257
 148.6 428.8 210.904 453.088 272.152 454.144 c 256
 413.656 456.256 551.992 332.704 523.48 174.304 c 256
 516.44 133.472 501.304 99.152 478.072 71.344 c 128
 454.84 43.536 391 -20 294.328 -20 c 257
 260.536 -20 227.272 -12.96 194.536 1.12 c 128
 161.8 15.2 132.232 36.32 105.832 64.48 c 128
 79.432 92.64 60.248 128.192 48.28 171.136 c 1281
44.056 43.36 m 257
 39.9461 33.3787 43.0179 21.1124 50.186 12.1875 c 256
 55.9102 5.06028 64.2466 0.0640001 73.624 0.0640001 c 256
 82.6065 0.0640001 90.5307 5.1437 95.7859 12.3656 c 256
 102.269 21.2751 104.69 33.445 100.024 43.36 c 257
 100.024 651.616 l 1281
EndSplineSet
Validated: 524323
EndChar

StartChar: C
Encoding: 15 67 15
GlifName: C_
Width: 559
VWidth: 0
Flags: W
LayerCount: 2
Fore
SplineSet
518.374 605.362 m 257
 468.84 673.69 399.088 717.84 313.161 717.84 c 256
 142.319 717.84 31.1199 541.238 31.1199 350.971 c 256
 31.1199 159.653 142.319 -16.9488 313.161 -16.9488 c 256
 399.088 -16.9488 468.84 27.2016 518.374 95.5296 c 1281
EndSplineSet
Validated: 524291
EndChar

StartChar: C_H
Encoding: 16 988176 16
GlifName: C__H_
Width: 825
VWidth: 0
Flags: W
LayerCount: 2
Fore
SplineSet
780 44 m 257
 793 24 776 -2 752 2 c 257
 734 6 727 25 724 44 c 256
 710 147 752 248 752 351 c 256
 752 455 710 555 724 658 c 256
 727 677 734 697 752 700 c 256
 776 704 793 678 780 658 c 1281
306 351 m 257
 752 351 l 1281
324 206 m 257
 315 254 306 302 306 351 c 256
 306 401 316 451 324 500 c 1281
EndSplineSet
Refer: 15 67 N 1 0 0 1 0 0 2
Validated: 524323
PickledDataWithLists: "(dp0
Vcom.fontlab.metricsLeft
p1
VC
p2
sVcom.fontlab.metricsRight
p3
VH
p4
sVpublic.markColor
p5
V1,0.6,0.994,1
p6
s."
Ligature2: "sous-table 'rlig' Ligatures requises  dans Latin lookup 2" C periodcentered H
Ligature2: "sous-table 'liga' Ligatures standard dans Latin lookup 1" C periodcentered H
EndChar

StartChar: C_Q
Encoding: 17 988224 17
GlifName: C__Q_
Width: 659
VWidth: 0
Flags: W
LayerCount: 2
Fore
SplineSet
210 274 m 257
 249 274 284 250 299 214 c 256
 358 74 156 20 60 -85 c 256
 30 -117 28 -164 60 -174 c 256
 83 -181 101 -159 120 -144 c 256
 206 -75 314 -166 419 -174 c 256
 515 -182 604 -119 628 -25 c 1281
EndSplineSet
Refer: 15 67 N 1 0 0 1 0 0 2
Validated: 524323
PickledDataWithLists: "(dp0
Vcom.fontlab.metricsLeft
p1
VC
p2
sVcom.fontlab.metricsRight
p3
VQ
p4
sVpublic.markColor
p5
V1,0.6,0.994,1
p6
s."
Ligature2: "sous-table 'rlig' Ligatures requises  dans Latin lookup 2" C periodcentered Q
Ligature2: "sous-table 'liga' Ligatures standard dans Latin lookup 1" C periodcentered Q
EndChar

StartChar: D
Encoding: 22 68 22
GlifName: D_
Width: 626
VWidth: 0
Flags: W
LayerCount: 2
Fore
SplineSet
50 43 m 257
 45.5442 32.6031 46.726 21.7161 51.8464 13.3726 c 256
 57.0685 4.86353 66.387 -1 78 -1 c 256
 89.2035 -1 98.5916 4.96468 103.919 13.5924 c 256
 109.053 21.9068 110.417 32.6942 106 43 c 257
 106 690 l 1281
49 403 m 257
 10 567 136 719 308 719 c 256
 483 719 593 544 595 359 c 256
 597 171 521 34 359 -7 c 256
 271 -29 161 -4 106 51 c 1281
EndSplineSet
Validated: 524323
PickledDataWithLists: "(dp0
Vcom.fontlab.metricsLeft
p1
VB
p2
s."
EndChar

StartChar: D_E
Encoding: 23 988688 23
GlifName: D__E_
Width: 1050
VWidth: 0
Flags: W
LayerCount: 2
Fore
SplineSet
50 43 m 257
 41 22 55 -1 78 -1 c 256
 100 -1 115 22 106 43 c 257
 106 690 l 1281
49 403 m 257
 10 567 136 719 308 719 c 256
 403 719 482 667 535 581 c 1281
480 54 m 257
 442 22 403 4 359 -7 c 256
 271 -29 161 -4 106 51 c 1281
EndSplineSet
Refer: 26 69 N 1 0 0 1 446 0 2
Validated: 524323
PickledDataWithLists: "(dp0
Vcom.fontlab.metricsLeft
p1
VD
p2
sVcom.fontlab.metricsRight
p3
VE
p4
sVpublic.markColor
p5
V1,0.6,0.994,1
p6
s."
Ligature2: "sous-table 'rlig' Ligatures requises  dans Latin lookup 2" D periodcentered E
Ligature2: "sous-table 'liga' Ligatures standard dans Latin lookup 1" D periodcentered E
EndChar

StartChar: D_U_D_E_L_A
Encoding: 24 988720 24
GlifName: D__U__D__E__L__A_
Width: 3238
VWidth: 0
Flags: W
LayerCount: 2
Fore
SplineSet
2380 661 m 257
 2375 688 2347 716 2318 716 c 256
 2255 716 2235 659 2239 589 c 256
 2248 419 2337 254 2296 89 c 257
 2289 55 2273 22 2240 17 c 256
 2213 13 2186 31 2183 60 c 256
 2168 176 2321 120 2462 25 c 256
 2555 -36 2693 4 2724 111 c 256
 2760 235 2735 372 2758 502 c 256
 2777 611 2835 714 2943 714 c 256
 3052 714 3110 611 3128 502 c 256
 3155 352 3124 193 3181 52 c 257
 3189 34 3198 16 3208 -1 c 1281
2705 284 m 257
 3181 284 l 1281
EndSplineSet
Refer: 22 68 N 1 0 0 1 -0.3818 0 2
Refer: 130 85 N 1 0 0 1 557.087 -0.0582 2
Refer: 23 988688 N 1 0 0 1 1182 -0.175 2
Validated: 524323
PickledDataWithLists: "(dp0
Vcom.fontlab.metricsLeft
p1
VD
p2
sVcom.fontlab.metricsRight
p3
VA
p4
sVpublic.markColor
p5
V1,0.6,0.994,1
p6
s."
Ligature2: "sous-table 'rlig' Ligatures requises  dans Latin lookup 2" D U periodcentered D E space L A
Ligature2: "sous-table 'rlig' Ligatures requises  dans Latin lookup 2" D U periodcentered D E L A
Ligature2: "sous-table 'liga' Ligatures standard dans Latin lookup 1" D U periodcentered D E space L A
Ligature2: "sous-table 'liga' Ligatures standard dans Latin lookup 1" D U periodcentered D E L A
EndChar

StartChar: E
Encoding: 26 69 26
GlifName: E_
Width: 604
VWidth: 0
Flags: W
LayerCount: 2
Fore
SplineSet
535.344 714.53 m 257
 508.358 601.399 372.393 555.731 284.172 630.46 c 256
 246.807 661.597 221.898 714.53 172.079 714.53 c 256
 111.88 714.53 84.895 643.953 89.0466 575.451 c 256
 97.3498 409.387 183.495 249.551 144.055 87.6384 c 256
 136.79 54.4256 120.184 22.2507 89.0466 17.0612 c 256
 62.0612 12.9096 36.1137 31.5918 33 59.6151 c 256
 18.4694 172.746 167.927 117.737 305.968 25.3644 c 256
 396.265 -34.8338 526.002 6.68223 562.329 109.434 c 1281
77.6297 376.175 m 257
 446.084 376.175 l 1281
EndSplineSet
Validated: 524323
EndChar

StartChar: E_A
Encoding: 27 989200 27
GlifName: E__A_
Width: 1077
VWidth: 0
Flags: W
LayerCount: 2
Fore
SplineSet
536 715 m 257
 509 601 373 556 285 630 c 256
 248 662 223 715 173 715 c 256
 113 715 86 644 90 575 c 256
 98 409 184 250 145 88 c 257
 138 54 121 22 90 17 c 256
 63 13 37 32 34 60 c 256
 19 173 169 118 307 25 c 256
 397 -35 533 5 563 109 c 256
 598 230 574 375 597 502 c 256
 616 611 674 714 782 714 c 256
 891 714 949 611 967 502 c 256
 994 352 963 193 1020 52 c 257
 1028 34 1037 16 1047 -1 c 1281
79 376 m 257
 447 376 l 1281
544 284 m 257
 1020 284 l 1281
EndSplineSet
Validated: 35
PickledDataWithLists: "(dp0
Vcom.fontlab.metricsLeft
p1
VE
p2
sVcom.fontlab.metricsRight
p3
VA
p4
sVpublic.markColor
p5
V1,0.6,0.994,1
p6
s."
Ligature2: "sous-table 'rlig' Ligatures requises  dans Latin lookup 2" E periodcentered A
Ligature2: "sous-table 'liga' Ligatures standard dans Latin lookup 1" E periodcentered A
EndChar

StartChar: E_S_S_E
Encoding: 30 989376 30
GlifName: E__S__S__E_
Width: 2068
VWidth: 0
Flags: W
LayerCount: 2
Fore
SplineSet
2000 715 m 257
 1973 601 1836.69 555.636 1749 630 c 256
 1711.69 661.638 1687 715 1637 715 c 256
 1577 715 1550.48 644.026 1554 575 c 256
 1562.48 409.024 1648 250 1609 88 c 257
 1602 54 1585.03 21.8149 1554 17 c 256
 1527.03 12.8147 1501.57 32.0664 1498 60 c 256
 1483.57 173.074 1632.82 117.728 1771 25 c 256
 1860.82 -35.2724 1991 7 2027 109 c 1281
1006 529 m 257
 959 642 872.015 708.177 768 717 c 256
 648.015 727.177 538.498 649.957 548 541 c 256
 568.498 305.956 955.991 418.703 1015 220 c 256
 1053.99 88.6968 923.003 -31.9714 768 -14 c 256
 647.003 0.0285997 547 87 519 206 c 1281
1013 119 m 257
 1060 45 1137.02 -3.8619 1225 -14 c 256
 1380.02 -31.8619 1510.99 88.6968 1472 220 c 256
 1412.99 418.703 1025.5 305.956 1005 541 c 256
 995.498 649.957 1105.05 727.6 1225 717 c 256
 1320.05 708.6 1419.27 660.076 1449 555 c 256
 1492.27 402.076 1514 377.588 1661 377 c 258
 1911 376 l 1281
EndSplineSet
Refer: 26 69 N 1 0 0 1 0 0 2
Validated: 524323
PickledDataWithLists: "(dp0
Vcom.fontlab.metricsLeft
p1
VE
p2
sVcom.fontlab.metricsRight
p3
g2
sVpublic.markColor
p4
V1,0.6,0.994,1
p5
s."
Ligature2: "sous-table 'rlig' Ligatures requises  dans Latin lookup 2" E periodcentered S S E
Ligature2: "sous-table 'liga' Ligatures standard dans Latin lookup 1" E periodcentered S S E
EndChar

StartChar: E_S_S_E_S
Encoding: 31 989392 31
GlifName: E__S__S__E__S_
Width: 2523
VWidth: 0
Flags: W
LayerCount: 2
Fore
SplineSet
2000 715 m 257
 1973 601 1836.69 555.636 1749 630 c 256
 1711.69 661.638 1687 715 1637 715 c 256
 1577 715 1550.48 644.026 1554 575 c 256
 1562.48 409.024 1648 250 1609 88 c 257
 1602 54 1585.03 21.8149 1554 17 c 256
 1527.03 12.8147 1501.57 32.0664 1498 60 c 256
 1483.57 173.074 1632.82 117.728 1771 25 c 256
 1860.82 -35.2724 1991 7 2027 109 c 1281
1006 529 m 257
 959 642 872.015 708.177 768 717 c 256
 648.015 727.177 538.498 649.957 548 541 c 256
 568.498 305.956 955.991 418.703 1015 220 c 256
 1053.99 88.6968 923.003 -31.9714 768 -14 c 256
 647.003 0.0285997 547 87 519 206 c 1281
1013 119 m 257
 1060 45 1137.02 -3.8619 1225 -14 c 256
 1380.02 -31.8619 1510.99 88.6968 1472 220 c 256
 1412.99 418.703 1025.5 305.956 1005 541 c 256
 995.498 649.957 1105.05 727.6 1225 717 c 256
 1320.05 708.6 1419.27 660.076 1449 555 c 256
 1492.27 402.076 1514 377.588 1661 377 c 258
 1911 376 l 1281
EndSplineSet
Refer: 26 69 N 1 0 0 1 0 0 2
Refer: 111 83 N 1 0 0 1 1941 0 2
Validated: 524323
PickledDataWithLists: "(dp0
Vcom.fontlab.metricsLeft
p1
VE
p2
sVcom.fontlab.metricsRight
p3
VS
p4
sVpublic.markColor
p5
V1,0.6,0.994,1
p6
s."
Ligature2: "sous-table 'rlig' Ligatures requises  dans Latin lookup 2" E periodcentered S S E S
Ligature2: "sous-table 'liga' Ligatures standard dans Latin lookup 1" E periodcentered S S E S
EndChar

StartChar: E_T
Encoding: 32 989280 32
GlifName: E__T_
Width: 1186
VWidth: 0
Flags: W
LayerCount: 2
Fore
SplineSet
1165 637 m 257
 1160 652 1151 665 1139 675 c 256
 1050 753 939 637 832 637 c 256
 734.202 637 582.874 766.81 511 659 c 257
 460 589 357 570 285 630 c 256
 248 662 223 715 173 715 c 256
 113 715 86 644 90 575 c 256
 98 409 184 250 145 88 c 257
 138 54 121 22 90 17 c 256
 63 13 37 32 34 60 c 256
 19 173 169 118 307 25 c 256
 397 -35 527 7 563 109 c 1281
79 376 m 257
 447 376 l 1281
832 636 m 257
 832 0 l 1281
EndSplineSet
Validated: 524323
PickledDataWithLists: "(dp0
Vcom.fontlab.metricsLeft
p1
VE
p2
sVcom.fontlab.metricsRight
p3
VT
p4
sVpublic.markColor
p5
V1,0.6,0.994,1
p6
s."
Ligature2: "sous-table 'rlig' Ligatures requises  dans Latin lookup 2" E periodcentered T
Ligature2: "sous-table 'liga' Ligatures standard dans Latin lookup 1" E periodcentered T
EndChar

StartChar: E_T_T
Encoding: 33 989296 33
GlifName: E__T__T_
Width: 1653
VWidth: 0
Flags: W
LayerCount: 2
Fore
SplineSet
830 636 m 257
 830 0 l 1281
1299 636 m 257
 1299 0 l 1281
562.268 111.944 m 257
 525.941 9.19267 396.141 -32.4177 305.907 27.8749 c 256
 167.803 120.153 18.7912 175.305 32.9387 62.1256 c 256
 36.436 34.1475 62.0283 15.2393 88.9853 19.5717 c 256
 120.152 24.5806 136.08 57.0848 143.994 90.1489 c 256
 182.786 252.218 97.8014 411.924 88.9853 577.961 c 256
 85.3465 646.493 111.819 717.04 172.018 717.04 c 256
 221.837 717.04 246.923 664.319 284.111 632.97 c 256
 355.385 572.888 457.467 590.8 508.487 659.293 c 256
 512.647 665.084 517.465 670.388 523 675 c 256
 613 753 723 637 830 637 c 256
 908 637 988 700 1060 702 c 256
 1135 704 1218 637 1299 637 c 256
 1406 637 1517 753 1606 675 c 256
 1618 665 1627 652 1632 637 c 1281
77.5684 378.685 m 257
 446.023 378.685 l 1281
EndSplineSet
Validated: 524323
PickledDataWithLists: "(dp0
Vcom.fontlab.metricsLeft
p1
VE
p2
sVcom.fontlab.metricsRight
p3
VT
p4
sVcom.fontlab.recipe
p5
VE_T_T
p6
sVpublic.markColor
p7
V1,0.6,0.994,1
p8
s."
Ligature2: "sous-table 'rlig' Ligatures requises  dans Latin lookup 2" E periodcentered T T
Ligature2: "sous-table 'liga' Ligatures standard dans Latin lookup 1" E periodcentered T T
EndChar

StartChar: E_U
Encoding: 34 989344 34
GlifName: E__U_
Width: 1102
VWidth: 0
Flags: W
LayerCount: 2
Fore
SplineSet
1033 656 m 257
 1045 671 1038 694 1018 699 c 256
 996 705 976 682 976 656 c 256
 976 472 1103 292 1018 123 c 256
 976 37 906 -13 809 -21 c 256
 690 -32 608 18 556 123 c 256
 472 292 585 472 585 656 c 256
 585 676 575 697 556 699 c 257
 542 701 529 693 524 682 c 256
 481 593 364 563 285 630 c 256
 248 662 223 715 173 715 c 256
 113 715 86 644 90 575 c 256
 98 409 184 250 145 88 c 257
 138 54 121 22 90 17 c 256
 63 13 37 32 34 60 c 256
 19 173 169 118 307 25 c 256
 397 -35 527 7 563 109 c 1281
79 376 m 257
 447 376 l 1281
EndSplineSet
Validated: 35
PickledDataWithLists: "(dp0
Vcom.fontlab.metricsLeft
p1
VE
p2
sVcom.fontlab.metricsRight
p3
VU
p4
sVpublic.markColor
p5
V1,0.6,0.994,1
p6
s."
Ligature2: "sous-table 'rlig' Ligatures requises  dans Latin lookup 2" E periodcentered U
Ligature2: "sous-table 'liga' Ligatures standard dans Latin lookup 1" E periodcentered U
EndChar

StartChar: Eacute_E
Encoding: 36 989216 36
GlifName: E_acute_E_
Width: 1017
VWidth: 0
Flags: W
LayerCount: 2
Fore
SplineSet
78 376 m 257
 860 376 l 1281
949 715 m 257
 922 601 785.693 555.636 698 630 c 256
 660.69 661.638 636 715 586 715 c 256
 526 715 499.475 644.026 503 575 c 256
 511.475 409.024 597 250 558 88 c 257
 551 54 534.029 21.8149 503 17 c 256
 476.028 12.8147 450.566 32.0664 447 60 c 256
 432.565 173.074 581.817 117.728 720 25 c 256
 809.818 -35.2724 940 7 976 109 c 1281
522 674 m 257
 477 591 360.587 565.506 284 630 c 256
 246.582 661.51 222 715 172 715 c 256
 112 715 85.4753 644.026 89 575 c 256
 97.4754 409.024 183 250 144 88 c 257
 137 54 120.029 21.8149 89 17 c 256
 62.0281 12.8147 36.566 32.0664 33 60 c 256
 18.5651 173.074 167.87 117.806 306 25 c 256
 359.87 -11.194 430 -10 484 18 c 1281
181 785 m 257
 423 889 l 1281
EndSplineSet
Validated: 524323
PickledDataWithLists: "(dp0
Vcom.fontlab.metricsLeft
p1
VE
p2
sVcom.fontlab.metricsRight
p3
g2
sVpublic.markColor
p4
V1,0.6,0.994,1
p5
s."
Ligature2: "sous-table 'rlig' Ligatures requises  dans Latin lookup 2" Eacute periodcentered E
Ligature2: "sous-table 'liga' Ligatures standard dans Latin lookup 1" Eacute periodcentered E
EndChar

StartChar: Ecircumflex_T_E
Encoding: 39 989328 39
GlifName: E_circumflex_T__E_
Width: 1674
VWidth: 0
Flags: W
LayerCount: 2
Fore
SplineSet
1164 637 m 257
 1159 652 1149.78 664.739 1138 675 c 256
 1048.77 752.741 938 637 831 637 c 256
 724 637 614.093 752.893 524 675 c 256
 518.092 669.892 514.228 664.842 510 659 c 256
 459.224 588.837 355.622 569.549 284 630 c 256
 246.617 661.552 222 715 172 715 c 256
 112 715 85.4753 644.026 89 575 c 256
 97.4754 409.024 183 250 144 88 c 257
 137 54 120.029 21.8149 89 17 c 256
 62.0281 12.8147 36.566 32.0664 33 60 c 256
 18.5651 173.074 167.817 117.728 306 25 c 256
 395.818 -35.2724 526 7 562 109 c 1281
78 376 m 257
 446 376 l 1281
831 636 m 257
 831 0 l 1281
181 785 m 257
 302 889 l 257
 423 785 l 1281
EndSplineSet
Refer: 26 69 N 1 0 0 1 1070 0 2
Validated: 524323
PickledDataWithLists: "(dp0
Vcom.fontlab.metricsLeft
p1
VE
p2
sVcom.fontlab.metricsRight
p3
g2
sVpublic.markColor
p4
V1,0.6,0.994,1
p5
s."
Ligature2: "sous-table 'rlig' Ligatures requises  dans Latin lookup 2" Ecircumflex periodcentered T E
Ligature2: "sous-table 'liga' Ligatures standard dans Latin lookup 1" Ecircumflex periodcentered T E
EndChar

StartChar: Egrave_T_E
Encoding: 42 -1 42
GlifName: E_grave_T__E_
Width: 1680
VWidth: 0
Flags: W
LayerCount: 2
Fore
SplineSet
1611.3 714.53 m 257
 1584.31 601.399 1448.35 555.731 1360.13 630.46 c 256
 1322.76 661.597 1297.85 714.53 1248.03 714.53 c 256
 1187.83 714.53 1160.85 643.953 1165 575.451 c 256
 1173.3 409.387 1259.45 249.551 1220.01 87.6384 c 256
 1212.74 54.4256 1196.14 22.2507 1165 17.0612 c 256
 1138.01 12.9096 1112.07 31.5918 1108.95 59.6151 c 256
 1094.42 172.746 1243.88 117.737 1381.92 25.3644 c 256
 1472.22 -34.8338 1601.96 6.68223 1638.28 109.434 c 1281
1153.58 376.175 m 257
 1522.04 376.175 l 1281
EndSplineSet
Refer: 32 989280 N 1 0 0 1 0 0.1395 2
Refer: 268 175 N 1 0 0 1 154.341 200 2
Validated: 524323
PickledDataWithLists: "(dp0
Vcom.fontlab.metricsLeft
p1
VE
p2
sVcom.fontlab.metricsRight
p3
g2
sVcom.fontlab.recipe
p4
VEgrave_T_E
p5
sVpublic.markColor
p6
V1,0.6,0.994,1
p7
s."
Ligature2: "sous-table 'rlig' Ligatures requises  dans Latin lookup 2" Egrave T periodcentered E
Ligature2: "sous-table 'liga' Ligatures standard dans Latin lookup 1" Egrave T periodcentered E
EndChar

StartChar: Emacron_R_E
Encoding: 44 1000272 44
GlifName: E_macron_R__E_
Width: 1498
VWidth: 0
Flags: W
LayerCount: 2
Fore
SplineSet
504.734 30.4793 m 257
 505.288 14.256 518.778 -0.0839996 536.24 -0.0839996 c 256
 558.171 -0.0839996 571.747 22.532 563.392 43.092 c 257
 563.392 688.676 l 1281
510.133 467.656 m 257
 479.848 623.912 610.381 728.669 737.79 722.6 c 256
 804.62 719.417 870.388 686.604 913.233 613.632 c 256
 936.179 574.552 945.863 536.531 945.606 499.524 c 256
 944.819 386.442 845.359 291.792 733.613 283.644 c 256
 676.183 279.456 615.607 298.036 563.392 348.408 c 257
 940.384 44.12 l 1281
EndSplineSet
Refer: 43 274 N 1 0 0 1 0 0 2
Refer: 26 69 N 1 0 0 1 904 0 2
Validated: 524323
PickledDataWithLists: "(dp0
Vcom.fontlab.metricsLeft
p1
VE
p2
sVcom.fontlab.metricsRight
p3
VR
p4
sVcom.fontlab.recipe
p5
VEmacron_R_E
p6
sVpublic.markColor
p7
V1,0.6,0.994,1
p8
s."
Ligature2: "sous-table 'rlig' Ligatures requises  dans Latin lookup 2" Egrave R periodcentered E
Ligature2: "sous-table 'rlig' Ligatures requises  dans Latin lookup 2" E R periodcentered E
Ligature2: "sous-table 'liga' Ligatures standard dans Latin lookup 1" Egrave R periodcentered E
Ligature2: "sous-table 'liga' Ligatures standard dans Latin lookup 1" E R periodcentered E
EndChar

StartChar: F
Encoding: 47 70 47
GlifName: F_
Width: 555
VWidth: 0
Flags: W
LayerCount: 2
Fore
SplineSet
117.966 44.0062 m 257
 110.585 32.0841 112.653 18.9023 119.976 10.226 c 256
 125.853 3.262 135.116 -0.7993 145.597 1.0234 c 256
 154.821 2.5606 161.479 8.45931 166.085 16.4073 c 256
 170.678 24.3333 173.231 34.2973 174.253 44.0061 c 257
 199.838 227.195 40.1872 386.845 60.6552 571.057 c 256
 69.8658 654.976 128.2 728.661 202.908 713.31 c 256
 251.008 704.099 277.616 655.999 316.505 627.344 c 256
 409.635 561.847 538.583 604.829 573.379 713.31 c 1281
40.1872 389.915 m 257
 412.705 389.915 l 1281
EndSplineSet
Validated: 524323
EndChar

StartChar: F_E
Encoding: 48 991248 48
GlifName: F__E_
Width: 1020
VWidth: 0
Flags: W
LayerCount: 2
Fore
SplineSet
118 44 m 257
 110.878 32.4959 112.76 19.4913 119.863 10.7402 c 256
 125.726 3.51668 135.148 -0.8087 146 1 c 256
 164 4 172 25 174 44 c 257
 200 227 40 387 61 571 c 256
 69.1656 647.212 117.667 715.193 182.604 715.193 c 256
 213.733 715.193 236.858 701.906 259.522 681.101 c 256
 278.623 663.567 296.086 642.551 317 627 c 257
 377 585 453 588 509 627 c 1281
952 715 m 257
 925 601 789 556 701 630 c 256
 664 662 639 715 589 715 c 256
 529 715 502 644 506 575 c 256
 514 409 600 250 561 88 c 257
 554 54 537 22 506 17 c 256
 479 13 453 32 450 60 c 256
 435 173 585 118 723 25 c 256
 813 -35 943 7 979 109 c 1281
40 376 m 257
 863 376 l 1281
EndSplineSet
Validated: 524323
PickledDataWithLists: "(dp0
Vcom.fontlab.metricsLeft
p1
VF
p2
sVcom.fontlab.metricsRight
p3
VE
p4
sVpublic.markColor
p5
V1,0.6,0.994,1
p6
s."
Ligature2: "sous-table 'rlig' Ligatures requises  dans Latin lookup 2" F periodcentered E
Ligature2: "sous-table 'liga' Ligatures standard dans Latin lookup 1" F periodcentered E
EndChar

StartChar: F_F_E
Encoding: 49 991280 49
GlifName: F__F__E_
Width: 1430
VWidth: 0
Flags: W
LayerCount: 2
Fore
SplineSet
117 44 m 257
 109.79 32.3524 111.808 19.1667 119.131 10.4147 c 256
 125.011 3.38735 134.312 -0.7814 145 1 c 256
 163 4 171 25 173 44 c 257
 199 227 39 387 60 571 c 256
 69 655 127 729 202 713 c 256
 250 704 277 656 316 627 c 256
 364 593 422 589 479 611 c 1281
528 44 m 257
 520.771 32.3225 522.819 19.0989 530.188 10.3474 c 256
 536.071 3.36074 545.346 -0.7757 556 1 c 256
 574 4 582 25 584 44 c 257
 610 227 450 387 471 571 c 256
 480 655 538 729 613 713 c 256
 635.042 708.867 652.656 696.51 669.036 681.546 c 256
 688.328 663.923 705.909 642.683 727 627 c 257
 787 585 863 588 919 627 c 1281
1362 715 m 257
 1335 601 1199 556 1111 630 c 256
 1074 662 1049 715 999 715 c 256
 939 715 912 644 916 575 c 256
 924 409 1010 250 971 88 c 257
 964 54 947 22 916 17 c 256
 889 13 863 32 860 60 c 256
 845 173 995 118 1133 25 c 256
 1223 -35 1353 7 1389 109 c 1281
40 376 m 257
 1273 376 l 1281
EndSplineSet
Validated: 524323
PickledDataWithLists: "(dp0
Vcom.fontlab.metricsLeft
p1
VF
p2
sVcom.fontlab.metricsRight
p3
VE
p4
sVpublic.markColor
p5
V1,0.6,0.994,1
p6
s."
Ligature2: "sous-table 'rlig' Ligatures requises  dans Latin lookup 2" F periodcentered F E
Ligature2: "sous-table 'liga' Ligatures standard dans Latin lookup 1" F periodcentered F E
EndChar

StartChar: G
Encoding: 51 71 51
GlifName: G_
Width: 618
VWidth: 0
Flags: W
LayerCount: 2
Fore
SplineSet
569 570.587 m 257
 516 676.427 408 734.639 299 717.705 c 256
 141 693.362 35 530.368 31 349.382 c 256
 27 162.045 137 -9.41603 299 -17.8832 c 256
 428 -25.292 552 78.4312 582 217.082 c 256
 601 302.812 564 379.017 501 379.017 c 256
 442 379.017 428 302.812 393 246.717 c 256
 351 178.979 248 225.549 232 305.987 c 1281
EndSplineSet
Validated: 524323
EndChar

StartChar: G_U
Encoding: 52 991760 52
GlifName: G__U_
Width: 1094
VWidth: 0
Flags: W
LayerCount: 2
Fore
SplineSet
548.035 127.068 m 257
 599.745 22.6137 682.481 -28.0621 801.414 -16.6859 c 256
 897.594 -8.41228 967.92 41.2293 1010.32 127.068 c 256
 1095.13 296.676 967.92 476.627 967.92 659.681 c 256
 967.92 673.583 973.172 686.378 981.389 694.638 c 256
 989.067 702.356 999.333 706.114 1010.32 703.117 c 256
 1016.97 701.367 1022.2 697.603 1025.73 692.787 c 256
 1032.62 683.374 1033.01 669.944 1024.8 659.681 c 1281
EndSplineSet
Refer: 51 71 N 1 0 0 1 0 0 2
Validated: 524323
PickledDataWithLists: "(dp0
Vcom.fontlab.metricsLeft
p1
VG
p2
sVcom.fontlab.metricsRight
p3
VU
p4
sVcom.fontlab.recipe
p5
VG_U
p6
sVpublic.markColor
p7
V1,0.6,0.994,1
p8
s."
Ligature2: "sous-table 'rlig' Ligatures requises  dans Latin lookup 2" G periodcentered U
Ligature2: "sous-table 'liga' Ligatures standard dans Latin lookup 1" G periodcentered U
EndChar

StartChar: H
Encoding: 54 72 54
GlifName: H_
Width: 594
VWidth: 0
Flags: W
LayerCount: 2
Fore
SplineSet
47 44 m 257
 39.6851 32.7463 41.8686 19.593 49.453 10.9535 c 256
 55.3475 4.23884 64.5044 0.2507 75 2 c 257
 93 6 100 25 103 44 c 256
 108.108 81.5832 105.761 118.9 100.718 156.145 c 256
 91.9416 220.973 75 285.583 75 351 c 256
 75 409.41 88.2483 466.559 97.3832 523.686 c 256
 104.513 568.274 109.137 612.849 103 658 c 256
 100 677 93 697 75 700 c 256
 64.8951 701.684 56.0311 698.05 50.1247 691.785 c 256
 42.0029 683.17 39.4735 669.579 47 658 c 1281
549 44 m 257
 556.153 32.9956 554.223 20.1747 547.043 11.5341 c 256
 541.173 4.4708 531.795 0.2009 521 2 c 257
 503 6 496 25 493 44 c 256
 487.984 80.9063 490.157 117.556 495.012 154.133 c 256
 503.706 219.636 521 284.906 521 351 c 256
 521 412.187 506.462 471.989 497.344 531.832 c 256
 490.964 573.705 487.237 615.598 493 658 c 256
 496 677 503 697 521 700 c 256
 531.105 701.684 539.969 698.05 545.876 691.784 c 256
 553.997 683.169 556.526 669.579 549 658 c 1281
75 351 m 257
 521 351 l 1281
EndSplineSet
Validated: 524323
EndChar

StartChar: H_O_F
Encoding: 55 992272 55
GlifName: H__O__F_
Width: 1480
VWidth: 0
Flags: HW
LayerCount: 2
Fore
SplineSet
47 44 m 257
 34 24 51 -2 75 2 c 257
 93 6 100 25 103 44 c 256
 117 147 75 248 75 351 c 256
 75 455 117 555 103 658 c 256
 100 677 93 697 75 700 c 256
 51 704 34 678 47 658 c 1281
75 351 m 257
 474 351 l 1281
966 351 m 257
 1339 351 l 1281
995 460 m 257
 990 476 981 514 987 571 c 256
 996 655 1054 729 1129 713 c 256
 1177 704 1204 656 1243 627 c 257
 1335.71242742 562.200991591 1464.20256221 604.735105313 1498.68187664 712 c 1025
1498.68187664 712 m 1025
EndSplineSet
Refer: 85 79 N 1 0 0 1 444.495 -0.0463 2
PickledDataWithLists: "(dp0
Vcom.fontlab.metricsLeft
p1
VH
p2
sVcom.fontlab.metricsRight
p3
VF
p4
sVpublic.markColor
p5
V1,0.6,0.994,1
p6
s."
EndChar

StartChar: I
Encoding: 57 73 57
GlifName: I_
Width: 246
VWidth: 0
Flags: W
LayerCount: 2
Fore
SplineSet
81 44 m 257
 79 20 99 0 123 2 c 256
 149 4 165 30 165 58 c 256
 165 256 81 446 81 644 c 256
 81 672 97 698 123 700 c 256
 147 702 167 682 165 658 c 1281
EndSplineSet
Validated: 35
EndChar

StartChar: I_e_l
Encoding: 60 993056 60
GlifName: I__e_l
Width: 662
VWidth: 0
Flags: W
LayerCount: 2
Fore
SplineSet
587 228.835 m 257
 587 128.459 492.634 -10 373 -10 c 256
 247.4 -10 171 59 159 174 c 256
 157.016 193.345 178.528 204.755 212.447 213.661 c 256
 315.291 240.666 532.192 244.65 554 377 c 256
 568 465 474 531 373 514 c 256
 295 500 231 467 184 376 c 256
 132 275 153 139 188 79 c 1281
EndSplineSet
Refer: 57 73 N 1 0 0 1 0 0 2
Refer: 259 108 N 1 0 0 1 494 0 2
Validated: 524323
PickledDataWithLists: "(dp0
Vcom.fontlab.metricsLeft
p1
VI
p2
sVcom.fontlab.metricsRight
p3
Vl
p4
sVcom.fontlab.recipe
p5
VI_e_l
p6
sVpublic.markColor
p7
V1,0.6,0.994,1
p8
s."
Ligature2: "sous-table 'rlig' Ligatures requises  dans Latin lookup 2" I periodcentered e l
Ligature2: "sous-table 'liga' Ligatures standard dans Latin lookup 1" I periodcentered e l
EndChar

StartChar: J
Encoding: 66 74 66
GlifName: J_
Width: 546
VWidth: 0
Flags: W
LayerCount: 2
Fore
SplineSet
66.4536 550.44 m 257
 45.1767 572.884 38.7745 601.896 43.6615 628.324 c 256
 50.5624 665.642 79.9735 697.807 121.8 699.05 c 256
 148.706 699.873 185.888 679.815 222.044 660.123 c 256
 279.192 628.999 333.777 598.791 341.173 653.405 c 256
 345.199 684.189 361.299 699.05 381.425 699.05 c 256
 409.602 699.05 423.69 685.25 426.709 653.405 c 257
 492.118 448.536 563.566 228.805 431.74 70.642 c 256
 381.425 11.198 309.978 -19.5855 234.506 -19.5855 c 256
 121.8 -19.5855 16.1386 85.503 46.3276 188.468 c 256
 52.3654 209.698 66.4536 229.867 88.5922 231.99 c 257
 112.743 235.174 132.869 213.944 129.85 188.468 c 1281
EndSplineSet
Validated: 524323
EndChar

StartChar: K
Encoding: 68 75 68
GlifName: K_
Width: 674
VWidth: 0
Flags: W
LayerCount: 2
Fore
SplineSet
545 700 m 257
 592 536 465 373 294 379 c 256
 203 382 99 387 99 309 c 1281
294 379 m 257
 453 379 539 212 573 44 c 256
 577 25 583 6 601 2 c 256
 614.072 -0.7233 625.364 6.04617 630.675 16.0071 c 256
 635.115 24.3348 635.375 34.8931 629 44 c 1281
43 44 m 257
 38.5943 34.2096 39.9397 23.94 45.0421 16.0064 c 256
 50.3629 7.73301 59.7694 2 71 2 c 256
 80.1561 2 88.1716 6.18218 93.6374 12.5573 c 256
 100.708 20.804 103.512 32.7201 99 44 c 257
 99 658 l 257
 103.472 669.181 100.756 680.987 93.8223 689.225 c 256
 88.3531 695.722 80.2599 700 71 700 c 256
 60.7032 700 51.9399 695.181 46.4528 688.003 c 256
 40.2163 679.845 38.2123 668.639 43 658 c 1281
EndSplineSet
Validated: 524323
EndChar

StartChar: L
Encoding: 69 76 69
GlifName: L_
Width: 626
VWidth: 0
Flags: W
LayerCount: 2
Fore
SplineSet
228.667 660.964 m 257
 223.572 688.474 196.062 715.984 166.514 715.984 c 256
 104.361 715.984 83.9828 658.926 88.0584 588.622 c 256
 97.2285 419.484 185.873 254.423 145.117 89.3608 c 257
 137.985 54.7182 121.682 22.1134 89.0773 17.0189 c 256
 61.567 12.9433 35.0756 31.2835 32.0189 59.8127 c 256
 16.7354 175.967 169.57 119.928 311.198 25.1701 c 256
 403.917 -35.9639 536.374 5.81099 573.055 110.758 c 1281
EndSplineSet
Validated: 524323
EndChar

StartChar: L_E
Encoding: 70 995856 70
GlifName: L__E_
Width: 1000
VWidth: 0
Flags: W
LayerCount: 2
Fore
SplineSet
229 661 m 257
 224 688 196 716 167 716 c 256
 104 716 84 659 88 589 c 256
 97 419 186 254 145 89 c 257
 138 55 122 22 89 17 c 256
 62 13 35 31 32 60 c 256
 17 176 170 120 311 25 c 256
 371 -14 446 -11 503 24 c 1281
EndSplineSet
Refer: 26 69 N 1 0 0 1 396 0 2
Validated: 524323
PickledDataWithLists: "(dp0
Vcom.fontlab.metricsLeft
p1
VL
p2
sVcom.fontlab.metricsRight
p3
VE
p4
sVpublic.markColor
p5
V1,0.6,0.994,1
p6
s."
Ligature2: "sous-table 'rlig' Ligatures requises  dans Latin lookup 2" L periodcentered E
Ligature2: "sous-table 'liga' Ligatures standard dans Latin lookup 1" L periodcentered E
EndChar

StartChar: L_L
Encoding: 71 995872 71
GlifName: L__L_
Width: 1022
VWidth: 0
Flags: W
LayerCount: 2
Fore
SplineSet
228.667 660.964 m 257
 223.572 688.474 196.062 715.984 166.514 715.984 c 256
 104.361 715.984 83.9828 658.926 88.0584 588.622 c 256
 97.2285 419.484 185.873 254.423 145.117 89.3608 c 257
 137.985 54.7182 121.682 22.1134 89.0773 17.0189 c 256
 61.567 12.9433 35.0756 31.2835 32.0189 59.8127 c 256
 16.7354 175.967 169.57 119.928 311.198 25.1701 c 256
 369.763 -13.4446 444.182 -11.0018 500.306 22.4846 c 1281
EndSplineSet
Refer: 69 76 N 1 0 0 1 396 0 2
Validated: 524323
PickledDataWithLists: "(dp0
Vcom.fontlab.metricsLeft
p1
VL
p2
sVcom.fontlab.metricsRight
p3
g2
sVcom.fontlab.recipe
p4
VL_L
p5
sVpublic.markColor
p6
V1,0.6,0.994,1
p7
s."
Ligature2: "sous-table 'rlig' Ligatures requises  dans Latin lookup 2" L periodcentered L
Ligature2: "sous-table 'liga' Ligatures standard dans Latin lookup 1" L periodcentered L
EndChar

StartChar: L_L_E
Encoding: 72 995888 72
GlifName: L__L__E_
Width: 1395
VWidth: 0
Flags: W
LayerCount: 2
Fore
SplineSet
624 661 m 257
 619 688 591 716 562 716 c 256
 499 716 479 659 483 589 c 256
 492 419 581 254 540 89 c 257
 533 55 517 22 484 17 c 256
 457 13 430 31 427 60 c 256
 412 176 565 120 706 25 c 256
 766 -14 841 -11 898 24 c 1281
229 661 m 257
 224 688 196 716 167 716 c 256
 104 716 84 659 88 589 c 256
 97 419 186 254 145 89 c 257
 138 55 122 22 89 17 c 256
 62 13 35 31 32 60 c 256
 17 176 170 120 311 25 c 256
 371 -14 446 -11 503 24 c 1281
EndSplineSet
Refer: 26 69 N 1 0 0 1 791 0 2
Validated: 524323
PickledDataWithLists: "(dp0
Vcom.fontlab.metricsLeft
p1
VL
p2
sVcom.fontlab.metricsRight
p3
VE
p4
sVpublic.markColor
p5
V1,0.6,0.994,1
p6
s."
Ligature2: "sous-table 'rlig' Ligatures requises  dans Latin lookup 2" L periodcentered L E
Ligature2: "sous-table 'liga' Ligatures standard dans Latin lookup 1" L periodcentered L E
EndChar

StartChar: M
Encoding: 75 77 75
GlifName: M_
Width: 744
VWidth: 0
Flags: W
LayerCount: 2
Fore
SplineSet
41.8954 32.159 m 257
 38.6848 7.5444 60.0888 -13.8596 84.7034 -10.649 c 256
 106.107 -7.4384 120.02 11.8252 127.511 32.159 c 257
 207.776 230.146 -14.8252 442.046 84.7034 635.752 c 256
 105.037 675.349 141.424 708.525 185.302 707.455 c 256
 229.18 706.385 263.427 673.209 285.901 635.752 c 256
 361.885 508.398 328.709 352.149 328.709 204.461 c 256
 328.709 169.145 341.551 132.758 371.517 132.758 c 256
 402.553 132.758 415.395 169.145 415.395 204.461 c 256
 415.395 352.149 382.219 508.398 458.203 635.752 c 256
 480.677 673.209 514.924 706.385 558.802 707.455 c 256
 602.68 708.525 637.997 675.349 659.401 635.752 c 256
 757.859 442.046 536.328 230.146 615.523 32.159 c 256
 624.084 11.8252 637.997 -7.4384 659.401 -10.649 c 256
 684.015 -13.8596 705.419 7.5444 702.209 32.159 c 1281
EndSplineSet
Validated: 524323
EndChar

StartChar: M_P
Encoding: 76 996368 76
GlifName: M__P_
Width: 1105
VWidth: 0
Flags: W
LayerCount: 2
Fore
SplineSet
569 373 m 257
 500 565 653 719 812 721 c 256
 887 722 964 690 1021 612 c 256
 1059 558 1074 504 1073 451 c 256
 1071 313 948 195 812 190 c 256
 748 188 682 211 623 267 c 1281
EndSplineSet
Refer: 75 77 N 1 0 0 1 0 0 2
Validated: 524323
PickledDataWithLists: "(dp0
Vcom.fontlab.metricsLeft
p1
VM
p2
sVcom.fontlab.metricsRight
p3
VP
p4
sVpublic.markColor
p5
V1,0.6,0.994,1
p6
s."
Ligature2: "sous-table 'rlig' Ligatures requises  dans Latin lookup 2" M periodcentered P
Ligature2: "sous-table 'liga' Ligatures standard dans Latin lookup 1" M periodcentered P
EndChar

StartChar: N
Encoding: 77 78 77
GlifName: N_
Width: 654
VWidth: 0
Flags: W
LayerCount: 2
Fore
SplineSet
34.6452 42.3968 m 257
 31.1475 17.3696 54.4655 -4.5292 83.613 -1.4008 c 256
 108.097 1.7276 122.088 21.5408 132.581 42.3968 c 257
 224.687 240.529 18.3226 433.447 83.613 636.793 c 256
 96.4379 675.376 123.254 710.832 165.226 709.789 c 256
 206.032 708.746 229.35 673.291 245.673 636.793 c 256
 327.286 450.132 327.286 249.914 408.899 63.2528 c 256
 425.222 26.7548 448.54 -8.7004 490.512 -9.7432 c 256
 532.484 -10.786 559.3 24.6692 572.125 63.2528 c 256
 637.415 266.599 431.051 461.602 523.157 659.734 c 256
 532.484 680.59 547.641 700.404 572.125 703.532 c 256
 600.107 706.66 624.591 684.762 619.927 659.734 c 1281
EndSplineSet
Validated: 524323
EndChar

StartChar: N_A
Encoding: 78 996880 78
GlifName: N__A_
Width: 947
VWidth: 0
Flags: W
LayerCount: 2
Fore
SplineSet
35 42 m 257
 31 17 54 -5 84 -1 c 256
 108 2 122 22 133 42 c 257
 225 241 18 433 84 637 c 256
 96 675 123 711 165 710 c 256
 206 709 229 673 246 637 c 257
 327 450 327 250 409 63 c 256
 425 27 449 -9 491 -10 c 256
 532 -11 559 25 572 63 c 256
 633 255 445 441 510 624 c 256
 530 682 587 714 652 714 c 256
 761 714 819 611 837 502 c 256
 864 352 833 193 890 52 c 257
 898 34 907 16 917 -1 c 1281
563 284 m 257
 890 284 l 1281
EndSplineSet
Validated: 35
PickledDataWithLists: "(dp0
Vcom.fontlab.metricsLeft
p1
VN
p2
sVcom.fontlab.metricsRight
p3
VA
p4
sVpublic.markColor
p5
V1,0.6,0.994,1
p6
s."
Ligature2: "sous-table 'rlig' Ligatures requises  dans Latin lookup 2" N periodcentered A
Ligature2: "sous-table 'liga' Ligatures standard dans Latin lookup 1" N periodcentered A
EndChar

StartChar: N_E
Encoding: 79 996896 79
GlifName: N__E_
Width: 1012
VWidth: 0
Flags: W
LayerCount: 2
Fore
SplineSet
35 42 m 257
 31 17 54 -5 84 -1 c 256
 108 2 122 22 133 42 c 257
 225 241 18 433 84 637 c 256
 96 675 123 711 165 710 c 256
 206 709 229 673 246 637 c 257
 327 450 327 250 409 63 c 256
 425 27 449 -9 491 -10 c 256
 532 -11 559 25 572 63 c 256
 606 168 564 269 535 372 c 256
 517 434 501 505 498 570 c 256
 494 639 521 710 581 710 c 256
 631 710 656 657 693 625 c 256
 781 551 917 596 944 710 c 1281
487 371 m 257
 855 371 l 1281
580 94 m 257
 621 76 671 50 715 20 c 256
 805 -40 935 2 971 104 c 1281
EndSplineSet
Validated: 35
PickledDataWithLists: "(dp0
Vcom.fontlab.metricsLeft
p1
VN
p2
sVcom.fontlab.metricsRight
p3
VE
p4
sVpublic.markColor
p5
V1,0.6,0.994,1
p6
s."
Ligature2: "sous-table 'rlig' Ligatures requises  dans Latin lookup 2" N periodcentered E
Ligature2: "sous-table 'liga' Ligatures standard dans Latin lookup 1" N periodcentered E
EndChar

StartChar: N_N
Encoding: 80 996944 80
GlifName: N__N_
Width: 1083
VWidth: 0
Flags: W
LayerCount: 2
Fore
SplineSet
35 42 m 257
 31 17 54 -5 84 -1 c 256
 108 2 122 22 133 42 c 257
 225 241 18 433 84 637 c 256
 96 675 123 711 165 710 c 256
 206 709 229 673 246 637 c 257
 327 450 327 250 409 63 c 256
 425 27 449 -9 491 -10 c 256
 532 -11 559 25 572 63 c 256
 636 265 433 460 520 656 c 256
 533 686 559 711 594 710 c 256
 635 709 658 673 675 637 c 257
 756 450 756 250 838 63 c 256
 854 27 878 -9 920 -10 c 256
 961 -11 988 25 1001 63 c 256
 1066 267 860 462 952 660 c 257
 961 681 977 700 1001 704 c 257
 1029 707 1054 685 1049 660 c 1281
EndSplineSet
Validated: 35
PickledDataWithLists: "(dp0
Vcom.fontlab.metricsLeft
p1
VN
p2
sVcom.fontlab.metricsRight
p3
g2
sVpublic.markColor
p4
V1,0.6,0.994,1
p5
s."
Ligature2: "sous-table 'rlig' Ligatures requises  dans Latin lookup 2" N periodcentered N
Ligature2: "sous-table 'liga' Ligatures standard dans Latin lookup 1" N periodcentered N
EndChar

StartChar: N_X
Encoding: 81 996976 81
GlifName: N__X_
Width: 1091
VWidth: 0
Flags: W
LayerCount: 2
Fore
SplineSet
35 43 m 257
 31 18 54 -4 84 0 c 256
 108 3 122 23 133 43 c 257
 225 242 18 433 84 637 c 256
 96 675 123 711 165 710 c 256
 206 709 229 673 246 637 c 257
 327 450 327 250 409 63 c 256
 425 27 449 -9 491 -10 c 256
 532 -11 559 25 572 63 c 256
 637 267 431 458 523 656 c 257
 532 677 548 700 572 700 c 256
 598 700 614 683 618 657 c 256
 644 513 680 350 814 350 c 256
 947 350 983 513 1009 657 c 256
 1012 676 1019 696 1037 699 c 257
 1061 704 1078 677 1065 657 c 1281
563 42 m 257
 553.326 22.3867 564.902 0.3242 585.52 0 c 256
 607.552 -0.3465 615.228 24.4451 618 42 c 256
 647 216 652 428 814 428 c 256
 975 428 981 216 1009 42 c 256
 1011.78 24.3721 1019.63 0 1041.48 0 c 256
 1063.21 0 1077.19 23.2524 1065 42 c 1281
EndSplineSet
Validated: 524323
PickledDataWithLists: "(dp0
Vcom.fontlab.metricsLeft
p1
VN
p2
sVcom.fontlab.metricsRight
p3
VX
p4
sVpublic.markColor
p5
V1,0.6,0.994,1
p6
s."
Ligature2: "sous-table 'rlig' Ligatures requises  dans Latin lookup 2" N periodcentered X
Ligature2: "sous-table 'liga' Ligatures standard dans Latin lookup 1" N periodcentered X
EndChar

StartChar: O
Encoding: 85 79 85
GlifName: O_
Width: 593
VWidth: 0
Flags: W
LayerCount: 2
Fore
SplineSet
29.505 351.251 m 256
 29.505 160.825 134.555 -14.9537 295.95 -14.9537 c 256
 457.345 -14.9537 563.35 160.825 563.35 351.251 c 256
 563.35 540.632 457.345 716.41 295.95 716.41 c 256
 134.555 716.41 29.505 540.632 29.505 351.251 c 256
EndSplineSet
Validated: 524297
EndChar

StartChar: OE
Encoding: 86 338 86
GlifName: O_E_
Width: 1007
VWidth: 0
Flags: W
LayerCount: 2
Fore
SplineSet
492.622 601.252 m 257
 445.849 670.903 378.07 716.41 295.95 716.41 c 256
 134.555 716.41 29.505 540.632 29.505 351.251 c 256
 29.505 160.825 134.555 -14.9537 295.95 -14.9537 c 256
 351.352 -14.9537 400.228 5.7592 440.529 40.6673 c 1281
EndSplineSet
Refer: 26 69 N 1 0 0 1 403 0 2
Validated: 524291
PickledDataWithLists: "(dp0
Vcom.fontlab.metricsLeft
p1
VO
p2
sVcom.fontlab.metricsRight
p3
VE
p4
sVcom.fontlab.recipe
p5
VO_E
p6
s."
EndChar

StartChar: O_F
Encoding: 87 997392 87
GlifName: O__F_
Width: 1036
VWidth: 0
Flags: HW
LayerCount: 2
Fore
SplineSet
522 390 m 257
 895 390 l 1281
551 460 m 257
 546 476 537 514 543 571 c 256
 552 655 610 729 685 713 c 256
 733 704 760 656 799 627 c 257
 891.712427416 562.200991591 1020.20256221 604.735105313 1054.68187664 712 c 1025
EndSplineSet
Refer: 85 79 N 1 0 0 1 0 0 2
PickledDataWithLists: "(dp0
Vcom.fontlab.metricsLeft
p1
VO
p2
sVcom.fontlab.metricsRight
p3
VF
p4
sVpublic.markColor
p5
V1,0.6,0.994,1
p6
s."
LCarets2: 2 0 0
Ligature2: "sous-table 'rlig' Ligatures requises  dans Latin lookup 2" O periodcentered F
Ligature2: "sous-table 'liga' Ligatures standard dans Latin lookup 1" O periodcentered F
EndChar

StartChar: O_Idieresis
Encoding: 88 997488 88
GlifName: O__I_dieresis
Width: 593
VWidth: 0
Flags: W
LayerCount: 2
Fore
SplineSet
398.831 11.4868 m 257
 500.877 67.5094 563.35 205.064 563.35 351.251 c 256
 563.35 540.632 457.345 716.41 295.95 716.41 c 256
 134.555 716.41 29.505 540.632 29.505 351.251 c 256
 29.505 160.825 134.562 -14.9537 284.693 -14.9537 c 256
 317.679 -14.9537 339.161 16.4089 339.161 43.6433 c 256
 339.161 210.502 260.916 347.593 260.916 512.587 c 256
 260.916 535.919 274.254 557.519 295.914 559.252 c 256
 315.919 560.852 332.58 544.252 330.913 524.253 c 1281
EndSplineSet
Refer: 196 168 N 1 0 0 1 132 200 2
Validated: 524323
PickledDataWithLists: "(dp0
Vcom.fontlab.metricsLeft
p1
VO
p2
sVcom.fontlab.metricsRight
p3
g2
sVcom.fontlab.recipe
p4
VO_Idieresis
p5
sVpublic.markColor
p6
V1,0.6,0.994,1
p7
s."
Ligature2: "sous-table 'rlig' Ligatures requises  dans Latin lookup 2" O periodcentered Idieresis
Ligature2: "sous-table 'liga' Ligatures standard dans Latin lookup 1" O periodcentered Idieresis
EndChar

StartChar: O_N_A
Encoding: 89 997424 89
GlifName: O__N__A_
Width: 1434
VWidth: 0
Flags: W
LayerCount: 2
Fore
SplineSet
438 42 m 257
 434 17 457 -5 487 -1 c 256
 511 2 525 22 536 42 c 257
 566 107 572 172 551 234 c 258
 550 237 l 1281
965 284 m 257
 1377 284 l 1281
941 361 m 257
 942 409 946 456 954 502 c 256
 973 611 1031 714 1139 714 c 256
 1248 714 1306 611 1324 502 c 256
 1351 352 1320 193 1377 52 c 257
 1385 34 1394 16 1404 -1 c 1281
481 617 m 257
 482 624 485 630 487 637 c 257
 499 675 526 711 568 710 c 256
 609 709 632 673 649 637 c 257
 730 450 730 250 812 63 c 256
 828 27 852 -9 894 -10 c 256
 935 -11 962 25 975 63 c 256
 1040 267 834 462 926 660 c 257
 935 681 951 700 975 704 c 257
 1003 707 1028 685 1023 660 c 1281
EndSplineSet
Refer: 85 79 N 1 0 0 1 0 0 2
Validated: 524331
PickledDataWithLists: "(dp0
Vcom.fontlab.metricsLeft
p1
VO
p2
sVcom.fontlab.metricsRight
p3
VA
p4
sVpublic.markColor
p5
V1,0.6,0.994,1
p6
s."
LCarets2: 3 0 0 0
Ligature2: "sous-table 'rlig' Ligatures requises  dans Latin lookup 2" O N periodcentered A
Ligature2: "sous-table 'liga' Ligatures standard dans Latin lookup 1" O N periodcentered A
EndChar

StartChar: O_T
Encoding: 90 997440 90
GlifName: O__T_
Width: 917
VWidth: 0
Flags: W
LayerCount: 2
Fore
SplineSet
563 636 m 257
 563 0 l 1281
405 686 m 257
 451 656 513 637 563 637 c 256
 670 637 781 753 870 675 c 256
 882 665 891 652 896 637 c 1281
EndSplineSet
Refer: 85 79 N 1 0 0 1 0 0 2
Validated: 524331
PickledDataWithLists: "(dp0
Vcom.fontlab.metricsLeft
p1
VO
p2
sVcom.fontlab.metricsRight
p3
VT
p4
sVpublic.markColor
p5
V1,0.6,0.994,1
p6
s."
LCarets2: 2 0 0
Ligature2: "sous-table 'rlig' Ligatures requises  dans Latin lookup 2" O periodcentered T
Ligature2: "sous-table 'liga' Ligatures standard dans Latin lookup 1" O periodcentered T
EndChar

StartChar: Oslash
Encoding: 96 216 96
GlifName: O_slash
Width: 593
VWidth: 0
Flags: W
LayerCount: 2
Fore
SplineSet
50 0 m 257
 534 700 l 1281
EndSplineSet
Refer: 85 79 N 1 0 0 1 0 0 2
Validated: 524299
PickledDataWithLists: "(dp0
Vcom.fontlab.metricsLeft
p1
VO
p2
sVcom.fontlab.metricsRight
p3
g2
s."
EndChar

StartChar: P
Encoding: 98 80 98
GlifName: P_
Width: 594
VWidth: 0
Flags: W
LayerCount: 2
Fore
SplineSet
55.3396 42.132 m 257
 50.8817 31.5445 53.0671 19.7491 59.4413 11.164 c 256
 64.8297 3.90661 73.2114 -1.0566 83.1037 -1.0566 c 256
 92.5329 -1.0566 100.786 3.45278 106.407 10.1601 c 256
 113.659 18.8135 116.531 31.1255 111.896 42.132 c 257
 111.896 675.565 l 1281
58.4245 373.245 m 257
 -11.4999 564.508 141.717 718.753 301.103 720.81 c 256
 376.169 721.838 453.292 689.961 509.848 611.81 c 256
 547.895 558.339 563.32 503.839 562.292 451.395 c 256
 560.235 312.575 436.839 195.349 301.103 190.207 c 256
 237.349 188.151 170.509 210.773 111.896 267.33 c 1281
EndSplineSet
Validated: 524323
PickledDataWithLists: "(dp0
Vcom.fontlab.metricsLeft
p1
VB
p2
sVcom.fontlab.metricsRight
p3
g2
s."
EndChar

StartChar: P_E
Encoding: 99 999456 99
GlifName: P__E_
Width: 1010
VWidth: 0
Flags: W
LayerCount: 2
Fore
SplineSet
941.344 714.53 m 257
 914.358 601.399 778.393 555.731 690.172 630.46 c 256
 652.807 661.597 627.898 714.53 578.079 714.53 c 256
 534.811 714.53 508.702 678.07 498.979 632.127 c 1281
483.63 376.175 m 257
 852.084 376.175 l 1281
554.313 109.115 m 257
 553.409 102 552.093 96.5323 550.055 87.6392 c 256
 542.459 54.5004 526.184 22.2515 495.047 17.062 c 256
 468.061 12.9104 442.114 31.5926 439 59.6159 c 256
 424.469 172.747 573.927 117.738 711.968 25.3652 c 256
 802.265 -34.8331 932.002 6.68295 968.329 109.435 c 1281
EndSplineSet
Refer: 98 80 N 1 0 0 1 0.1394 0 2
Validated: 524323
PickledDataWithLists: "(dp0
Vcom.fontlab.metricsLeft
p1
VP
p2
sVcom.fontlab.metricsRight
p3
VE
p4
sVcom.fontlab.recipe
p5
VP_E
p6
sVpublic.markColor
p7
V1,0.6,0.994,1
p8
s."
Ligature2: "sous-table 'rlig' Ligatures requises  dans Latin lookup 2" P periodcentered E
Ligature2: "sous-table 'liga' Ligatures standard dans Latin lookup 1" P periodcentered E
EndChar

StartChar: P_M
Encoding: 100 999440 100
GlifName: P__M_
Width: 1176
VWidth: 0
Flags: W
LayerCount: 2
Fore
SplineSet
56.1996 42.132 m 257
 51.7417 31.5445 53.9271 19.7491 60.3012 11.164 c 256
 65.6896 3.90661 74.0714 -1.0566 83.9637 -1.0566 c 256
 93.3929 -1.0566 101.646 3.45278 107.267 10.1601 c 256
 114.519 18.8135 117.391 31.1255 112.756 42.132 c 257
 112.756 675.565 l 1281
59.2845 373.245 m 257
 -10.6399 564.508 142.577 718.753 301.963 720.81 c 256
 375.872 721.822 451.775 690.936 508.079 615.39 c 1281
530.928 333.732 m 256
 485.227 251.855 396.594 193.792 301.963 190.207 c 256
 238.209 188.151 171.369 210.773 112.756 267.33 c 1281
EndSplineSet
Refer: 75 77 N 1 0 0 1 432 0 2
Validated: 524323
PickledDataWithLists: "(dp0
Vcom.fontlab.metricsLeft
p1
VP
p2
sVcom.fontlab.metricsRight
p3
VM
p4
sVpublic.markColor
p5
V1,0.6,0.994,1
p6
s."
Ligature2: "sous-table 'rlig' Ligatures requises  dans Latin lookup 2" P periodcentered M
Ligature2: "sous-table 'liga' Ligatures standard dans Latin lookup 1" P periodcentered M
EndChar

StartChar: Q
Encoding: 101 81 101
GlifName: Q_
Width: 659
VWidth: 0
Flags: W
LayerCount: 2
Fore
SplineSet
30 349 m 256
 30 155 149 -25 329 -25 c 256
 509 -25 628 155 628 349 c 256
 628 543 509 722 329 722 c 256
 149 722 30 543 30 349 c 256
210 274 m 257
 249 274 284 250 299 214 c 256
 358 74 156 20 60 -85 c 256
 30 -117 28 -164 60 -174 c 256
 83 -181 101 -159 120 -144 c 256
 206 -75 314 -166 419 -174 c 256
 515 -182 604 -119 628 -25 c 1281
EndSplineSet
Validated: 43
EndChar

StartChar: R
Encoding: 102 82 102
GlifName: R_
Width: 585
VWidth: 0
Flags: W
LayerCount: 2
Fore
SplineSet
64 43.092 m 257
 59.3693 31.6959 62.1179 19.6682 69.2226 11.2102 c 256
 74.9358 4.40896 83.4657 -0.0840001 93.2404 -0.0840001 c 256
 103.015 -0.0840001 111.13 4.40869 116.383 11.2096 c 256
 122.916 19.6676 125.023 31.6956 120.392 43.092 c 257
 120.392 688.676 l 1281
67.1329 467.656 m 257
 36.8482 623.912 167.386 728.768 294.79 722.6 c 256
 361.625 719.516 427.416 686.62 470.233 613.632 c 256
 493.207 574.568 502.606 536.532 502.606 499.524 c 256
 501.562 386.444 402.353 291.868 290.613 283.644 c 256
 233.177 279.532 172.607 298.036 120.392 348.408 c 257
 497.384 44.12 l 257
 493.402 33.4812 495.617 22.5374 501.835 14.7772 c 256
 507.032 8.29033 515.026 4.02801 524.536 4.02801 c 256
 536.257 4.02801 545.676 10.5029 550.393 19.6374 c 256
 554.082 26.7801 554.896 35.549 551.688 44.12 c 1281
EndSplineSet
Validated: 524323
PickledDataWithLists: "(dp0
Vcom.fontlab.metricsRight
p1
VB
p2
s."
EndChar

StartChar: R_E
Encoding: 103 1000464 103
GlifName: R__E_
Width: 901
VWidth: 0
Flags: W
LayerCount: 2
Fore
SplineSet
833 715 m 257
 806 601 669.693 555.636 582 630 c 256
 544.69 661.638 520 715 470 715 c 256
 446.803 715 428.538 704.387 415.09 687.38 c 1281
376 376 m 257
 744 376 l 1281
64 40 m 257
 59.5152 29.3486 61.9444 18.0687 68.6448 10.2124 c 256
 73.8967 4.05454 81.7726 0 91 0 c 256
 100.522 0 108.605 4.31773 113.85 10.8089 c 256
 120.173 18.6332 122.373 29.6153 118 40 c 257
 118 688 l 1281
64 475 m 257
 33 710 343.051 823.033 471 624 c 256
 520.509 546.985 519.543 467.189 488.858 402.228 c 256
 428.343 274.111 252.037 203.57 118 325 c 257
 221 438 425.829 404.973 455 220 c 256
 469.829 125.973 541 0 667 0 c 256
 767 0 824 49 860 108 c 1281
EndSplineSet
Validated: 524323
PickledDataWithLists: "(dp0
Vcom.fontlab.metricsLeft
p1
VR
p2
sVcom.fontlab.metricsRight
p3
VE
p4
sVpublic.markColor
p5
V1,0.6,0.994,1
p6
s."
Ligature2: "sous-table 'rlig' Ligatures requises  dans Latin lookup 2" R periodcentered E
Ligature2: "sous-table 'liga' Ligatures standard dans Latin lookup 1" R periodcentered E
EndChar

StartChar: R_I
Encoding: 105 1000560 105
GlifName: R__I_
Width: 707
VWidth: 0
Flags: W
LayerCount: 2
Fore
SplineSet
64 42 m 257
 59.6777 31.7347 61.7773 20.8855 67.9332 13.0799 c 256
 73.1712 6.43816 81.3459 2 91 2 c 256
 101.729 2 110.631 7.48184 115.706 15.378 c 256
 120.563 22.9366 121.913 32.7075 118 42 c 257
 118 680 l 1281
64 477 m 257
 33 712 343 825 471 626 c 256
 618 397 320 144 118 327 c 1281
118 327 m 257
 221 440 406 411 471 273 c 256
 520 167 488 0 574 0 c 256
 615 0 626 28 626 56 c 256
 626 255 542 445 542 644 c 256
 542 672 558 698 584 700 c 256
 608 702 628 682 626 658 c 1281
EndSplineSet
Validated: 524323
PickledDataWithLists: "(dp0
Vcom.fontlab.metricsLeft
p1
VR
p2
sVcom.fontlab.metricsRight
p3
VI
p4
sVpublic.markColor
p5
V1,0.6,0.994,1
p6
s."
Ligature2: "sous-table 'rlig' Ligatures requises  dans Latin lookup 2" R periodcentered I
Ligature2: "sous-table 'liga' Ligatures standard dans Latin lookup 1" R periodcentered I
EndChar

StartChar: R_S
Encoding: 106 1000640 106
GlifName: R__S_
Width: 979
VWidth: 0
Flags: W
LayerCount: 2
Fore
SplineSet
64 43 m 257
 60.0613 33.1533 61.6977 22.5794 67 14.3812 c 256
 72.4668 5.92764 81.8314 0 93 0 c 256
 104.964 0 114.562 6.8018 119.382 16.2241 c 256
 123.425 24.1281 124.106 33.8762 120 43 c 257
 120 689 l 1281
67 468 m 257
 37 624 167 729 295 723 c 256
 362 720 427 687 470 614 c 256
 493 575 503 537 503 500 c 256
 502 386 402 292 291 284 c 256
 233 280 173 298 120 348 c 1281
120 348 m 257
 223 461 390.078 422.035 473 294 c 256
 541.887 187.636 524.728 0 726.003 0 c 256
 839.407 0 944.467 71.333 942.787 183.948 c 256
 939.56 400.205 601.195 322.703 499.054 462.249 c 1281
477.923 599.887 m 257
 503.947 676.464 594.073 725.411 691 717 c 256
 813.036 706.41 913 617 938 497 c 1281
EndSplineSet
Validated: 524323
PickledDataWithLists: "(dp0
Vcom.fontlab.metricsLeft
p1
VR
p2
sVcom.fontlab.metricsRight
p3
VS
p4
sVpublic.markColor
p5
V1,0.6,0.994,1
p6
s."
Ligature2: "sous-table 'rlig' Ligatures requises  dans Latin lookup 2" R periodcentered S
Ligature2: "sous-table 'liga' Ligatures standard dans Latin lookup 1" R periodcentered S
EndChar

StartChar: R_X
Encoding: 107 1000688 107
GlifName: R__X_
Width: 1026
VWidth: 0
Flags: W
LayerCount: 2
Fore
SplineSet
64 43 m 257
 59.3795 31.4487 62.4314 18.8967 70.073 10.3532 c 256
 75.6621 4.10438 83.7065 0 93 0 c 256
 105.187 0 114.919 7.05804 119.647 16.7543 c 256
 123.453 24.5615 124.014 34.0792 120 43 c 257
 120 689 l 1281
67 468 m 257
 37 624 167 729 295 723 c 256
 362 720 427 687 470 614 c 256
 493 575 503 537 503 500 c 256
 502 386 402 292 291 284 c 256
 233 280 173 298 120 348 c 257
 497 40 l 257
 487.867 19.9076 499.587 -0.184799 519.97 -0.470999 c 256
 542.457 -0.786799 550.139 23.882 553 42 c 256
 582 216 587 429 749 429 c 256
 910 429 916 216 944 42 c 256
 947 23 954 4 972 0 c 257
 996 -4 1013 22 1000 42 c 1281
498 658 m 257
 491.393 667.439 491.913 678.437 496.828 686.895 c 256
 502.327 696.358 513.327 702.64 526 700 c 257
 543 697 550 677 553 658 c 256
 579 514 615 351 749 351 c 256
 882 351 918 514 944 658 c 256
 947 677 954 697 972 700 c 257
 983.797 702.458 993.903 697.184 999.586 688.809 c 256
 1005.46 680.147 1006.61 668.169 1000 658 c 1281
EndSplineSet
Validated: 524323
PickledDataWithLists: "(dp0
Vcom.fontlab.metricsRight
p1
VX
p2
sVpublic.markColor
p3
V1,0.6,0.994,1
p4
s."
Ligature2: "sous-table 'rlig' Ligatures requises  dans Latin lookup 2" R periodcentered X
Ligature2: "sous-table 'liga' Ligatures standard dans Latin lookup 1" R periodcentered X
EndChar

StartChar: R_X_S_E
Encoding: 108 1001984 108
GlifName: R__X__S__E_
Width: 1871
VWidth: 0
Flags: W
LayerCount: 2
Fore
SplineSet
64 43 m 257
 56 23 71 0 93 0 c 256
 115 0 129 23 120 43 c 257
 120 689 l 1281
67 468 m 257
 37 624 167 729 295 723 c 256
 362 720 427 687 470 614 c 256
 493 575 503 537 503 500 c 256
 502 386 402 292 291 284 c 256
 233 280 173 298 120 348 c 257
 497 44 l 257
 490.307 34.2184 491.036 22.8465 496.184 14.1143 c 256
 501.035 5.88495 509.811 0 520 0 c 257
 541 -1 549 24 552 44 c 256
 581 218 586 429 748 429 c 256
 854 429 890 344 910 243 c 256
 945 67 1043 0 1168 -14 c 256
 1228.73 -20.9689 1284.5 -6.13281 1329.4 20.641 c 1281
497 658 m 257
 483 678 501 705 525 700 c 257
 542 697 549 677 552 658 c 256
 578 514 614 351 748 351 c 256
 881 351 917 514 943 658 c 256
 946 677 953 697 971 700 c 257
 989 704 1008 680 992 658 c 1281
1359 616 m 257
 1312 673 1244 710 1168 717 c 256
 1048 727 939 650 948 541 c 256
 969 306 1357 419 1415 220 c 256
 1419 206 1422 191 1422 177 c 1281
EndSplineSet
Refer: 26 69 N 1 0 0 1 1267.66 0 2
Validated: 524323
PickledDataWithLists: "(dp0
Vcom.fontlab.metricsLeft
p1
VR
p2
sVcom.fontlab.metricsRight
p3
VE
p4
sVpublic.markColor
p5
V1,0.6,0.994,1
p6
s."
Ligature2: "sous-table 'rlig' Ligatures requises  dans Latin lookup 2" R periodcentered X periodcentered S E
Ligature2: "sous-table 'liga' Ligatures standard dans Latin lookup 1" R periodcentered X periodcentered S E
EndChar

StartChar: S
Encoding: 111 83 111
GlifName: S_
Width: 582
VWidth: 0
Flags: W
LayerCount: 2
Fore
SplineSet
538.461 497.354 m 257
 513.27 617.008 412.509 706.224 290.755 716.72 c 256
 171.101 727.216 61.9424 649.546 71.3888 541.437 c 256
 92.3808 306.326 479.683 418.634 538.461 220.259 c 256
 578.346 89.0592 446.096 -31.6448 290.755 -13.8016 c 256
 170.051 -0.156804 70.3392 86.96 42 205.565 c 1281
EndSplineSet
Validated: 524323
EndChar

StartChar: S_C
Encoding: 112 1000976 112
GlifName: S__C_
Width: 1047
VWidth: 0
Flags: W
LayerCount: 2
Fore
SplineSet
1007 605 m 257
 958 674 888 718 802 718 c 256
 674 718 580 620 540 492 c 257
 511 618 413 706 291 717 c 256
 171 727 62 650 71 541 c 256
 92 306 480 419 538 220 c 256
 578 89 446 -32 291 -14 c 256
 170 0 70 87 42 206 c 1281
541 209 m 257
 585 84 664 -17 802 -17 c 256
 888 -17 958 27 1007 96 c 1281
EndSplineSet
Validated: 35
PickledDataWithLists: "(dp0
Vcom.fontlab.metricsLeft
p1
VS
p2
sVcom.fontlab.metricsRight
p3
VC
p4
sVpublic.markColor
p5
V1,0.6,0.994,1
p6
s."
Ligature2: "sous-table 'rlig' Ligatures requises  dans Latin lookup 2" S periodcentered C
Ligature2: "sous-table 'liga' Ligatures standard dans Latin lookup 1" S periodcentered C
EndChar

StartChar: S_E
Encoding: 113 1001024 113
GlifName: S__E_
Width: 995
VWidth: 0
Flags: W
LayerCount: 2
Fore
SplineSet
482 616 m 257
 435 673 367 710 291 717 c 256
 171 727 62 650 71 541 c 256
 92 306 480 419 538 220 c 256
 542 206 545 191 545 177 c 1281
452 20 m 257
 408 -7 351 -21 291 -14 c 256
 170 0 70 87 42 206 c 1281
EndSplineSet
Refer: 26 69 N 1 0 0 1 391 0 2
Validated: 524323
PickledDataWithLists: "(dp0
Vcom.fontlab.metricsLeft
p1
VS
p2
sVcom.fontlab.metricsRight
p3
VE
p4
sVpublic.markColor
p5
V1,0.6,0.994,1
p6
s."
Ligature2: "sous-table 'rlig' Ligatures requises  dans Latin lookup 2" S periodcentered E
Ligature2: "sous-table 'liga' Ligatures standard dans Latin lookup 1" S periodcentered E
EndChar

StartChar: S_H_E
Encoding: 114 1024000 114
GlifName: S__H__E_
Width: 1435
VWidth: 0
Flags: W
LayerCount: 2
Fore
SplineSet
42 206 m 257
 70 87 170 0 291 -14 c 256
 368 -23 439 2 485 44 c 257
 477.414 32.3299 480.043 18.6169 488.317 10.0132 c 256
 494.223 3.87208 503.004 0.334 513 2 c 257
 531 6 538 25 541 44 c 256
 545.921 80.2056 543.923 116.164 539.262 152.049 c 256
 530.663 218.252 513 284.206 513 351 c 256
 513 406.901 525.135 461.646 534.185 516.323 c 256
 541.971 563.369 547.475 610.364 541 658 c 256
 538 677 531 697 513 700 c 256
 489 704 472 678 485 658 c 257
 452 692 368 710 291 717 c 256
 171 727 62 650 71 541 c 256
 90 328 410 402 521 263 c 1281
1367 715 m 257
 1340 601 1204 556 1116 630 c 256
 1079 662 1054 715 1004 715 c 256
 944 715 917 644 921 575 c 256
 929 409 1015 250 976 88 c 257
 969 54 952 22 921 17 c 256
 894 13 868 32 865 60 c 256
 850 173 1000 118 1138 25 c 256
 1228 -35 1358 7 1394 109 c 1281
513 351 m 257
 1277 351 l 1281
EndSplineSet
Validated: 524323
PickledDataWithLists: "(dp0
Vcom.fontlab.metricsLeft
p1
VS
p2
sVcom.fontlab.metricsRight
p3
VE
p4
sVpublic.markColor
p5
V1,0.6,0.994,1
p6
s."
Ligature2: "sous-table 'rlig' Ligatures requises  dans Latin lookup 2" S periodcentered H E
Ligature2: "sous-table 'liga' Ligatures standard dans Latin lookup 1" S periodcentered H E
EndChar

StartChar: S_L
Encoding: 115 1001056 115
GlifName: S__L_
Width: 1004
VWidth: 0
Flags: W
LayerCount: 2
Fore
SplineSet
448 18 m 257
 404 -8 349 -21 291 -14 c 256
 170 0 70 87 42 206 c 1281
449.405 650.669 m 257
 406.908 691.807 357.311 711.316 291 717 c 256
 171 727 62 650 71 541 c 1281
71 541 m 257
 91 313 455.447 410.5 532.111 221.072 c 1281
EndSplineSet
Refer: 69 76 N 1 0 0 1 378 0 2
Validated: 524323
PickledDataWithLists: "(dp0
Vcom.fontlab.metricsLeft
p1
VS
p2
sVcom.fontlab.metricsRight
p3
VL
p4
sVpublic.markColor
p5
V1,0.6,0.994,1
p6
s."
Ligature2: "sous-table 'rlig' Ligatures requises  dans Latin lookup 2" S periodcentered L
Ligature2: "sous-table 'liga' Ligatures standard dans Latin lookup 1" S periodcentered L
EndChar

StartChar: S_S
Encoding: 116 1001104 116
GlifName: S__S_
Width: 1051
VWidth: 0
Flags: W
LayerCount: 2
Fore
SplineSet
547.466 503.201 m 257
 522.275 622.855 412.509 706.224 290.755 716.72 c 256
 171.101 727.216 61.9424 649.546 71.3888 541.437 c 256
 92.3808 306.326 479.683 418.634 538.461 220.259 c 256
 578.346 89.0592 446.096 -31.6448 290.755 -13.8016 c 256
 170.051 -0.156804 70.3392 86.96 42 205.565 c 1281
1007.1 497.354 m 257
 981.913 617.008 881.152 706.224 759.398 716.72 c 256
 639.744 727.216 530.586 649.546 540.032 541.437 c 256
 561.024 306.326 948.326 418.634 1007.1 220.259 c 256
 1046.99 89.0592 914.739 -31.6448 759.398 -13.8016 c 256
 666.884 -3.34345 586.702 50.2761 541.536 128.154 c 1281
EndSplineSet
Validated: 524323
PickledDataWithLists: "(dp0
Vcom.fontlab.metricsLeft
p1
VS
p2
sVcom.fontlab.metricsRight
p3
g2
sVcom.fontlab.recipe
p4
VS_S
p5
sVpublic.markColor
p6
V1,0.6,0.994,1
p7
s."
Ligature2: "sous-table 'rlig' Ligatures requises  dans Latin lookup 2" S periodcentered S
Ligature2: "sous-table 'liga' Ligatures standard dans Latin lookup 1" S periodcentered S
EndChar

StartChar: S_S_E
Encoding: 117 1001120 117
GlifName: S__S__E_
Width: 1592
VWidth: 0
Flags: W
LayerCount: 2
Fore
SplineSet
1524 715 m 257
 1497 601 1361 556 1273 630 c 256
 1236 662 1211 715 1161 715 c 256
 1101 715 1074 644 1078 575 c 256
 1086 409 1172 250 1133 88 c 257
 1126 54 1109 22 1078 17 c 256
 1051 13 1025 32 1022 60 c 256
 1007 173 1157 118 1295 25 c 256
 1385 -35 1515 7 1551 109 c 1281
538 125 m 257
 576 47 661 -4 749 -14 c 256
 904 -32 1036 89 996 220 c 256
 938 419 550 306 529 541 c 256
 520 650 629 727 749 717 c 256
 844 708 943 660 973 555 c 256
 1016 402 1038 378 1185 377 c 258
 1435 376 l 1281
EndSplineSet
Refer: 111 83 N 1 0 0 1 0 0 2
Validated: 524323
PickledDataWithLists: "(dp0
Vcom.fontlab.metricsLeft
p1
VS
p2
sVcom.fontlab.metricsRight
p3
VE
p4
sVpublic.markColor
p5
V1,0.6,0.994,1
p6
s."
Ligature2: "sous-table 'rlig' Ligatures requises  dans Latin lookup 2" S periodcentered S E
Ligature2: "sous-table 'liga' Ligatures standard dans Latin lookup 1" S periodcentered S E
EndChar

StartChar: S_T
Encoding: 118 1001152 118
GlifName: S__T_
Width: 1149
VWidth: 0
Flags: W
LayerCount: 2
Fore
SplineSet
462 637 m 257
 417 682 357 711 291 717 c 256
 171 727 62 650 71 541 c 256
 92 306 480 419 538 220 c 256
 578 89 446 -32 291 -14 c 256
 170 0 70 87 42 206 c 1281
EndSplineSet
Refer: 123 84 N 1 0 0 1 441 0 2
Validated: 35
PickledDataWithLists: "(dp0
Vcom.fontlab.metricsLeft
p1
VS
p2
sVcom.fontlab.metricsRight
p3
VT
p4
sVpublic.markColor
p5
V1,0.6,0.994,1
p6
s."
Ligature2: "sous-table 'rlig' Ligatures requises  dans Latin lookup 2" S periodcentered T
Ligature2: "sous-table 'liga' Ligatures standard dans Latin lookup 1" S periodcentered T
EndChar

StartChar: T
Encoding: 123 84 123
GlifName: T_
Width: 708
VWidth: 0
Flags: W
LayerCount: 2
Fore
SplineSet
21 637 m 257
 26 652 35 665 47 675 c 256
 137 753 247 637 354 637 c 256
 461 637 572 753 661 675 c 256
 673 665 682 652 687 637 c 1281
354 636 m 257
 354 0 l 1281
EndSplineSet
Validated: 35
EndChar

StartChar: T_T
Encoding: 126 1001584 126
GlifName: T__T_
Width: 1177
VWidth: 0
Flags: W
LayerCount: 2
Fore
SplineSet
21 637 m 257
 26 652 35 665 47 675 c 256
 137 753 247 637 354 637 c 256
 432 637 512 700 584 702 c 256
 659 704 742 637 823 637 c 256
 930 637 1041 753 1130 675 c 256
 1142 665 1151 652 1156 637 c 1281
354 636 m 257
 354 0 l 1281
823 636 m 257
 823 0 l 1281
EndSplineSet
Validated: 35
PickledDataWithLists: "(dp0
Vcom.fontlab.metricsLeft
p1
VT
p2
sVcom.fontlab.metricsRight
p3
g2
sVcom.fontlab.recipe
p4
VT_T
p5
sVpublic.markColor
p6
V1,0.6,0.994,1
p7
s."
Ligature2: "sous-table 'rlig' Ligatures requises  dans Latin lookup 2" T periodcentered T
Ligature2: "sous-table 'liga' Ligatures standard dans Latin lookup 1" T periodcentered T
EndChar

StartChar: T_T_E
Encoding: 127 1001600 127
GlifName: T__T__E_
Width: 1666
VWidth: 0
Flags: W
LayerCount: 2
Fore
SplineSet
21 637 m 257
 26 652 35 665 47 675 c 256
 137 753 247 637 354 637 c 256
 432 637 512 700 584 702 c 256
 659 704 742 637 823 637 c 256
 930 637 1041 753 1130 675 c 256
 1142 665 1151 652 1156 637 c 1281
354 636 m 257
 354 0 l 1281
823 636 m 257
 823 0 l 1281
EndSplineSet
Refer: 26 69 N 1 0 0 1 1062 0 2
Validated: 524323
PickledDataWithLists: "(dp0
Vcom.fontlab.metricsLeft
p1
VT
p2
sVcom.fontlab.metricsRight
p3
VE
p4
sVpublic.markColor
p5
V1,0.6,0.994,1
p6
s."
Ligature2: "sous-table 'rlig' Ligatures requises  dans Latin lookup 2" T periodcentered T E
Ligature2: "sous-table 'liga' Ligatures standard dans Latin lookup 1" T periodcentered T E
EndChar

StartChar: Thorn
Encoding: 129 222 129
GlifName: T_horn
Width: 605
VWidth: 0
Flags: W
LayerCount: 2
Fore
SplineSet
107.783 700.244 m 257
 107.783 -0.0283203 l 1281
108.811 511.037 m 257
 197.245 602.556 359.716 619.008 453.292 488.414 c 256
 615.763 262.188 309.33 -3.11319 108.811 189.179 c 1281
EndSplineSet
Validated: 524323
EndChar

StartChar: U
Encoding: 130 85 130
GlifName: U_
Width: 639
VWidth: 0
Flags: W
LayerCount: 2
Fore
SplineSet
64.0602 655.504 m 257
 57.5696 666.322 59.2826 678.554 65.7964 687.318 c 256
 71.7373 695.312 81.6716 700.42 93.0178 698.94 c 256
 100.52 698.107 106.678 694.25 111.358 688.587 c 256
 118.289 680.2 121.975 667.852 121.975 655.504 c 256
 121.975 472.45 9.24763 292.499 93.0178 122.891 c 256
 144.728 18.4364 227.464 -32.2394 346.397 -20.8632 c 256
 442.577 -12.5896 512.903 37.052 555.305 122.891 c 256
 640.11 292.499 512.903 472.45 512.903 655.504 c 256
 512.903 669.405 518.155 682.201 526.372 690.461 c 256
 534.049 698.178 544.315 701.937 555.305 698.94 c 256
 561.956 697.19 567.185 693.426 570.711 688.61 c 256
 577.604 679.197 577.994 665.766 569.784 655.504 c 1281
EndSplineSet
Validated: 524323
EndChar

StartChar: U_E
Encoding: 131 1003536 131
GlifName: U__E_
Width: 1033
VWidth: 0
Flags: W
LayerCount: 2
Fore
SplineSet
63 656 m 257
 51 676 68 702 92 699 c 256
 111 697 121 676 121 656 c 256
 121 472 8 292 92 123 c 256
 144 18 226 -32 345 -21 c 256
 397 -16 442 0 479 28 c 1281
EndSplineSet
Refer: 26 69 N 1 0 0 1 429 0 2
Validated: 524323
PickledDataWithLists: "(dp0
Vcom.fontlab.metricsLeft
p1
VU
p2
sVcom.fontlab.metricsRight
p3
VE
p4
sVpublic.markColor
p5
V1,0.6,0.994,1
p6
s."
Ligature2: "sous-table 'rlig' Ligatures requises  dans Latin lookup 2" U periodcentered E
Ligature2: "sous-table 'liga' Ligatures standard dans Latin lookup 1" U periodcentered E
EndChar

StartChar: U_L
Encoding: 132 1003600 132
GlifName: U__L_
Width: 1056
VWidth: 0
Flags: W
LayerCount: 2
Fore
SplineSet
63 656 m 257
 51 676 68 702 92 699 c 256
 111 697 121 676 121 656 c 256
 121 472 8 292 92 123 c 256
 144 18 226 -32 345 -21 c 256
 397 -16 442 0 479 28 c 1281
EndSplineSet
Refer: 69 76 N 1 0 0 1 430 0 2
Validated: 524323
PickledDataWithLists: "(dp0
Vcom.fontlab.metricsLeft
p1
VU
p2
sVcom.fontlab.metricsRight
p3
VL
p4
sVpublic.markColor
p5
V1,0.6,0.994,1
p6
s."
Ligature2: "sous-table 'rlig' Ligatures requises  dans Latin lookup 2" U periodcentered L
Ligature2: "sous-table 'liga' Ligatures standard dans Latin lookup 1" U periodcentered L
EndChar

StartChar: U_N_E
Encoding: 133 1003664 133
GlifName: U__N__E_
Width: 1512
VWidth: 0
Flags: W
LayerCount: 2
Fore
SplineSet
535 42 m 257
 531 17 554 -5 584 -1 c 256
 608 2 622 22 633 42 c 257
 725 241 518 433 584 637 c 256
 596 675 623 711 665 710 c 256
 706 709 729 673 746 637 c 257
 827 450 827 250 909 63 c 256
 925 27 949 -9 991 -10 c 256
 1032 -11 1059 25 1072 63 c 256
 1106 168 1064 269 1035 372 c 256
 1017 434 1001 505 998 570 c 256
 994 639 1021 710 1081 710 c 256
 1131 710 1156 657 1193 625 c 256
 1281 551 1417 596 1444 710 c 1281
987 371 m 257
 1355 371 l 1281
1080 94 m 257
 1121 76 1171 50 1215 20 c 256
 1305 -40 1435 2 1471 104 c 1281
EndSplineSet
Refer: 130 85 N 1 0 0 1 0 0 2
Validated: 524323
PickledDataWithLists: "(dp0
Vcom.fontlab.metricsLeft
p1
VU
p2
sVcom.fontlab.metricsRight
p3
VE
p4
sVpublic.markColor
p5
V1,0.6,0.994,1
p6
s."
Ligature2: "sous-table 'rlig' Ligatures requises  dans Latin lookup 2" U N periodcentered E
Ligature2: "sous-table 'liga' Ligatures standard dans Latin lookup 1" U N periodcentered E
EndChar

StartChar: V
Encoding: 139 86 139
GlifName: V_
Width: 625
VWidth: 0
Flags: W
LayerCount: 2
Fore
SplineSet
33 658 m 257
 28.3968 668.229 30.0719 678.982 35.7508 687.046 c 256
 41.1751 694.749 50.2522 700 61 700 c 256
 69.9508 700 77.8117 696.003 83.266 689.868 c 256
 90.6085 681.609 93.5902 669.475 89 658 c 257
 270 43 l 257
 270 20 289 1 312 1 c 256
 335 1 354 20 354 43 c 257
 536 658 l 257
 531.026 669.053 533.382 680.717 540.199 688.941 c 256
 545.718 695.597 554.158 700 564 700 c 256
 575.224 700 584.735 693.715 589.935 684.81 c 256
 594.464 677.054 595.724 667.31 592 658 c 1281
EndSplineSet
Validated: 524323
EndChar

StartChar: W
Encoding: 140 87 140
GlifName: W_
Width: 792
VWidth: 0
Flags: W
LayerCount: 2
Fore
SplineSet
761 664 m 257
 764 688 743 711 718 707 c 256
 697 704 683 684 675 664 c 256
 595 466 798 254 698 60 c 256
 678 21 642 -13 598 -11 c 256
 554 -10 519 23 497 60 c 256
 420 188 454 344 454 492 c 256
 454 527 431 563 401 563 c 256
 370 563 348 527 348 492 c 256
 348 344 382 188 305 60 c 256
 283 23 248 -10 204 -11 c 256
 160 -13 124 21 104 60 c 256
 4 254 207 466 127 664 c 256
 119 684 105 704 84 707 c 256
 59 711 38 688 41 664 c 1281
EndSplineSet
Validated: 35
EndChar

StartChar: X
Encoding: 145 88 145
GlifName: X_
Width: 554
VWidth: 0
Flags: W
LayerCount: 2
Fore
SplineSet
26 658 m 257
 18.533 668.667 20.169 681.326 26.9632 690.058 c 256
 32.9076 697.698 42.8005 702.333 54 700 c 257
 60.583 698.838 65.6665 695.127 69.5988 689.913 c 256
 75.8215 681.661 79.1617 669.643 81 658 c 256
 107 514 143 351 277 351 c 256
 410 351 446 514 472 658 c 256
 473.838 669.643 477.179 681.661 483.632 689.913 c 256
 487.709 695.128 493.03 698.838 500 700 c 257
 512.38 702.579 522.897 696.644 528.395 687.547 c 256
 533.556 679.008 534.294 667.683 528 658 c 1281
26 44 m 257
 19 34 20 22.5006 25.7492 14 c 256
 31.499 5.49933 42 -0.0012002 54 1.9988 c 257
 62.3575 3.9653 68.2982 9.55711 72.5348 16.992 c 256
 76.9159 24.6803 79.4748 34.3396 81 43.9988 c 256
 110 217.999 115 428.999 277 428.999 c 256
 438 428.999 444 217.999 472 43.9988 c 256
 473.525 34.3399 476.084 24.6809 480.596 16.9927 c 256
 484.96 9.55745 491.151 3.96536 500 1.99886 c 257
 511.848 0.024259 521.99 5.36065 527.659 13.6771 c 256
 533.473 22.2071 534.582 33.8721 528 43.9989 c 1281
EndSplineSet
Validated: 524323
EndChar

StartChar: X_C
Encoding: 146 1005072 146
GlifName: X__C_
Width: 900
VWidth: 0
Flags: W
LayerCount: 2
Fore
SplineSet
26 658 m 257
 12 678 30 705 54 700 c 257
 71 697 78 677 81 658 c 256
 107 514 143 351 277 351 c 256
 317 351 349 366 374 391 c 1281
26 44 m 257
 20.413 19.7896 28.6992 0.781599 49.2439 1.5093 c 256
 70.8768 2.2755 78.2203 26.395 81 44 c 256
 110 218 115 429 277 429 c 256
 319 429 350 415 374 391 c 1281
EndSplineSet
Refer: 15 67 N 1 0 0 1 341 0 2
Validated: 524323
PickledDataWithLists: "(dp0
Vcom.fontlab.metricsLeft
p1
VX
p2
sVcom.fontlab.metricsRight
p3
VC
p4
sVpublic.markColor
p5
V1,0.6,0.994,1
p6
s."
Ligature2: "sous-table 'rlig' Ligatures requises  dans Latin lookup 2" X periodcentered C
Ligature2: "sous-table 'liga' Ligatures standard dans Latin lookup 1" X periodcentered C
EndChar

StartChar: X_L
Encoding: 147 1005120 147
GlifName: X__L_
Width: 877
VWidth: 0
Flags: W
LayerCount: 2
Fore
SplineSet
26 658 m 257
 12 678 30 705 54 700 c 257
 71 697 78 677 81 658 c 256
 107 514 143 351 277 351 c 256
 318 351 349 366 374 392 c 257
 350 415 319 429 277 429 c 256
 115 429 110 218 81 44 c 256
 78.2672 26.6926 70.5512 1.3173 48.7556 1.5765 c 256
 28.8428 1.8133 22.3069 24.6114 26 44 c 1281
EndSplineSet
Refer: 69 76 N 1 0 0 1 251.267 0 2
Validated: 524323
PickledDataWithLists: "(dp0
Vcom.fontlab.metricsLeft
p1
VX
p2
sVcom.fontlab.metricsRight
p3
VL
p4
sVpublic.markColor
p5
V1,0.6,0.994,1
p6
s."
Ligature2: "sous-table 'rlig' Ligatures requises  dans Latin lookup 2" X periodcentered L
Ligature2: "sous-table 'liga' Ligatures standard dans Latin lookup 1" X periodcentered L
EndChar

StartChar: X_L_L
Encoding: 148 1005168 148
GlifName: X__L__L_
Width: 1326
VWidth: 0
Flags: W
LayerCount: 2
Fore
SplineSet
26 658 m 257
 12 678 30 705 54 700 c 257
 71 697 78 677 81 658 c 256
 107 514 143 351 277 351 c 256
 318 351 349 366 374 392 c 257
 350 415 319 429 277 429 c 256
 115 429 110 218 81 44 c 256
 78.1667 26.0559 69.8821 -0.227301 46.9899 1.6589 c 256
 28.4578 3.1858 22.4183 25.1964 26 44 c 1281
480.36 661.014 m 257
 475.36 688.014 447.36 716.014 418.36 716.014 c 256
 355.36 716.014 335.36 659.014 339.36 589.014 c 256
 348.36 419.014 437.36 254.014 396.36 89.0142 c 257
 389.36 55.0142 373.36 22.0142 340.36 17.0142 c 256
 313.36 13.0142 286.36 31.0142 283.36 60.0142 c 256
 268.36 176.014 421.36 120.014 562.36 25.0142 c 256
 622.36 -13.9858 697.36 -10.9858 754.36 24.0142 c 1281
EndSplineSet
Refer: 69 76 N 1 0 0 1 700 0 2
Validated: 524323
PickledDataWithLists: "(dp0
Vcom.fontlab.metricsLeft
p1
VX
p2
sVcom.fontlab.metricsRight
p3
VL
p4
sVpublic.markColor
p5
V1,0.6,0.994,1
p6
s."
LCarets2: 3 0 0 0
Ligature2: "sous-table 'rlig' Ligatures requises  dans Latin lookup 2" X periodcentered L L
Ligature2: "sous-table 'liga' Ligatures standard dans Latin lookup 1" X periodcentered L L
EndChar

StartChar: X_S
Encoding: 149 1005216 149
GlifName: X__S_
Width: 988
VWidth: 0
Flags: W
LayerCount: 2
Fore
SplineSet
26 658 m 257
 19.4587 667.345 19.9033 678.218 24.6818 686.641 c 256
 30.1304 696.245 41.2137 702.664 54 700 c 257
 61.3943 698.695 66.8967 694.174 71 687.918 c 256
 76.3327 679.791 79.3049 668.736 81 658 c 256
 107 514 143 351 277 351 c 256
 410 351 446 514 472 658 c 256
 473.558 667.868 476.195 678.006 480.892 685.892 c 256
 485.238 693.189 491.349 698.558 500 700 c 257
 510.006 702.224 520.321 695.795 524.761 685.868 c 256
 528.308 677.936 528.106 667.771 521 658 c 1281
26 44 m 257
 22.2827 25.4134 28.9292 1.6449 49.15 1.5887 c 256
 70.6367 1.529 78.3089 26.9566 81 44 c 256
 110 218 115 429 277 429 c 256
 383 429 419 344 439 243 c 256
 474 67 572 0 697 -14 c 256
 852 -32 984 89 944 220 c 256
 886 419 498 306 477 541 c 256
 468 650 577 727 697 717 c 256
 819 706 900 618 944 498 c 1281
EndSplineSet
Validated: 524323
PickledDataWithLists: "(dp0
Vcom.fontlab.metricsLeft
p1
VX
p2
sVcom.fontlab.metricsRight
p3
VS
p4
sVpublic.markColor
p5
V1,0.6,0.994,1
p6
s."
Ligature2: "sous-table 'rlig' Ligatures requises  dans Latin lookup 2" X periodcentered S
Ligature2: "sous-table 'liga' Ligatures standard dans Latin lookup 1" X periodcentered S
EndChar

StartChar: X_S_S
Encoding: 150 1005264 150
GlifName: X__S__S_
Width: 1447
VWidth: 0
Flags: W
LayerCount: 2
Fore
SplineSet
1402.84 497 m 257
 1377.84 617 1277.84 706 1155.84 717 c 256
 1035.84 727 926.842 650 935.842 541 c 256
 956.842 306 1344.84 419 1402.84 220 c 256
 1442.84 89 1310.84 -32 1155.84 -14 c 256
 1066.84 -4 988.842 47 942.842 120 c 1281
EndSplineSet
Refer: 149 1005216 N 1 0 0 1 0 0 2
Validated: 524323
PickledDataWithLists: "(dp0
Vcom.fontlab.metricsLeft
p1
VX
p2
sVcom.fontlab.metricsRight
p3
VS
p4
sVpublic.markColor
p5
V1,0.6,0.994,1
p6
s."
Ligature2: "sous-table 'rlig' Ligatures requises  dans Latin lookup 2" X periodcentered S S
Ligature2: "sous-table 'liga' Ligatures standard dans Latin lookup 1" X periodcentered S S
EndChar

StartChar: Y
Encoding: 151 89 151
GlifName: Y_
Width: 676
VWidth: 0
Flags: W
LayerCount: 2
Fore
SplineSet
87 658 m 257
 80.9026 668.162 82.2925 679.616 88.1524 688.031 c 256
 93.8251 696.177 103.687 701.476 115 700 c 256
 122.294 699.189 128.11 695.423 132.449 689.899 c 256
 138.816 681.791 142 669.895 142 658 c 256
 142 616.14 128.945 575.998 115.152 536.221 c 256
 95.6649 480.023 74.7035 424.555 87 366 c 256
 109 257 222 198 338 198 c 256
 453 198 566 257 588 366 c 256
 600.297 424.555 579.335 480.024 559.848 536.221 c 256
 546.055 575.998 533 616.14 533 658 c 256
 533 671.474 538.102 683.873 546.081 691.858 c 256
 553.498 699.282 563.401 702.891 574 700 c 256
 581.643 697.989 587.345 693.226 590.648 687.275 c 256
 595.557 678.432 595.173 666.966 588 658 c 1281
591 421 m 257
 591 368.906 610.729 314.457 626.538 260.208 c 256
 639.863 214.486 650.403 168.906 644 125 c 256
 632 40 560 -27 477 -18 c 256
 414 -11 367 41 310 66 c 256
 209 110 91 93 31 0 c 1281
EndSplineSet
Validated: 524323
EndChar

StartChar: Z
Encoding: 155 90 155
GlifName: Z_
Width: 634
VWidth: 0
Flags: W
LayerCount: 2
Fore
SplineSet
73 658 m 257
 70.8565 668.717 73.6751 678.883 79.5649 686.607 c 256
 87.414 696.901 100.717 702.857 115 700 c 256
 135 696 145 676 157 658 c 256
 238 531 423 531 505 658 c 256
 516 676 527 696 547 700 c 256
 572 705 594 683 589 658 c 257
 31 45 l 257
 26 20 48 -2 73 3 c 256
 93 7 104 27 115 45 c 256
 208 194 426 194 519 45 c 256
 530 27 541 7 561 3 c 256
 572.4 0.7199 582.969 4.05451 590.714 10.7279 c 256
 599.954 18.6886 605.176 31.4004 603 45 c 1281
EndSplineSet
Validated: 524323
EndChar

StartChar: a
Encoding: 158 97 158
GlifName: a
Width: 523
VWidth: 0
Flags: HW
LayerCount: 2
Fore
SplineSet
55.9060012372 381.364666254 m 1025
55.9060012372 381.364666254 m 1
 78.0321134305 460.573845595 150.167937663 515.98609598 233 515 c 256
 344 514 430 420 421 310 c 257
 421 53 l 257
 414.913 37.7817 419.201 21.8223 429.579 11.6632 c 256
 436.249 5.13344 445.436 1 456 1 c 256
 468.639 1 479.387 7.38015 485.948 16.8093 c 256
 492.883 26.7773 495.139 40.1527 490 53 c 1281
421 310 m 257
 421 95 111 287 45 173 c 256
 -9 81 95 -35 233 -9 c 256
 326 9 400 80 421 173 c 1281
EndSplineSet
EndChar

StartChar: a_e
Encoding: 159 987408 159
GlifName: a_e
Width: 870
VWidth: 0
Flags: W
LayerCount: 2
Fore
SplineSet
55 378 m 257
 76 459 149 516 233 515 c 256
 344 514 430 420 421 310 c 257
 421 223 l 1281
421 310 m 257
 421 95 111 287 45 173 c 256
 -9 81 95 -35 233 -9 c 256
 321 8 396 71 417 158 c 256
 421 176 422 178 423 194 c 1281
EndSplineSet
Refer: 200 101 N 1 0 0 1 382 -0.7714 2
Validated: 524323
PickledDataWithLists: "(dp0
Vcom.fontlab.metricsLeft
p1
Va
p2
sVcom.fontlab.metricsRight
p3
Ve
p4
sVcom.fontlab.recipe
p5
Va_e
p6
sVpublic.markColor
p7
V1,0.6,0.994,1
p8
s."
Ligature2: "sous-table 'rlig' Ligatures requises  dans Latin lookup 2" a periodcentered e
Ligature2: "sous-table 'liga' Ligatures standard dans Latin lookup 1" a periodcentered e
Substitution2: "sous-table 'case' Formes sensibles +AOAA la casse dans Latin lookup 0" A_E
EndChar

StartChar: a_l
Encoding: 160 987424 160
GlifName: a_l
Width: 565
VWidth: 0
Flags: W
LayerCount: 2
Fore
SplineSet
55 378 m 257
 76 459 149 516 233 515 c 256
 344 514 430 420 421 310 c 257
 421 53 l 257
 415.677 39.6929 418.287 25.8192 425.965 15.7523 c 256
 432.712 6.90648 443.372 1 456 1 c 256
 468.161 1 478.572 6.90671 485.186 15.7528 c 256
 492.713 25.8196 495.323 39.6931 490 53 c 1281
421 310 m 257
 421 95 111 287 45 173 c 256
 -9 81 95 -35 233 -9 c 256
 326 9 400 80 421 173 c 1281
420 648 m 257
 414.178 662.554 417.846 677.786 427.255 687.974 c 256
 434.008 695.286 443.718 700 455 700 c 256
 466.436 700 476.437 695.156 483.331 687.672 c 256
 492.713 677.486 496.341 662.411 490 648 c 257
 490 53 l 1281
EndSplineSet
Validated: 524323
PickledDataWithLists: "(dp0
Vcom.fontlab.metricsLeft
p1
Va
p2
sVcom.fontlab.metricsRight
p3
Vl
p4
sVpublic.markColor
p5
V1,0.6,0.994,1
p6
s."
Ligature2: "sous-table 'rlig' Ligatures requises  dans Latin lookup 2" a periodcentered l
Ligature2: "sous-table 'liga' Ligatures standard dans Latin lookup 1" a periodcentered l
EndChar

StartChar: a_o
Encoding: 161 987440 161
GlifName: a_o
Width: 885
VWidth: 0
Flags: W
LayerCount: 2
Fore
SplineSet
55 378 m 257
 76 459 149 516 233 515 c 256
 344 514 430 420 421 310 c 257
 421 260 l 1281
421 310 m 257
 421 95 111 287 45 173 c 256
 -9 81 95 -36 233 -9 c 256
 326 9 406 75 426 191 c 1281
EndSplineSet
Refer: 279 111 N 1 0 0 1 380 0 2
Validated: 43
PickledDataWithLists: "(dp0
Vcom.fontlab.metricsLeft
p1
Va
p2
sVcom.fontlab.metricsRight
p3
Vo
p4
sVpublic.markColor
p5
V1,0.6,0.994,1
p6
s."
Ligature2: "sous-table 'rlig' Ligatures requises  dans Latin lookup 2" a periodcentered o
Ligature2: "sous-table 'liga' Ligatures standard dans Latin lookup 1" a periodcentered o
Substitution2: "sous-table 'case' Formes sensibles +AOAA la casse dans Latin lookup 0" A_O
EndChar

StartChar: acute
Encoding: 165 180 165
GlifName: acute
Width: 260
VWidth: 0
Flags: W
LayerCount: 2
Fore
SplineSet
9 585 m 257
 251 689 l 1281
EndSplineSet
Validated: 3
PickledDataWithLists: "(dp0
Vcom.fontlab.recipe
p1
Vspace+acutecomb
p2
s."
EndChar

StartChar: ae
Encoding: 167 230 167
GlifName: ae
Width: 870
VWidth: 0
Flags: W
LayerCount: 2
Fore
SplineSet
55 378 m 257
 76 459 149 516 233 515 c 256
 344 514 430 420 421 310 c 257
 421 223 l 1281
421 310 m 257
 421 95 111 287 45 173 c 256
 -9 81 95 -35 233 -9 c 256
 321 8 396 71 417 158 c 256
 421 176 422 178 423 194 c 1281
EndSplineSet
Refer: 200 101 N 1 0 0 1 382 0 2
Validated: 524323
PickledDataWithLists: "(dp0
Vcom.fontlab.metricsLeft
p1
Va
p2
sVcom.fontlab.metricsRight
p3
Ve
p4
sVcom.fontlab.recipe
p5
Va_e
p6
s."
EndChar

StartChar: ampersand
Encoding: 170 38 170
GlifName: ampersand
Width: 689
VWidth: 0
Flags: W
LayerCount: 2
Fore
SplineSet
639 0 m 257
 186 513 l 257
 117.052 581.948 174.669 699.944 270 708 c 256
 350 715 416 648 409 568 c 256
 394 399 146 421 74 289 c 256
 -14 126 162 -66 353 10 c 256
 479 60 521.173 204.447 521.173 343.447 c 1281
437 317 m 257
 426 346 448 376 479 373 c 256
 514 370 524.627 320.139 563 317 c 256
 593.049 314.542 616 345 605 373 c 1281
EndSplineSet
Validated: 524323
EndChar

StartChar: at
Encoding: 173 64 173
GlifName: at
Width: 909
VWidth: 0
Flags: W
LayerCount: 2
Fore
SplineSet
625.932 500.057 m 257
 625.932 111.501 l 257
 626.043 83.3746 640.42 45.3282 679.351 45.3282 c 256
 752.668 45.3282 814.918 160.825 813.732 301.714 c 256
 811.768 534.874 659.121 668.458 462.854 668.458 c 256
 265.993 668.458 95.4786 526.16 95.4786 285.396 c 256
 95.4786 47.7636 249.996 -104.13 435.954 -104.13 c 256
 455.431 -104.13 478.981 -102.397 503.436 -98.0353 c 1281
EndSplineSet
Refer: 279 111 N 0.8791 0 0 0.8791 215.711 60.3484 2
Validated: 524331
EndChar

StartChar: b
Encoding: 175 98 175
GlifName: b
Width: 536
VWidth: 0
Flags: W
LayerCount: 2
Fore
SplineSet
97.312 292.112 m 256
 114.016 413.68 200.32 518.544 314.464 509.264 c 256
 428.608 499.056 495.424 382.128 497.28 259.632 c 256
 500.064 131.568 432.32 6.288 314.464 -3.92 c 256
 172.48 -15.984 75.04 134.352 97.312 292.112 c 256
94 -1 m 257
 94 646 l 257
 99.8126 660.532 96.165 676.077 86.7884 686.548 c 256
 80.0337 694.091 70.3059 699 59 699 c 256
 47.0052 699 36.5893 693.474 29.6811 685.14 c 256
 21.0392 674.714 17.8868 659.894 24 646 c 1281
EndSplineSet
Validated: 524323
EndChar

StartChar: banana
Encoding: 177 127820 177
GlifName: banana
Width: 482
VWidth: 0
Flags: W
LayerCount: 2
Fore
SplineSet
455 629 m 257
 518 487 504 320 414 192 c 256
 333 77 201 5 56 -1 c 257
 30 27 l 257
 138 101 230 196 303 303 c 256
 366 395 414 495 441 603 c 257
 427 686 l 257
 455 700 l 257
 455 629 l 257
EndSplineSet
Validated: 33
PickledDataWithLists: "(dp0
Vcom.fontlab.metricsRight
p1
Veuro_banana
p2
sVpublic.markColor
p3
V0.604,0.6,1,1
p4
s."
Ligature2: "sous-table 'rlig' Ligatures requises  dans Latin lookup 2" B A N A N A A
Ligature2: "sous-table 'rlig' Ligatures requises  dans Latin lookup 2" b a n a n a a
Ligature2: "sous-table 'liga' Ligatures standard dans Latin lookup 1" B A N A N A A
Ligature2: "sous-table 'liga' Ligatures standard dans Latin lookup 1" b a n a n a a
EndChar

StartChar: bar
Encoding: 178 124 178
GlifName: bar
Width: 401
VWidth: 0
Flags: W
LayerCount: 2
Fore
SplineSet
225.358 -40 m 257
 225.358 740 l 1281
EndSplineSet
Validated: 524291
EndChar

StartChar: bullet
Encoding: 179 8226 179
GlifName: bullet
Width: 524
VWidth: 0
Flags: W
LayerCount: 2
Fore
SplineSet
455 629 m 257
 518 487 504 320 414 192 c 256
 333 77 201 5 56 -1 c 257
 30 27 l 257
 138 101 230 196 303 303 c 256
 366 395 414 495 441 603 c 257
 427 686 l 257
 455 700 l 257
 455 629 l 257
EndSplineSet
Validated: 33
EndChar

StartChar: c
Encoding: 180 99 180
GlifName: c
Width: 482
VWidth: 0
Flags: W
LayerCount: 2
Fore
SplineSet
421 433 m 257
 384 482 332 513 269 513 c 256
 143 513 60 387 60 252 c 256
 60 116 143 -10 269 -10 c 256
 332 -10 384 22 421 70 c 1281
EndSplineSet
Validated: 3
EndChar

StartChar: c_h
Encoding: 181 988432 181
GlifName: c_h
Width: 805
VWidth: 0
Flags: W
LayerCount: 2
Fore
SplineSet
421 422 m 257
 384 471 332 513 269 513 c 256
 143 513 60 387 60 252 c 256
 60 116 143 -10 269 -10 c 256
 332 -10 384 22 421 70 c 1281
351 648 m 257
 341 673 359 700 386 700 c 256
 413 700 432 673 421 648 c 257
 421 422 l 257
 463 481 524 529 596 525 c 256
 671 522 732 461 735 386 c 257
 735 2 l 1281
EndSplineSet
Validated: 35
PickledDataWithLists: "(dp0
Vcom.fontlab.metricsLeft
p1
Vc
p2
sVcom.fontlab.metricsRight
p3
Vh
p4
sVpublic.markColor
p5
V1,0.6,0.994,1
p6
s."
Ligature2: "sous-table 'rlig' Ligatures requises  dans Latin lookup 2" c periodcentered h
Ligature2: "sous-table 'liga' Ligatures standard dans Latin lookup 1" c periodcentered h
Substitution2: "sous-table 'case' Formes sensibles +AOAA la casse dans Latin lookup 0" C_H
EndChar

StartChar: c_q
Encoding: 182 988480 182
GlifName: c_q
Width: 535
VWidth: 0
Flags: W
LayerCount: 2
Fore
SplineSet
491 458 m 257
 497.044 471.737 494.031 486.38 485.609 496.786 c 256
 478.704 505.317 468.164 511 456 511 c 256
 444.768 511 435.094 506.154 428.344 498.695 c 256
 418.87 488.223 415.16 472.6 421 458 c 257
 421 433 l 257
 384 482 332 513 269 513 c 256
 143 513 60 387 60 252 c 256
 60 116 143 -10 269 -10 c 256
 332 -10 384 22 421 70 c 257
 421 -189 l 1281
EndSplineSet
Validated: 524323
PickledDataWithLists: "(dp0
Vcom.fontlab.metricsLeft
p1
Vc
p2
sVcom.fontlab.metricsRight
p3
Vq
p4
sVpublic.markColor
p5
V1,0.6,0.994,1
p6
s."
Ligature2: "sous-table 'rlig' Ligatures requises  dans Latin lookup 2" c periodcentered q
Ligature2: "sous-table 'liga' Ligatures standard dans Latin lookup 1" c periodcentered q
Substitution2: "sous-table 'case' Formes sensibles +AOAA la casse dans Latin lookup 0" C_Q
EndChar

StartChar: cedilla
Encoding: 188 184 188
GlifName: cedilla
Width: 260
VWidth: 0
Flags: W
LayerCount: 2
Fore
SplineSet
125 -10 m 257
 125 -45 87 -65 87 -93 c 257
 86 -113 100 -135 122 -135 c 256
 160 -135 159 -42 211 -42 c 256
 251 -41 284 -91 261 -147 c 256
 248 -178 223 -202 193 -215 c 256
 134 -241 66 -227 22 -181 c 1281
EndSplineSet
Validated: 35
PickledDataWithLists: "(dp0
Vcom.fontlab.recipe
p1
Vspace+uni0327
p2
s."
EndChar

StartChar: circumflex
Encoding: 189 710 189
GlifName: circumflex
Width: 418
VWidth: 0
Flags: HW
LayerCount: 2
Fore
SplineSet
84 585.090820312 m 1
 205 689 l 257
 326 585.090820312 l 1025
EndSplineSet
EndChar

StartChar: comma
Encoding: 191 44 191
GlifName: comma
Width: 268
VWidth: 0
Flags: W
LayerCount: 2
Fore
SplineSet
109.11 44.4383 m 256
 109.11 19.0458 120.283 -6.3467 142.628 -6.3467 c 256
 164.973 -6.3467 176.146 19.0458 176.146 44.4383 c 256
 176.146 69.8308 164.973 95.2233 142.628 95.2233 c 256
 120.283 95.2233 109.11 69.8308 109.11 44.4383 c 256
176.146 44.4383 m 257
 176.146 -33.7706 152.785 -110.964 109.11 -175.969 c 1281
EndSplineSet
Validated: 524299
EndChar

StartChar: d
Encoding: 192 100 192
GlifName: d
Width: 536
VWidth: 0
Flags: W
LayerCount: 2
Fore
SplineSet
438.688 292.112 m 256
 421.984 413.68 335.68 518.544 221.536 509.264 c 256
 107.392 499.056 40.576 382.128 38.72 259.632 c 256
 35.936 131.568 103.68 6.288 221.536 -3.92 c 256
 363.52 -15.984 460.96 134.352 438.688 292.112 c 256
512 52 m 257
 517.715 39.0106 515.332 25.2113 507.935 14.9503 c 256
 501.096 5.46258 489.971 -1 477 -1 c 256
 465.251 -1 455.207 4.30163 448.432 12.3508 c 256
 439.637 22.7996 436.351 37.8784 442 52 c 257
 442 699 l 1281
EndSplineSet
Validated: 524331
EndChar

StartChar: d_e
Encoding: 193 988944 193
GlifName: d_e
Width: 891
VWidth: 0
Flags: W
LayerCount: 2
Fore
SplineSet
439 292 m 256
 422 414 336 519 222 509 c 256
 107 499 41 382 39 260 c 256
 36 132 104 6 222 -4 c 256
 364 -16 461 134 439 292 c 256
442 252 m 257
 442 699 l 1281
EndSplineSet
Refer: 200 101 N 1 0 0 1 403 0 2
Validated: 524331
PickledDataWithLists: "(dp0
Vcom.fontlab.metricsLeft
p1
Vd
p2
sVcom.fontlab.metricsRight
p3
Ve
p4
sVpublic.markColor
p5
V1,0.6,0.994,1
p6
s."
LCarets2: 2 0 0
Ligature2: "sous-table 'rlig' Ligatures requises  dans Latin lookup 2" d periodcentered e
Ligature2: "sous-table 'liga' Ligatures standard dans Latin lookup 1" d periodcentered e
EndChar

StartChar: degree
Encoding: 195 176 195
GlifName: degree
Width: 428
VWidth: 0
Flags: W
LayerCount: 2
Fore
SplineSet
255.677 711.407 m 256
 180.347 712.342 129.335 653.922 128.149 589.893 c 256
 126.963 523.995 177.974 462.77 255.677 463.705 c 256
 331.601 464.639 380.24 525.397 379.053 589.893 c 256
 377.274 652.52 329.822 710.473 255.677 711.407 c 256
EndSplineSet
Validated: 524329
PickledDataWithLists: "(dp0
Vpublic.markColor
p1
V0.604,0.6,1,1
p2
s."
EndChar

StartChar: dieresis
Encoding: 196 168 196
GlifName: dieresis
Width: 328
VWidth: 0
Flags: W
LayerCount: 2
Fore
SplineSet
74 730 m 256
 97 730 108 705 108 679 c 256
 108 654 97 628 74 628 c 256
 52 628 40 654 40 679 c 256
 40 705 52 730 74 730 c 256
254 730 m 256
 277 730 288 705 288 679 c 256
 288 654 277 628 254 628 c 256
 232 628 220 654 220 679 c 256
 220 705 232 730 254 730 c 256
EndSplineSet
Validated: 1
PickledDataWithLists: "(dp0
Vcom.fontlab.recipe
p1
Vspace+uni0308
p2
s."
EndChar

StartChar: dollar
Encoding: 198 36 198
GlifName: dollar
Width: 572
VWidth: 0
Flags: W
LayerCount: 2
Fore
SplineSet
290.755 -70 m 257
 293.822 777.324 l 1281
EndSplineSet
Refer: 111 83 N 1 0 0 1 0 0 2
Validated: 524291
PickledDataWithLists: "(dp0
Vpublic.markColor
p1
V0.604,0.6,1,1
p2
s."
EndChar

StartChar: dotlessi
Encoding: 199 305 199
GlifName: dotlessi
Width: 192
VWidth: 0
Flags: W
LayerCount: 2
Fore
SplineSet
33 454 m 257
 27.9258 466.178 30.0615 478.781 36.7933 488.288 c 256
 43.3281 497.517 54.1941 503.828 67 504 c 256
 79.3861 504.167 89.6815 498.476 96.2205 489.947 c 256
 103.908 479.92 106.404 466.969 101 454 c 257
 101 47 l 257
 96.0052 35.0126 97.9958 22.5262 104.48 13.0299 c 256
 110.977 3.51362 121.986 -3 135 -3 c 256
 148.159 -3 159.268 3.65956 165.736 13.349 c 256
 172.048 22.8049 173.939 35.1464 169 47 c 1281
EndSplineSet
Guideline: "" "" 101 0 90 0 0
Validated: 524323
PickledDataWithLists: "(dp0
Vcom.fontlab.recipe
p1
Vi%
p2
s."
EndChar

StartChar: e
Encoding: 200 101 200
GlifName: e
Width: 488
VWidth: 0
Flags: W
LayerCount: 2
Fore
SplineSet
447 171 m 257
 430 76 354 3 259 -10 c 256
 135 -26 57 59 45 174 c 256
 42.0975 202.299 89.4783 213.66 152.423 225 c 256
 262.97 244.916 421.522 264.855 440 377 c 256
 454 465 360 531 259 514 c 256
 181 500 117 467 70 376 c 256
 18 275 39 139 74 79 c 1281
EndSplineSet
Validated: 524323
EndChar

StartChar: e_a
Encoding: 201 989456 201
GlifName: e_a
Width: 930
VWidth: 0
Flags: W
LayerCount: 2
Fore
SplineSet
440.15 143.751 m 257
 417.15 65.7508 346 2 259 -10 c 256
 135 -26 57 59 45 174 c 256
 41.7101 206.077 105.39 216.337 183.533 229.54 c 256
 295.408 248.443 436.926 273.378 454 377 c 256
 468 465 360 531 259 514 c 256
 181 500 117 467 70 376 c 256
 18 275 39 139 74 79 c 1281
453 377 m 257
 467 465 556 516 640 515 c 256
 751 514 837 420 828 310 c 257
 828 53 l 257
 821.977 37.9425 826.111 22.1595 836.252 11.9873 c 256
 842.948 5.27048 852.262 1 863 1 c 256
 874.139 1 883.809 5.95543 890.439 13.5861 c 256
 899.284 23.767 902.716 38.7102 897 53 c 1281
828 310 m 257
 828 95 518 287 452 173 c 256
 398 81 502 -35 640 -9 c 256
 733 9 807 80 828 173 c 1281
EndSplineSet
Validated: 524323
PickledDataWithLists: "(dp0
Vcom.fontlab.metricsLeft
p1
Ve
p2
sVcom.fontlab.metricsRight
p3
Va
p4
sVpublic.markColor
p5
V1,0.6,0.994,1
p6
s."
Ligature2: "sous-table 'rlig' Ligatures requises  dans Latin lookup 2" e periodcentered a
Ligature2: "sous-table 'liga' Ligatures standard dans Latin lookup 1" e periodcentered a
EndChar

StartChar: e_s
Encoding: 203 989520 203
GlifName: e_s
Width: 872
VWidth: 0
Flags: W
LayerCount: 2
Fore
SplineSet
427 115 m 257
 396 48 334 0 259 -10 c 256
 135 -26 57 59 45 174 c 256
 41.8483 204.729 97.9867 215.437 168.961 227.891 c 256
 278.14 247.048 422.425 270.338 440 377 c 256
 454 465 360 531 259 514 c 256
 181 500 117 467 70 376 c 256
 18 275 39 139 74 79 c 1281
EndSplineSet
Refer: 324 115 N 1 0 0 1 393 0 2
Validated: 524323
PickledDataWithLists: "(dp0
Vcom.fontlab.metricsLeft
p1
Ve
p2
sVcom.fontlab.metricsRight
p3
Vs
p4
sVpublic.markColor
p5
V1,0.6,0.994,1
p6
s."
Ligature2: "sous-table 'rlig' Ligatures requises  dans Latin lookup 2" e periodcentered s
Ligature2: "sous-table 'liga' Ligatures standard dans Latin lookup 1" e periodcentered s
Substitution2: "sous-table 'case' Formes sensibles +AOAA la casse dans Latin lookup 0" E_S
EndChar

StartChar: e_t
Encoding: 206 989536 206
GlifName: e_t
Width: 762
VWidth: 0
Flags: W
LayerCount: 2
Fore
SplineSet
448 676 m 257
 448 493 l 1281
380.279 493 m 257
 692 493 l 1281
446 161 m 257
 429 74 494 -10 583 -13 c 256
 648 -15 705 27 721 91 c 1281
EndSplineSet
Refer: 200 101 N 1 0 0 1 0 0 2
Validated: 524323
PickledDataWithLists: "(dp0
Vcom.fontlab.metricsLeft
p1
Ve
p2
sVcom.fontlab.metricsRight
p3
Vt
p4
sVpublic.markColor
p5
V1,0.6,0.994,1
p6
s."
Ligature2: "sous-table 'rlig' Ligatures requises  dans Latin lookup 2" e periodcentered t
Ligature2: "sous-table 'liga' Ligatures standard dans Latin lookup 1" e periodcentered t
EndChar

StartChar: e_u
Encoding: 207 989600 207
GlifName: e_u
Width: 921
VWidth: 0
Flags: W
LayerCount: 2
Fore
SplineSet
457 176 m 257
 439 79 359 4 259 -10 c 256
 135 -26 57 59 45 174 c 256
 42.1004 202.272 89.3858 213.596 152.238 224.925 c 256
 262.793 244.851 421.511 264.792 440 377 c 256
 454 465 360 531 259 514 c 256
 181 500 117 467 70 376 c 256
 18 275 39 139 74 79 c 1281
EndSplineSet
Refer: 350 117 N 1 0 0 1 366 0 2
Validated: 524323
PickledDataWithLists: "(dp0
Vcom.fontlab.metricsLeft
p1
Ve
p2
sVcom.fontlab.metricsRight
p3
Vu
p4
sVpublic.markColor
p5
V1,0.6,0.994,1
p6
s."
Ligature2: "sous-table 'rlig' Ligatures requises  dans Latin lookup 2" e periodcentered u
Ligature2: "sous-table 'liga' Ligatures standard dans Latin lookup 1" e periodcentered u
EndChar

StartChar: ecircumflex_t_e
Encoding: 212 989584 212
GlifName: ecircumflex_t_e
Width: 1142
VWidth: 0
Flags: W
LayerCount: 2
Fore
SplineSet
448 676 m 257
 448 493 l 1281
380.279 493 m 257
 692 493 l 1281
446 161 m 257
 429 74 494 -10 583 -13 c 256
 648 -15 705 27 721 91 c 1281
EndSplineSet
Refer: 211 234 N 1 0 0 1 0 0 2
Refer: 200 101 N 1 0 0 1 654 0 2
Validated: 524323
PickledDataWithLists: "(dp0
Vcom.fontlab.metricsLeft
p1
Ve
p2
sVcom.fontlab.metricsRight
p3
g2
sVpublic.markColor
p4
V1,0.6,0.994,1
p5
s."
Ligature2: "sous-table 'rlig' Ligatures requises  dans Latin lookup 2" ecircumflex periodcentered t e
Ligature2: "sous-table 'liga' Ligatures standard dans Latin lookup 1" ecircumflex periodcentered t e
EndChar

StartChar: eight
Encoding: 217 56 217
GlifName: eight
Width: 493
VWidth: 0
Flags: W
LayerCount: 2
Fore
SplineSet
247 705 m 256
 134 705 34 633 48 535 c 256
 59 464 119 421 193 421 c 256
 209 421 222 408 222 393 c 256
 222 378 209 364 193 364 c 256
 95 364 23 291 20 195 c 256
 18 80 125 -4 247 -4 c 256
 368 -4 477 80 473 195 c 256
 471 291 399 364 300 364 c 256
 284 364 271 378 271 393 c 256
 271 408 284 421 300 421 c 256
 374 421 434 464 445 535 c 256
 460 633 359 705 247 705 c 256
EndSplineSet
Validated: 41
EndChar

StartChar: emdash
Encoding: 220 8212 220
GlifName: emdash
Width: 1000
VWidth: 0
Flags: W
LayerCount: 2
Fore
SplineSet
70 270 m 257
 815.878 270 l 1281
EndSplineSet
Validated: 524291
EndChar

StartChar: endash
Encoding: 221 8211 221
GlifName: endash
Width: 500
VWidth: 0
Flags: W
LayerCount: 2
Fore
SplineSet
70 270 m 257
 392.077 270 l 1281
EndSplineSet
Validated: 524291
EndChar

StartChar: equal
Encoding: 222 61 222
GlifName: equal
Width: 572
VWidth: 0
Flags: W
LayerCount: 2
Fore
SplineSet
80 270 m 257
 486 270 l 1281
80 437 m 257
 486 437 l 1281
EndSplineSet
Validated: 3
EndChar

StartChar: exclam
Encoding: 224 33 224
GlifName: exclam
Width: 186
VWidth: 0
Flags: W
LayerCount: 2
Fore
SplineSet
61 214 m 257
 59 190 79 170 103 172 c 256
 129 174 145 200 145 228 c 256
 145 406 61 466 61 644 c 256
 61 672 77 698 103 700 c 256
 127 702 147 682 145 658 c 1281
104 97 m 256
 127 97 138 72 138 46 c 256
 138 21 127 -5 104 -5 c 256
 82 -5 70 21 70 46 c 256
 70 72 82 97 104 97 c 256
EndSplineSet
Validated: 35
EndChar

StartChar: f
Encoding: 226 102 226
GlifName: f
Width: 340
VWidth: 0
Flags: W
LayerCount: 2
Fore
SplineSet
90 2 m 257
 90 525 l 257
 73 614 139 697 229 700 c 256
 295 702 353 659 369 595 c 1281
20 493 m 257
 229 493 l 1281
EndSplineSet
Validated: 35
EndChar

StartChar: f_f
Encoding: 228 64256 228
GlifName: f_f
Width: 515
VWidth: 0
Flags: W
LayerCount: 2
Fore
SplineSet
316 2 m 257
 316 525 l 257
 299 614 365 697 455 700 c 256
 521 702 579 659 595 595 c 1281
20 493 m 257
 449 493 l 1281
91 2 m 257
 91 525 l 257
 74 614 140 697 230 700 c 256
 276.16 701.399 318.406 680.786 345.108 646.372 c 1280
EndSplineSet
Validated: 524323
PickledDataWithLists: "(dp0
Vcom.fontlab.recipe
p1
Vf_f
p2
s."
Ligature2: "sous-table 'rlig' Ligatures requises  dans Latin lookup 2" f f
Ligature2: "sous-table 'liga' Ligatures standard dans Latin lookup 1" f f
EndChar

StartChar: f_v
Encoding: 230 991568 230
GlifName: f_v
Width: 511
VWidth: 0
Flags: W
LayerCount: 2
Fore
SplineSet
90 493 m 257
 90 525 l 257
 73 614 139 697 229 700 c 256
 295 702 353 659 369 595 c 1281
20 493 m 257
 229 493 l 1281
90 493 m 257
 178 361 233 209 252 51 c 257
 254 27 263 1 285 1 c 256
 307 1 315 27 318 51 c 256
 336 209 391 361 480 493 c 1281
EndSplineSet
Validated: 35
PickledDataWithLists: "(dp0
Vcom.fontlab.metricsLeft
p1
Vf
p2
sVcom.fontlab.metricsRight
p3
Vv
p4
sVpublic.markColor
p5
V1,0.6,0.994,1
p6
s."
Ligature2: "sous-table 'rlig' Ligatures requises  dans Latin lookup 2" f periodcentered v
Ligature2: "sous-table 'liga' Ligatures standard dans Latin lookup 1" f periodcentered v
Substitution2: "sous-table 'case' Formes sensibles +AOAA la casse dans Latin lookup 0" F_V
EndChar

StartChar: five
Encoding: 232 53 232
GlifName: five
Width: 507
VWidth: 0
Flags: W
LayerCount: 2
Fore
SplineSet
422 700 m 257
 40 700 l 257
 40 389 l 257
 51 376 71 376 82 389 c 256
 209 539 466 439 464 219 c 256
 463 95 363 -5 238 -7 c 256
 156 -9 80 35 40 106 c 1281
EndSplineSet
Validated: 35
EndChar

StartChar: four
Encoding: 233 52 233
GlifName: four
Width: 620
VWidth: 0
Flags: W
LayerCount: 2
Fore
SplineSet
325 693 m 257
 330 703 341 708 353 707 c 256
 362.306 706.069 370.314 701.241 375.611 694.329 c 256
 381.699 686.387 384.208 675.694 381 665 c 257
 0 171 l 257
 -5 146 17 124 42 129 c 257
 63 132 73 153 85 171 c 257
 179 322 399 322 494 171 c 256
 505 153 516 132 536 129 c 257
 547.006 126.799 557.43 129.83 565.226 136.047 c 256
 575.138 143.952 580.799 157.006 578 171 c 1281
325 425 m 257
 325 2 l 1281
EndSplineSet
Validated: 524323
EndChar

StartChar: g
Encoding: 234 103 234
GlifName: g
Width: 556
VWidth: 0
Flags: W
LayerCount: 2
Fore
SplineSet
49 292 m 256
 66 415 152 521 268 512 c 256
 385 502 452 383 454 258 c 256
 457 128 389 2 268 -9 c 256
 125 -21 26 131 49 292 c 256
522 451 m 257
 530.222 461.572 530.511 475.248 524.892 485.95 c 256
 520.944 493.471 514.079 499.524 505 502 c 256
 490.647 505.721 477.142 500.117 467.639 489.243 c 256
 459.266 479.661 454 465.989 454 451 c 258
 454 39 l 258
 454 4.33116 476.78 -15.4517 504.452 -32.6668 c 256
 535.047 -51.7005 571.622 -67.5953 590 -97 c 256
 633 -166 579 -257 488 -266 c 256
 371 -277 296 -149 184 -131 c 256
 91 -115 3 -174 -19 -266 c 1281
EndSplineSet
Validated: 524323
EndChar

StartChar: g_u
Encoding: 235 992016 235
GlifName: g_u
Width: 919
VWidth: 0
Flags: W
LayerCount: 2
Fore
SplineSet
454 258 m 256
 457 128 389 2 268 -9 c 256
 135.485 -20.1201 40.7543 109.592 45.8777 256.792 c 256
 50.061 376.984 128.832 522.797 268 512 c 256
 385 502 452 383 454 258 c 256
522 451 m 257
 530.222 461.572 530.511 475.248 524.892 485.95 c 256
 520.944 493.471 514.079 499.524 505 502 c 256
 490.647 505.721 477.142 500.117 467.639 489.243 c 256
 459.627 480.074 454.46 467.16 454.029 452.931 c 256
 454.01 452.29 454.073 174.503 454 173.861 c 256
 437.17 26.6955 537.683 -109.823 672.908 -95.9031 c 256
 793.218 -82.9772 858.842 42.305 858.842 171.564 c 258
 858.842 418.15 l 1281
574.14 -78.1025 m 257
 580.238 -83.7877 585.633 -90.0124 590 -97 c 256
 633 -166 579 -257 488 -266 c 256
 371 -277 296 -149 184 -131 c 256
 91 -115 3 -174 -19 -266 c 1281
858.842 -81.9829 m 257
 858.842 418.15 l 1281
EndSplineSet
Validated: 524323
PickledDataWithLists: "(dp0
Vcom.fontlab.metricsRight
p1
Vu
p2
sVcom.fontlab.recipe
p3
Vg_u
p4
sVpublic.markColor
p5
V1,0.6,0.994,1
p6
s."
LCarets2: 2 0 0
Ligature2: "sous-table 'rlig' Ligatures requises  dans Latin lookup 2" g periodcentered u
Ligature2: "sous-table 'liga' Ligatures standard dans Latin lookup 1" g periodcentered u
EndChar

StartChar: grave
Encoding: 237 96 237
GlifName: grave
Width: 281
VWidth: 0
Flags: W
LayerCount: 2
Fore
SplineSet
261 585 m 257
 19 689 l 1281
EndSplineSet
Validated: 3
EndChar

StartChar: guillemotleft
Encoding: 239 171 239
GlifName: guillemotleft
Width: 430
VWidth: 0
Flags: W
LayerCount: 2
Fore
SplineSet
293.731 468.33 m 257
 240.637 397.827 171.005 342.122 90.928 306.435 c 256
 70.9088 297.731 50.0192 286.416 50.0192 265.526 c 256
 50.0192 244.637 70.9088 234.192 90.928 224.618 c 257
 171.005 188.931 240.637 133.226 293.731 62.7232 c 1281
409.494 468.33 m 257
 356.4 397.827 286.768 342.122 206.691 306.435 c 256
 186.672 297.731 165.782 286.416 165.782 265.526 c 256
 165.782 244.637 186.672 234.192 206.691 224.618 c 257
 286.768 188.931 356.4 133.226 409.494 62.7232 c 1281
EndSplineSet
Validated: 524291
EndChar

StartChar: guilsinglleft
Encoding: 241 8249 241
GlifName: guilsinglleft
Width: 320
VWidth: 0
Flags: W
LayerCount: 2
Fore
SplineSet
300 499 m 257
 239 418 159 354 67 313 c 256
 44 303 20 290 20 266 c 256
 20 242 44 230 67 219 c 257
 159 178 239 114 300 33 c 1281
EndSplineSet
Validated: 3
EndChar

StartChar: h
Encoding: 243 104 243
GlifName: h
Width: 562
VWidth: 0
Flags: W
LayerCount: 2
Fore
SplineSet
73 2 m 257
 73 149 92 300 178 421 c 256
 220 480 281 529 353 525 c 256
 428 522 489 461 492 386 c 257
 492 2 l 1281
3 648 m 257
 -2.0244 660.561 0.0196002 673.627 6.72218 683.519 c 256
 13.3597 693.316 24.5658 700 38 700 c 256
 49.7224 700 59.9367 694.911 66.8427 687.105 c 256
 75.8432 676.932 79.2242 662.146 73 648 c 257
 73 2 l 1281
EndSplineSet
Validated: 524323
EndChar

StartChar: h_o_f
Encoding: 244 992528 244
GlifName: h_o_f
Width: 1164
VWidth: 0
Flags: W
LayerCount: 2
Fore
SplineSet
914 2 m 257
 914 250 l 1281
844 493 m 257
 1053 493 l 1281
914 493 m 257
 914 525 l 257
 897 614 963 697 1053 700 c 256
 1119 702 1177 659 1193 595 c 1281
EndSplineSet
Refer: 243 104 N 1 0 0 1 0 0 2
Refer: 279 111 N 1 0 0 1 450 0 2
Validated: 524331
PickledDataWithLists: "(dp0
Vcom.fontlab.metricsLeft
p1
Vh
p2
sVcom.fontlab.metricsRight
p3
Vf
p4
sVpublic.markColor
p5
V1,0.6,0.994,1
p6
s."
EndChar

StartChar: hyphen
Encoding: 246 45 246
GlifName: hyphen
Width: 366
VWidth: 0
Flags: W
LayerCount: 2
Fore
SplineSet
70 270 m 257
 306 270 l 1281
EndSplineSet
Validated: 3
EndChar

StartChar: i
Encoding: 247 105 247
GlifName: i
Width: 232
VWidth: 0
Flags: W
LayerCount: 2
Fore
SplineSet
53 454 m 257
 47.8357 466.394 50.1389 479.589 57.1551 489.451 c 256
 63.7249 498.686 74.427 505 87 505 c 256
 98.24 505 107.985 499.954 114.619 492.286 c 256
 123.33 482.216 126.677 467.625 121 454 c 257
 121 47 l 257
 115.291 33.2976 118.708 18.9432 127.531 9.1479 c 256
 134.161 1.7865 143.844 -3 155 -3 c 256
 167.461 -3 178.085 2.9726 184.669 11.835 c 256
 191.822 21.4635 194.207 34.5029 189 47 c 1281
87 680 m 256
 65 680 53 655 53 629 c 256
 53 604 65 578 87 578 c 256
 110 578 121 604 121 629 c 256
 121 655 110 680 87 680 c 256
EndSplineSet
Validated: 524331
EndChar

StartChar: i_e
Encoding: 248 993040 248
GlifName: i_e
Width: 558
VWidth: 0
Flags: W
LayerCount: 2
Fore
SplineSet
146 376 m 256
 113 312 123 238 121 171 c 257
 121 172 121 173 121 174 c 256
 121 215.311 228.153 218.754 330.889 239.891 c 256
 422.129 258.663 509.885 291.392 516 377 c 256
 522 466 436 531 335 514 c 256
 257 500 193 467 146 376 c 256
EndSplineSet
Refer: 247 105 N 1 0 0 1 0 0 2
Validated: 524331
PickledDataWithLists: "(dp0
Vcom.fontlab.metricsLeft
p1
Vi
p2
sVcom.fontlab.metricsRight
p3
Ve
p4
sVpublic.markColor
p5
V1,0.6,0.994,1
p6
s."
Ligature2: "sous-table 'rlig' Ligatures requises  dans Latin lookup 2" i periodcentered e
Ligature2: "sous-table 'liga' Ligatures standard dans Latin lookup 1" i periodcentered e
EndChar

StartChar: i_l
Encoding: 249 993088 249
GlifName: i_l
Width: 295
VWidth: 0
Flags: W
LayerCount: 2
Fore
SplineSet
53 374 m 257
 47.8083 386.46 50.1636 399.729 57.2672 409.608 c 256
 63.8463 418.758 74.4983 425 87 425 c 256
 99.1041 425 109.474 419.148 116.093 410.472 c 256
 123.691 400.511 126.345 386.827 121 374 c 257
 121 47 l 257
 114.874 32.2988 117.806 16.8471 131.309 7.08052 c 256
 139.849 0.903 152.619 -3 170 -3 c 256
 188.208 -3 201.314 0.9032 209.956 7.08093 c 256
 223.619 16.8475 226.125 32.299 220 47 c 1281
87 600 m 256
 65 600 53 575 53 549 c 256
 53 524 65 498 87 498 c 256
 110 498 121 524 121 549 c 256
 121 575 110 600 87 600 c 256
150 648 m 257
 145.268 659.829 146.805 672.106 152.598 681.758 c 256
 159.049 692.506 170.775 700 185 700 c 256
 200.121 700 212.732 691.532 218.971 679.69 c 256
 223.872 670.386 224.84 659 220 648 c 257
 220 47 l 1281
EndSplineSet
Validated: 524331
PickledDataWithLists: "(dp0
Vcom.fontlab.metricsLeft
p1
Vi
p2
sVcom.fontlab.metricsRight
p3
Vl
p4
sVpublic.markColor
p5
V1,0.6,0.994,1
p6
s."
Ligature2: "sous-table 'rlig' Ligatures requises  dans Latin lookup 2" i periodcentered l
Ligature2: "sous-table 'liga' Ligatures standard dans Latin lookup 1" i periodcentered l
EndChar

StartChar: j
Encoding: 256 106 256
GlifName: j
Width: 246
VWidth: 0
Flags: W
LayerCount: 2
Fore
SplineSet
-379 -266 m 257
 -357 -174 -269 -116 -176 -131 c 256
 -64 -150 11 -277 128 -266 c 256
 219 -257 273 -166 230 -97 c 256
 211.584 -67.5348 174.897 -51.3584 144.263 -32.1559 c 256
 116.677 -14.8631 94 4.88379 94 39 c 258
 96 451 l 258
 96 466.139 90.6285 479.935 82.109 489.529 c 256
 72.6203 500.215 59.2266 505.688 45 502 c 256
 35.2699 499.346 28.0827 492.585 24.3036 484.311 c 256
 19.538 473.877 20.1919 461.039 28 451 c 1281
54 680 m 256
 77 680 88 655 88 629 c 256
 88 604 77 578 54 578 c 256
 32 578 20 604 20 629 c 256
 20 655 32 680 54 680 c 256
EndSplineSet
Validated: 524323
EndChar

StartChar: jcircumflex
Encoding: 257 309 257
GlifName: jcircumflex
Width: 246
VWidth: 0
Flags: W
LayerCount: 2
Fore
SplineSet
-319 -266 m 257
 -297 -174 -209 -116 -116 -131 c 256
 -4 -150 71 -277 188 -266 c 256
 279 -257 333 -166 290 -97 c 256
 272.299 -68.6786 237.717 -52.6343 207.857 -34.3794 c 256
 178.674 -16.5388 154 3.4132 154 39 c 258
 156 451 l 258
 156 483 132 509 105 502 c 256
 83 496 74 469 88 451 c 1281
EndSplineSet
Refer: 189 710 N 1 0 0 1 -82 0 2
Validated: 524323
PickledDataWithLists: "(dp0
Vcom.fontlab.recipe
p1
Vj+circumflex
p2
s."
EndChar

StartChar: k
Encoding: 258 107 258
GlifName: k
Width: 507
VWidth: 0
Flags: W
LayerCount: 2
Fore
SplineSet
93.0216 1.9184 m 257
 93.0216 235.963 l 258
 93.0216 390.394 194.697 527.56 328.026 503.58 c 256
 394.21 492.07 443.13 432.599 427.782 370.251 c 256
 394.21 223.494 93.0216 314.618 93.0216 135.247 c 1281
23 648 m 257
 17.8408 660.898 20.1344 674.328 27.2717 684.309 c 256
 33.9686 693.673 44.9298 700 58 700 c 256
 70.3479 700 81.0226 694.353 87.9198 685.833 c 256
 96.104 675.722 98.9694 661.567 93 648 c 257
 93 2 l 1281
263.759 268.576 m 257
 347.21 282.964 427.782 242.678 427.782 168.819 c 256
 427.782 111.267 439.293 54.6744 461.354 1.9184 c 1281
EndSplineSet
Validated: 524323
EndChar

StartChar: l
Encoding: 259 108 259
GlifName: l
Width: 168
VWidth: 0
Flags: W
LayerCount: 2
Fore
SplineSet
23 648 m 257
 17.4197 661.951 20.5586 676.525 29.1151 686.682 c 256
 35.8918 694.726 46.0669 700 58 700 c 256
 69.752 700 79.9884 694.885 86.8951 687.046 c 256
 95.8563 676.875 99.2122 662.119 93 648 c 257
 93 2 l 1281
EndSplineSet
Validated: 524323
EndChar

StartChar: l_e
Encoding: 260 996112 260
GlifName: l_e
Width: 542
VWidth: 0
Flags: W
LayerCount: 2
Fore
SplineSet
23 648 m 257
 17.6305 661.424 20.3339 675.424 28.1687 685.512 c 256
 34.9252 694.211 45.4977 700 58 700 c 256
 69.6797 700 79.8624 694.948 86.7672 687.19 c 256
 95.8243 677.015 99.2416 662.185 93 648 c 257
 93 249 l 1281
EndSplineSet
Refer: 200 101 N 1 0 0 1 54 0 2
Validated: 524323
PickledDataWithLists: "(dp0
Vcom.fontlab.metricsLeft
p1
Vl
p2
sVcom.fontlab.metricsRight
p3
Ve
p4
sVpublic.markColor
p5
V1,0.6,0.994,1
p6
s."
Ligature2: "sous-table 'rlig' Ligatures requises  dans Latin lookup 2" l periodcentered e
Ligature2: "sous-table 'liga' Ligatures standard dans Latin lookup 1" l periodcentered e
Substitution2: "sous-table 'case' Formes sensibles +AOAA la casse dans Latin lookup 0" L_E
EndChar

StartChar: l_l_e
Encoding: 262 996144 262
GlifName: l_l_e
Width: 682
VWidth: 0
Flags: W
LayerCount: 2
Fore
SplineSet
163 648 m 257
 157.443 661.892 160.532 676.401 169.006 686.552 c 256
 175.783 694.669 186.003 700 198 700 c 256
 210.459 700 221.214 694.251 228.104 685.603 c 256
 236.147 675.509 238.924 661.464 233 648 c 257
 233 249 l 1281
EndSplineSet
Refer: 259 108 N 1 0 0 1 0 0 2
Refer: 200 101 N 1 0 0 1 194 0 2
Validated: 524323
PickledDataWithLists: "(dp0
Vcom.fontlab.metricsLeft
p1
Vl
p2
sVcom.fontlab.metricsRight
p3
Ve
p4
sVpublic.markColor
p5
V1,0.6,0.994,1
p6
s."
Ligature2: "sous-table 'rlig' Ligatures requises  dans Latin lookup 2" l periodcentered l e
Ligature2: "sous-table 'liga' Ligatures standard dans Latin lookup 1" l periodcentered l e
EndChar

StartChar: l_u
Encoding: 263 996176 263
GlifName: l_u
Width: 599
VWidth: 0
Flags: W
LayerCount: 2
Fore
SplineSet
93 474 m 257
 93 494 110 511 132 507 c 256
 154 503 164 479 166 456 c 256
 173 388 140 322 132 254 c 256
 115 106 217 -28 352 -14 c 256
 472 -1 537.472 124.001 538 254 c 258
 539 500 l 257
 538 0 l 1281
EndSplineSet
Refer: 259 108 N 1 0 0 1 0 0 2
Validated: 524323
PickledDataWithLists: "(dp0
Vcom.fontlab.metricsLeft
p1
Vl
p2
sVcom.fontlab.metricsRight
p3
Vu
p4
sVpublic.markColor
p5
V1,0.6,0.994,1
p6
s."
Ligature2: "sous-table 'rlig' Ligatures requises  dans Latin lookup 2" l periodcentered u
Ligature2: "sous-table 'liga' Ligatures standard dans Latin lookup 1" l periodcentered u
Substitution2: "sous-table 'case' Formes sensibles +AOAA la casse dans Latin lookup 0" L_U
EndChar

StartChar: m
Encoding: 266 109 266
GlifName: m
Width: 904
VWidth: 0
Flags: W
LayerCount: 2
Fore
SplineSet
90 2 m 257
 90 144 115 288 191 408 c 256
 223 458 267 504 326 509 c 256
 403 515 461 453.474 461 374 c 258
 461 2 l 1281
22 458 m 257
 18.5992 470.469 22.5873 482.939 30.8688 491.402 c 256
 37.1984 497.871 46.0362 502 56 502 c 256
 67.2464 502 76.8191 496.74 83.0814 488.792 c 256
 89.6261 480.485 92.5551 469.243 90 458 c 257
 90 2 l 1281
461 2 m 257
 461 144 486 288 563 408 c 256
 595 458 639 504 698 509 c 256
 775 515 833.39 453.474 833 374 c 257
 833 2 l 1281
EndSplineSet
Validated: 524323
EndChar

StartChar: m_p
Encoding: 267 996624 267
GlifName: m_p
Width: 1275
VWidth: 0
Flags: W
LayerCount: 2
Fore
SplineSet
90 2 m 257
 90 144 115 288 191 408 c 256
 223 458 267 504 326 509 c 256
 403 515 467 451 461 374 c 257
 461 2 l 1281
22 458 m 257
 18.8871 469.414 21.965 480.828 28.8597 489.169 c 256
 35.2545 496.906 44.9326 502 56 502 c 256
 67.9008 502 77.9276 496.11 84.1407 487.377 c 256
 89.9353 479.233 92.4128 468.617 90 458 c 257
 90 2 l 1281
461 2 m 257
 461 144 486 288 563 408 c 256
 595 458 639 504 698 509 c 256
 775 515 839 451 833 374 c 257
 833 -188 l 1281
836 218 m 256
 853 96 939 -9 1053 1 c 256
 1168 11 1234 128 1236 250 c 256
 1239 378 1171 504 1053 514 c 256
 911 526 814 376 836 218 c 256
EndSplineSet
Validated: 524331
PickledDataWithLists: "(dp0
Vcom.fontlab.metricsLeft
p1
Vm
p2
sVcom.fontlab.metricsRight
p3
Vp
p4
sVpublic.markColor
p5
V1,0.6,0.994,1
p6
s."
LCarets2: 2 0 0
Ligature2: "sous-table 'rlig' Ligatures requises  dans Latin lookup 2" m periodcentered p
Ligature2: "sous-table 'liga' Ligatures standard dans Latin lookup 1" m periodcentered p
EndChar

StartChar: n
Encoding: 269 110 269
GlifName: n
Width: 569
VWidth: 0
Flags: W
LayerCount: 2
Fore
SplineSet
91 2 m 257
 91 146 110 293 193 410 c 256
 234 468 293 515 363 512 c 256
 437 509 496 450 499 376 c 257
 499 2 l 1281
23 452 m 257
 17.7456 464.611 20.2217 478.049 27.5269 487.965 c 256
 34.1246 496.919 44.6615 503 57 503 c 256
 68.1501 503 77.5948 498.395 84.1368 491.299 c 256
 93.4362 481.211 96.8703 466.089 91 452 c 257
 91 2 l 1281
EndSplineSet
Validated: 524323
EndChar

StartChar: n_a
Encoding: 270 997136 270
GlifName: n_a
Width: 992
VWidth: 0
Flags: W
LayerCount: 2
Fore
SplineSet
91 2 m 257
 91 146 110 293 193 410 c 256
 234 468 293 515 363 512 c 256
 437 509 496 450 499 376 c 257
 499 122 l 1281
23 452 m 257
 13 476 31 503 57 503 c 256
 70.1582 503 80.9414 496.587 87.3819 487.235 c 256
 94.1571 477.396 96.1266 464.304 91 452 c 257
 91 2 l 1281
EndSplineSet
Refer: 158 97 N 1 0 0 1 468.533 0 2
Validated: 524323
PickledDataWithLists: "(dp0
Vcom.fontlab.metricsLeft
p1
Vn
p2
sVcom.fontlab.metricsRight
p3
Va
p4
sVpublic.markColor
p5
V1,0.6,0.994,1
p6
s."
Ligature2: "sous-table 'rlig' Ligatures requises  dans Latin lookup 2" n periodcentered a
Ligature2: "sous-table 'liga' Ligatures standard dans Latin lookup 1" n periodcentered a
EndChar

StartChar: n_e
Encoding: 271 997152 271
GlifName: n_e
Width: 936
VWidth: 0
Flags: W
LayerCount: 2
Fore
SplineSet
524 376 m 256
 491 312 501 238 499 171 c 257
 499 172 499 173 499 174 c 256
 499 200.663 543.871 212.369 603.375 223.219 c 256
 717.944 244.108 886.76 261.821 894 377 c 256
 900 466 814 531 713 514 c 256
 635 500 571 467 524 376 c 256
EndSplineSet
Refer: 269 110 N 1 0 0 1 0 0 2
Validated: 524331
PickledDataWithLists: "(dp0
Vcom.fontlab.metricsLeft
p1
Vn
p2
sVcom.fontlab.metricsRight
p3
Ve
p4
sVpublic.markColor
p5
V1,0.6,0.994,1
p6
s."
Ligature2: "sous-table 'rlig' Ligatures requises  dans Latin lookup 2" n periodcentered e
Ligature2: "sous-table 'liga' Ligatures standard dans Latin lookup 1" n periodcentered e
EndChar

StartChar: n_x
Encoding: 273 997232 273
GlifName: n_x
Width: 764
VWidth: 0
Flags: W
LayerCount: 2
Fore
SplineSet
705 456 m 257
 723 481 700 515 671 508 c 256
 649 503 642 478 636 456 c 256
 614 375 556 317 499 254 c 1281
705 52 m 257
 721.234 29.4533 704.156 0.1672 679.341 0.0895001 c 256
 650.755 0 642.007 29.6898 636 52 c 256
 613.928 133.981 556 192 499 254 c 1281
EndSplineSet
Refer: 269 110 N 1 0 0 1 0 0 2
Validated: 524323
PickledDataWithLists: "(dp0
Vcom.fontlab.metricsLeft
p1
Vn
p2
sVcom.fontlab.metricsRight
p3
Vx
p4
sVpublic.markColor
p5
V1,0.6,0.994,1
p6
s."
Ligature2: "sous-table 'rlig' Ligatures requises  dans Latin lookup 2" n periodcentered x
Ligature2: "sous-table 'liga' Ligatures standard dans Latin lookup 1" n periodcentered x
EndChar

StartChar: nine
Encoding: 276 57 276
GlifName: nine
Width: 527
VWidth: 0
Flags: W
LayerCount: 2
Fore
SplineSet
457 288 m 257
 463 304 464 323 447 331 c 256
 430 339 417 330 408 313 c 256
 319 144 42 260 41 477 c 256
 40 602 140 704 264 700 c 256
 392 696 487 581 487 449 c 256
 487 219 312 26 83 3 c 1281
EndSplineSet
Validated: 35
EndChar

StartChar: o
Encoding: 279 111 279
GlifName: o
Width: 505
VWidth: 0
Flags: W
LayerCount: 2
Fore
SplineSet
256 516 m 256
 129 518 43 393 41 256 c 256
 39 115 125 -16 256 -14 c 256
 384 -12 466 118 464 256 c 256
 461 390 381 514 256 516 c 256
EndSplineSet
Validated: 41
EndChar

StartChar: o_f
Encoding: 280 997648 280
GlifName: o_f
Width: 714
VWidth: 0
Flags: W
LayerCount: 2
Fore
SplineSet
464 2 m 257
 464 250 l 1281
394 493 m 257
 603 493 l 1281
464 493 m 257
 464 525 l 257
 447 614 513 697 603 700 c 256
 669 702 727 659 743 595 c 1281
EndSplineSet
Refer: 279 111 N 1 0 0 1 0 0 2
Validated: 43
PickledDataWithLists: "(dp0
Vcom.fontlab.metricsLeft
p1
Vo
p2
sVcom.fontlab.metricsRight
p3
Vf
p4
sVpublic.markColor
p5
V1,0.6,0.994,1
p6
s."
Ligature2: "sous-table 'rlig' Ligatures requises  dans Latin lookup 2" o periodcentered f
Ligature2: "sous-table 'liga' Ligatures standard dans Latin lookup 1" o periodcentered f
EndChar

StartChar: o_idieresis
Encoding: 281 997744 281
GlifName: o_idieresis
Width: 605
VWidth: 0
Flags: W
LayerCount: 2
Fore
SplineSet
256 516 m 256
 129 518 43 393 41 256 c 256
 39 115 125 -16 256 -14 c 256
 384 -12 466 118 464 256 c 256
 461 390 381 514 256 516 c 256
408.049 430.996 m 257
 399.093 452.491 405.469 474.42 419 488.542 c 256
 427.914 497.843 439.931 503.757 452.716 503.929 c 256
 470.386 504.167 480.682 498.476 487.221 489.947 c 256
 494.908 479.92 497.404 466.969 492 454 c 257
 492 47 l 257
 487.005 35.0126 488.996 22.5262 495.48 13.0299 c 256
 501.977 3.51362 512.986 -3 526 -3 c 256
 539.159 -3 550.268 3.65956 556.736 13.349 c 256
 563.048 22.8049 564.939 35.1464 560 47 c 1281
376 730 m 256
 354 730 342 705 342 679 c 256
 342 654 354 628 376 628 c 256
 399 628 410 654 410 679 c 256
 410 705 399 730 376 730 c 256
556 730 m 256
 534 730 522 705 522 679 c 256
 522 654 534 628 556 628 c 256
 579 628 590 654 590 679 c 256
 590 705 579 730 556 730 c 256
EndSplineSet
Validated: 524331
PickledDataWithLists: "(dp0
Vcom.fontlab.metricsLeft
p1
Vo
p2
sVcom.fontlab.recipe
p3
Vo_idieresis
p4
sVpublic.markColor
p5
V1,0.6,0.994,1
p6
s."
Ligature2: "sous-table 'rlig' Ligatures requises  dans Latin lookup 2" o periodcentered idieresis
Ligature2: "sous-table 'liga' Ligatures standard dans Latin lookup 1" o periodcentered idieresis
EndChar

StartChar: o_n_a
Encoding: 282 997680 282
GlifName: o_n_a
Width: 1365
VWidth: 0
Flags: W
LayerCount: 2
Fore
SplineSet
464 2 m 257
 464 146 483 293 566 410 c 256
 607 468 666 515 736 512 c 256
 810 509 869 450 872 376 c 257
 872 122 l 1281
396 452 m 257
 386 476 404 503 430 503 c 256
 457 503 474 476 464 452 c 257
 464 2 l 1281
EndSplineSet
Refer: 279 111 N 1 0 0 1 0 0 2
Refer: 158 97 N 1 0 0 1 841.533 -0.1513 2
Validated: 524331
PickledDataWithLists: "(dp0
Vcom.fontlab.metricsLeft
p1
Vo
p2
sVcom.fontlab.metricsRight
p3
Va
p4
sVpublic.markColor
p5
V1,0.6,0.994,1
p6
s."
Ligature2: "sous-table 'rlig' Ligatures requises  dans Latin lookup 2" o n periodcentered a
Ligature2: "sous-table 'liga' Ligatures standard dans Latin lookup 1" o n periodcentered a
EndChar

StartChar: o_t
Encoding: 283 997696 283
GlifName: o_t
Width: 727
VWidth: 0
Flags: W
LayerCount: 2
Fore
SplineSet
411 676 m 257
 411 493 l 1281
341 493 m 257
 655 493 l 1281
417 82 m 257
 432 33 484 -11 548 -13 c 256
 613 -15 670 27 686 91 c 1281
EndSplineSet
Refer: 279 111 N 1 0 0 1 0 0 2
Validated: 43
PickledDataWithLists: "(dp0
Vcom.fontlab.metricsLeft
p1
Vo
p2
sVcom.fontlab.metricsRight
p3
Vt
p4
sVpublic.markColor
p5
V1,0.6,0.994,1
p6
s."
Ligature2: "sous-table 'rlig' Ligatures requises  dans Latin lookup 2" o periodcentered t
Ligature2: "sous-table 'liga' Ligatures standard dans Latin lookup 1" o periodcentered t
EndChar

StartChar: one
Encoding: 290 49 290
GlifName: one
Width: 311
VWidth: 0
Flags: W
LayerCount: 2
Fore
SplineSet
62 395 m 257
 28 421 17 461 34 500 c 256
 68 578 209 566 209 660 c 256
 209 681 219 702 237 702 c 256
 256 702 265 681 265 660 c 258
 265 -1 l 1281
EndSplineSet
Validated: 35
EndChar

StartChar: oslash
Encoding: 291 248 291
GlifName: oslash
Width: 505
VWidth: 0
Flags: W
LayerCount: 2
Fore
SplineSet
455 500 m 257
 50 0 l 1281
EndSplineSet
Refer: 279 111 N 1 0 0 1 0 0 2
Validated: 11
PickledDataWithLists: "(dp0
Vcom.fontlab.metricsLeft
p1
Vo
p2
sVcom.fontlab.metricsRight
p3
g2
s."
EndChar

StartChar: p
Encoding: 293 112 293
GlifName: p
Width: 556
VWidth: 0
Flags: W
LayerCount: 2
Fore
SplineSet
117.312 217.888 m 256
 134.016 96.32 220.32 -8.54399 334.464 0.736 c 256
 448.608 10.944 515.424 127.872 517.28 250.368 c 256
 520.064 378.432 452.32 503.712 334.464 513.92 c 256
 192.48 525.984 95.04 375.648 117.312 217.888 c 256
44 458 m 257
 37.7375 472.233 41.1987 487.438 50.3241 497.896 c 256
 57.2272 505.806 67.3717 511 79 511 c 256
 89.8637 511 97.6515 506.791 103.08 500 c 256
 111.143 489.915 114 474.136 114 458 c 258
 114 -189 l 1281
EndSplineSet
Validated: 524331
EndChar

StartChar: p_m
Encoding: 295 999696 295
GlifName: p_m
Width: 1331
VWidth: 0
Flags: W
LayerCount: 2
Fore
SplineSet
517 2 m 257
 517 144 542 288 618 408 c 256
 650.825 459.289 699.262 510.479 765.138 509.372 c 256
 833.835 508.218 889.252 451.555 888.38 382.39 c 256
 888.345 379.613 888.219 376.815 888 374 c 257
 888 2 l 1281
451 453 m 257
 446.012 467.464 448.488 479.689 454.951 488.31 c 256
 461.448 496.975 471.973 502 483 502 c 256
 493.955 502 503.321 497.009 509.587 489.405 c 256
 516.477 481.043 519.619 469.522 517 458 c 257
 517 2 l 1281
888 2 m 257
 888 144 913 288 990 408 c 256
 1022 458 1066 504 1125 509 c 256
 1195.24 514.473 1254.66 461.699 1260 393.944 c 256
 1260.51 387.422 1260.53 380.761 1260 374 c 257
 1260 2 l 1281
EndSplineSet
Refer: 293 112 N 1 0 0 1 0 0 2
Validated: 524331
PickledDataWithLists: "(dp0
Vcom.fontlab.metricsLeft
p1
Vp
p2
sVcom.fontlab.metricsRight
p3
Vm
p4
sVpublic.markColor
p5
V1,0.6,0.994,1
p6
s."
Ligature2: "sous-table 'rlig' Ligatures requises  dans Latin lookup 2" p periodcentered m
Ligature2: "sous-table 'liga' Ligatures standard dans Latin lookup 1" p periodcentered m
EndChar

StartChar: parenright
Encoding: 297 41 297
GlifName: parenright
Width: 142
VWidth: 0
Flags: W
LayerCount: 2
Fore
SplineSet
52 1 m 257
 98 112 122 231 122 351 c 256
 122 471 98 589 52 700 c 1281
EndSplineSet
Validated: 3
EndChar

StartChar: percent
Encoding: 298 37 298
GlifName: percent
Width: 661
VWidth: 0
Flags: W
LayerCount: 2
Fore
SplineSet
497 1 m 257
 435 21 386 75 385 141 c 256
 384 215 428 282 497 281 c 256
 564 279 608 213 609 141 c 256
 609 68 565 1 497 1 c 256
 398 2 276 127 246 1 c 257
 413 700 l 257
 384 578 261 700 162 700 c 256
 94 700 50 633 50 560 c 256
 50 488 94 422 162 421 c 256
 231 419 274 487 274 560 c 256
 274 624 224 681 162 700 c 1281
EndSplineSet
Validated: 35
EndChar

StartChar: period
Encoding: 299 46 299
GlifName: period
Width: 268
VWidth: 0
Flags: W
LayerCount: 2
Fore
SplineSet
145 97 m 256
 168 97 179 72 179 46 c 256
 179 21 168 -5 145 -5 c 256
 123 -5 111 21 111 46 c 256
 111 72 123 97 145 97 c 256
EndSplineSet
Validated: 1
EndChar

StartChar: periodcentered
Encoding: 300 183 300
GlifName: periodcentered
Width: 225
VWidth: 0
Flags: W
LayerCount: 2
Fore
SplineSet
181 409 m 257
 203 359 198 300 166 255 c 256
 138 214 91 189 40 187 c 257
 31 197 l 257
 69 223 101 256 127 294 c 256
 149 327 166 362 176 400 c 257
 171 429 l 257
 181 434 l 257
 181 409 l 257
EndSplineSet
Validated: 33
Ligature2: "sous-table 'rlig' Ligatures requises  dans Latin lookup 2" period period
Ligature2: "sous-table 'liga' Ligatures standard dans Latin lookup 1" period period
Substitution2: "sous-table 'case' Formes sensibles +AOAA la casse dans Latin lookup 0" periodcentered.case
EndChar

StartChar: periodcentered.case
Encoding: 301 -1 301
GlifName: periodcentered.case
Width: 268
VWidth: 0
Flags: W
LayerCount: 2
Fore
SplineSet
181 489 m 257
 203 439 197.595 380.286 166 335 c 256
 137.592 294.282 91 269 40 267 c 257
 31 277 l 257
 69 303 101.212 335.856 127 374 c 256
 149.213 406.857 166 442 176 480 c 257
 171 509 l 257
 181 514 l 257
 181 489 l 257
EndSplineSet
Validated: 524321
PickledDataWithLists: "(dp0
Vpublic.markColor
p1
V0.604,0.6,1,1
p2
s."
EndChar

StartChar: perthousand
Encoding: 302 8240 302
GlifName: perthousand
Width: 943
VWidth: 0
Flags: W
LayerCount: 2
Fore
SplineSet
778.2 1 m 257
 709.83 1 667.143 75 666.2 141 c 256
 665.143 215 709.21 282.523 778.2 281 c 256
 845.214 279.522 889.703 213.005 890.2 141 c 256
 890.703 68.0017 846.2 1 778.2 1 c 1281
EndSplineSet
Refer: 298 37 N 1 0 0 1 0 0 2
Validated: 524323
PickledDataWithLists: "(dp0
Vcom.fontlab.metricsLeft
p1
Vpercent
p2
sVcom.fontlab.metricsRight
p3
Vpercent
p4
s."
EndChar

StartChar: plus
Encoding: 303 43 303
GlifName: plus
Width: 572
VWidth: 0
Flags: W
LayerCount: 2
Fore
SplineSet
279 0.3754 m 257
 279 500.186 l 1281
529.625 249 m 257
 29.8141 249 l 1281
EndSplineSet
Validated: 524291
EndChar

StartChar: q
Encoding: 304 113 304
GlifName: q
Width: 556
VWidth: 0
Flags: W
LayerCount: 2
Fore
SplineSet
438.688 217.888 m 256
 421.984 96.32 335.68 -8.54399 221.536 0.736 c 256
 107.392 10.944 40.576 127.872 38.72 250.368 c 256
 35.936 378.432 103.68 503.712 221.536 513.92 c 256
 363.52 525.984 460.96 375.648 438.688 217.888 c 256
512 458 m 257
 518.697 473.219 514.275 489.55 503.699 500 c 256
 496.902 506.714 487.563 511 477 511 c 256
 466.437 511 457.251 506.714 450.581 500 c 256
 440.201 489.55 435.912 473.219 442 458 c 257
 442 -189 l 1281
EndSplineSet
Validated: 524323
EndChar

StartChar: question
Encoding: 305 63 305
GlifName: question
Width: 562
VWidth: 0
Flags: W
LayerCount: 2
Fore
SplineSet
277 46 m 256
 277 20 288 -5 311 -5 c 256
 333 -5 344 20 344 46 c 256
 344 71 333 96 311 96 c 256
 288 96 277 71 277 46 c 256
344 223 m 257
 359 199 339 168 311 172 c 256
 288 175 277 199 277 223 c 258
 277 232 l 258
 277 339 376 337 438 415 c 256
 467 450 480 491 480 532 c 256
 480 645 405 718 277 714 c 256
 171 711 80 655 80 526 c 256
 80 476 111 386 214 389 c 1281
EndSplineSet
Validated: 43
EndChar

StartChar: quotesingle
Encoding: 313 39 313
GlifName: quotesingle
Width: 229
VWidth: 0
Flags: HW
LayerCount: 2
Fore
SplineSet
81.1099 689.438 m 256
 81.1099 664.046 92.2826 638.653 114.628 638.653 c 256
 136.973 638.653 148.146 664.046 148.146 689.438 c 256
 148.146 714.831 136.973 740.223 114.628 740.223 c 256
 92.2826 740.223 81.1099 714.831 81.1099 689.438 c 256
148.146 689.438 m 257
 148.146 611.784459962 124.078125 533.71484375 81 469 c 1025
EndSplineSet
EndChar

StartChar: r
Encoding: 314 114 314
GlifName: r
Width: 502
VWidth: 0
Flags: HW
LayerCount: 2
Fore
SplineSet
90 2 m 257
 90 144 115 287 191 407 c 256
 223 457 267 503 326 508 c 256
 403 514 467 450 461 373 c 1281
21.6649539344 458.388746161 m 1025
21.6649539344 458.388746161 m 1
 19.1073163898 469.925426649 22.2942565942 480.857464746 29.0554 488.76 c 256
 35.451 496.236 45.0449 501 56 501 c 256
 68.0055 501 78.1037 495.278 84.3037 486.537 c 256
 89.9816 478.532 92.3901 467.995 90 457 c 257
 90 2 l 1281
EndSplineSet
PickledDataWithLists: "(dp0
Vcom.fontlab.metricsLeft
p1
Vn
p2
s."
EndChar

StartChar: r_e
Encoding: 315 1000720 315
GlifName: r_e
Width: 878
VWidth: 0
Flags: W
LayerCount: 2
Fore
SplineSet
836.199 171 m 257
 819.199 76 743.255 2.5873 648.199 -10 c 256
 524.253 -26.4129 457.272 59.0168 437.199 146 c 256
 419.898 220.97 486.577 242.539 569.705 256.689 c 256
 678.42 275.195 815.269 281.013 829.199 377 c 256
 841.997 465.183 749.117 531.477 648.199 514 c 256
 570.115 500.477 506.199 467 459.199 376 c 1281
EndSplineSet
Refer: 314 114 N 1 0 0 1 -0.6342 0 2
Validated: 524323
PickledDataWithLists: "(dp0
Vcom.fontlab.metricsLeft
p1
Vr
p2
sVcom.fontlab.metricsRight
p3
Ve
p4
sVpublic.markColor
p5
V1,0.6,0.994,1
p6
s."
Ligature2: "sous-table 'rlig' Ligatures requises  dans Latin lookup 2" r periodcentered e
Ligature2: "sous-table 'liga' Ligatures standard dans Latin lookup 1" r periodcentered e
EndChar

StartChar: r_egrave
Encoding: 316 1000736 316
GlifName: r_egrave
Width: 878
VWidth: 0
Flags: W
LayerCount: 2
Fore
SplineSet
836.199 171 m 257
 819.199 76 743.255 2.5873 648.199 -10 c 256
 524.253 -26.4129 457.272 59.0168 437.199 146 c 256
 419.568 222.402 488.356 242.042 573.147 255.313 c 256
 680.371 272.094 813.186 278.689 829.199 377 c 256
 843.524 464.948 749.117 531.477 648.199 514 c 256
 570.115 500.477 506.199 467 459.199 376 c 1281
755 585 m 257
 513 689 l 1281
EndSplineSet
Refer: 314 114 N 1 0 0 1 -0.6342 0 2
Validated: 524323
PickledDataWithLists: "(dp0
Vcom.fontlab.metricsLeft
p1
Vr
p2
sVcom.fontlab.metricsRight
p3
Ve
p4
sVpublic.markColor
p5
V1,0.6,0.994,1
p6
s."
Ligature2: "sous-table 'rlig' Ligatures requises  dans Latin lookup 2" r periodcentered egrave
Ligature2: "sous-table 'liga' Ligatures standard dans Latin lookup 1" r periodcentered egrave
EndChar

StartChar: r_i
Encoding: 317 1000816 317
GlifName: r_i
Width: 574
VWidth: 0
Flags: W
LayerCount: 2
Fore
SplineSet
90 2 m 257
 90 205 158 648 381 648 c 256
 445 648 472 610 461 540 c 1281
22 457 m 257
 18.7195 469.575 22.3146 481.553 30.0068 489.827 c 256
 36.3834 496.686 45.5754 501 56 501 c 256
 67.8663 501 77.8694 495.41 84.0866 486.84 c 256
 89.9199 478.799 92.4204 468.134 90 457 c 257
 90 2 l 1281
395 384 m 257
 389.952 396.115 392.039 408.995 398.688 418.78 c 256
 405.211 428.379 416.125 435 429 435 c 256
 442.171 435 453.289 428.072 459.754 418.114 c 256
 466.051 408.415 467.934 395.842 463 384 c 257
 463 47 l 257
 457.361 33.4661 460.626 19.2962 469.208 9.51129 c 256
 475.845 1.9445 485.662 -3 497 -3 c 256
 509.654 -3 520.413 3.1584 526.971 12.2474 c 256
 533.888 21.8338 536.133 34.6804 531 47 c 1281
429 610 m 256
 407 610 395 585 395 559 c 256
 395 534 407 508 429 508 c 256
 452 508 463 534 463 559 c 256
 463 585 452 610 429 610 c 256
EndSplineSet
Validated: 524331
PickledDataWithLists: "(dp0
Vcom.fontlab.metricsLeft
p1
Vr
p2
sVcom.fontlab.metricsRight
p3
Vi
p4
sVpublic.markColor
p5
V1,0.6,0.994,1
p6
s."
Ligature2: "sous-table 'rlig' Ligatures requises  dans Latin lookup 2" r periodcentered i
Ligature2: "sous-table 'liga' Ligatures standard dans Latin lookup 1" r periodcentered i
EndChar

StartChar: r_s
Encoding: 318 1000896 318
GlifName: r_s
Width: 502
VWidth: 0
Flags: W
LayerCount: 2
Fore
SplineSet
22 457 m 257
 18.955 468.672 21.8338 479.83 28.4143 487.989 c 256
 34.8003 495.906 44.6725 501 56 501 c 256
 66.6835 501 75.8567 496.469 82.1164 489.311 c 256
 89.333 481.059 92.6775 469.316 90 457 c 257
 90 185 l 257
 90 280 207 508 326 508 c 256
 403 508 467 450 461 373 c 1281
90 185 m 257
 120 148 183 151 222 146 c 256
 320 134 427 98 433 8 c 256
 440 -87 330 -146 222 -129 c 256
 145 -117 80 -73 35 -9 c 1281
EndSplineSet
Validated: 524323
PickledDataWithLists: "(dp0
Vcom.fontlab.metricsLeft
p1
Vr
p2
sVcom.fontlab.metricsRight
p3
g2
sVpublic.markColor
p4
V1,0.6,0.994,1
p5
s."
Ligature2: "sous-table 'rlig' Ligatures requises  dans Latin lookup 2" r periodcentered s
Ligature2: "sous-table 'liga' Ligatures standard dans Latin lookup 1" r periodcentered s
Substitution2: "sous-table 'case' Formes sensibles +AOAA la casse dans Latin lookup 0" R_S
EndChar

StartChar: r_x
Encoding: 319 1000944 319
GlifName: r_x
Width: 847
VWidth: 0
Flags: W
LayerCount: 2
Fore
SplineSet
90 2 m 257
 90 144 115 287 191 407 c 256
 223 457 267 503 326 508 c 256
 383 512 432 479 460 431 c 256
 541 296 676 198 719 43 c 256
 725 21 732 -3 754 -8 c 256
 768.718 -11.5525 781.89 -4.80258 788.942 5.97559 c 256
 795.785 16.4349 796.865 30.6877 788 43 c 1281
22 457 m 257
 19 468.497 21.7478 479.494 28.1192 487.619 c 256
 34.494 495.747 44.4962 501 56 501 c 256
 66.5726 501 75.666 496.563 81.9205 489.533 c 256
 89.2723 481.271 92.7016 469.427 90 457 c 257
 90 2 l 1281
375 43 m 257
 367.626 32.759 367.133 21.1755 371.114 11.5491 c 256
 376.85 -2.3241 391.88 -12.1325 409 -8 c 256
 431 -3 438 21 444 43 c 256
 489 207 674 293 719 456 c 256
 725 478 732 503 754 508 c 256
 770.65 512.019 785.323 502.522 791.393 488.974 c 256
 795.895 478.924 795.665 466.646 788 456 c 1281
EndSplineSet
Validated: 524323
PickledDataWithLists: "(dp0
Vcom.fontlab.metricsLeft
p1
Vr
p2
sVcom.fontlab.metricsRight
p3
Vx
p4
sVpublic.markColor
p5
V1,0.6,0.994,1
p6
s."
Ligature2: "sous-table 'rlig' Ligatures requises  dans Latin lookup 2" r periodcentered x
Ligature2: "sous-table 'liga' Ligatures standard dans Latin lookup 1" r periodcentered x
EndChar

StartChar: r_x_s_e
Encoding: 320 1002240 320
GlifName: r_x_s_e
Width: 1584
VWidth: 0
Flags: W
LayerCount: 2
Fore
SplineSet
436 456 m 257
 418 481 441 515 470 508 c 256
 492 503 499 478 505 456 c 256
 543 319 676 234 749 115 c 256
 789 49 858 7 935 -5 c 256
 1043 -22 1153 37 1146 132 c 256
 1140 222 1033 258 935 270 c 256
 858 279 775 301 764 373 c 256
 750 454 839 510 935 510 c 256
 1026 510 1112 460 1166 375 c 257
 1213 466 1277 500 1355 514 c 256
 1456 531 1550 465 1536 377 c 256
 1507 201 1104 319 1144 146 c 256
 1164 59 1231 -26 1355 -10 c 256
 1450 3 1526 76 1543 171 c 1281
434 43 m 257
 416 18 439 -15 468 -8 c 256
 490 -3 494 18 500 40 c 256
 523 124 581 187 639 251 c 1281
EndSplineSet
Refer: 314 114 N 1 0 0 1 -0.6342 0 2
Validated: 524323
PickledDataWithLists: "(dp0
Vcom.fontlab.metricsLeft
p1
Vr
p2
sVcom.fontlab.metricsRight
p3
Ve
p4
sVpublic.markColor
p5
V1,0.6,0.994,1
p6
s."
Ligature2: "sous-table 'rlig' Ligatures requises  dans Latin lookup 2" r periodcentered x periodcentered s e
Ligature2: "sous-table 'liga' Ligatures standard dans Latin lookup 1" r periodcentered x periodcentered s e
EndChar

StartChar: registered
Encoding: 323 174 323
GlifName: registered
Width: 605
VWidth: 0
Flags: W
LayerCount: 2
Fore
SplineSet
33 42 m 257
 28.7757 31.9674 30.6854 21.3771 36.5208 13.6154 c 256
 41.7366 6.67783 50.0886 2 60 2 c 256
 70.7508 2 79.667 7.50377 84.736 15.4254 c 256
 89.5685 22.9774 90.9045 32.7269 87 42 c 257
 87 680 l 1281
33 477 m 257
 2 712 312 825 440 626 c 256
 587 397 289 144 87 327 c 1281
87 327 m 257
 190 440 375 411 440 273 c 256
 490 165 479 -4 603 2 c 256
 647 3 682 39 684 83 c 1281
EndSplineSet
Validated: 524323
EndChar

StartChar: s
Encoding: 324 115 324
GlifName: s
Width: 479
VWidth: 0
Flags: W
LayerCount: 2
Fore
SplineSet
428 407 m 257
 380 472 303 510 222 510 c 256
 126 510 37 454 51 373 c 256
 62 301 145 279 222 270 c 256
 320 258 427 222 433 132 c 256
 440 37 330 -22 222 -5 c 256
 145 7 80 51 35 115 c 1281
EndSplineSet
Validated: 35
EndChar

StartChar: s_c
Encoding: 325 1001232 325
GlifName: s_c
Width: 810
VWidth: 0
Flags: W
LayerCount: 2
Fore
SplineSet
35 115 m 257
 80 51 145 7 222 -5 c 256
 330 -22 440 37 433 132 c 256
 427 222 320 258 222 270 c 256
 145 279 62 301 51 373 c 256
 37 454 126 510 222 510 c 256
 303 510 380 472 428 407 c 257
 463 469 522 513 597 513 c 256
 660 513 712 482 749 433 c 1281
429 93 m 257
 470 28 527 -10 597 -10 c 256
 660 -10 712 22 749 70 c 1281
EndSplineSet
Validated: 35
PickledDataWithLists: "(dp0
Vcom.fontlab.metricsLeft
p1
Vs
p2
sVcom.fontlab.metricsRight
p3
Vc
p4
sVpublic.markColor
p5
V1,0.6,0.994,1
p6
s."
Ligature2: "sous-table 'rlig' Ligatures requises  dans Latin lookup 2" s periodcentered c
Ligature2: "sous-table 'liga' Ligatures standard dans Latin lookup 1" s periodcentered c
EndChar

StartChar: s_e
Encoding: 326 1001280 326
GlifName: s_e
Width: 877
VWidth: 0
Flags: W
LayerCount: 2
Fore
SplineSet
35 115 m 257
 80 51 145 7 222 -5 c 256
 330 -22 440 37 433 132 c 256
 427 222 320 258 222 270 c 256
 145 279 62 301 51 373 c 256
 37 454 126 510 222 510 c 256
 320.874 510 342.148 466.987 415.85 437.224 c 256
 545.503 384.865 806.254 433.489 828.157 566.418 c 256
 842.157 654.418 748.157 720.418 647.157 703.418 c 256
 569.157 689.418 505.157 656.418 458.157 565.418 c 256
 424.033 499.138 422.405 417.737 434.482 352.681 c 257
 438.734 322.869 447.532 295.298 460.51 271.271 c 256
 495.199 207.047 559.75 168.14 647.157 179.418 c 256
 742.157 192.418 818.157 265.418 835.157 360.418 c 1281
EndSplineSet
Validated: 524323
PickledDataWithLists: "(dp0
Vcom.fontlab.metricsLeft
p1
Vs
p2
sVcom.fontlab.metricsRight
p3
Ve
p4
sVpublic.markColor
p5
V1,0.6,0.994,1
p6
s."
Ligature2: "sous-table 'rlig' Ligatures requises  dans Latin lookup 2" s periodcentered e
Ligature2: "sous-table 'liga' Ligatures standard dans Latin lookup 1" s periodcentered e
EndChar

StartChar: s_h_e
Encoding: 327 1024256 327
GlifName: s_h_e
Width: 1265
VWidth: 0
Flags: W
LayerCount: 2
Fore
SplineSet
433 347 m 257
 433 457 303 510 222 510 c 256
 126 510 37 454 51 373 c 256
 62 301 145 279 222 270 c 256
 320 258 427 222 433 132 c 256
 440 37 330 -22 222 -5 c 256
 145 7 80 51 35 115 c 1281
363 648 m 257
 353 673 371 700 398 700 c 256
 410.469 700 421.231 694.242 428.121 685.582 c 256
 436.151 675.489 438.92 661.455 433 648 c 257
 433 288 l 257
 461 393 565 531 677 525 c 256
 752 522 813 461 816 386 c 257
 816 2 l 1281
EndSplineSet
Refer: 200 101 N 1 0 0 1 777 0 2
Validated: 524323
PickledDataWithLists: "(dp0
Vcom.fontlab.metricsLeft
p1
Vs
p2
sVcom.fontlab.metricsRight
p3
Ve
p4
sVpublic.markColor
p5
V1,0.6,0.994,1
p6
s."
Ligature2: "sous-table 'rlig' Ligatures requises  dans Latin lookup 2" s periodcentered h e
Ligature2: "sous-table 'liga' Ligatures standard dans Latin lookup 1" s periodcentered h e
EndChar

StartChar: s_l
Encoding: 328 1001312 328
GlifName: s_l
Width: 508
VWidth: 0
Flags: W
LayerCount: 2
Fore
SplineSet
433 347 m 257
 433 457 303 510 222 510 c 256
 126 510 37 454 51 373 c 256
 62 301 145 279 222 270 c 256
 320 258 427 222 433 132 c 256
 440 37 330 -22 222 -5 c 256
 145 7 80 51 35 115 c 1281
363 648 m 257
 353 673 371 700 398 700 c 256
 425 700 444 673 433 648 c 257
 433 288 l 1281
EndSplineSet
Validated: 35
PickledDataWithLists: "(dp0
Vcom.fontlab.metricsLeft
p1
Vs
p2
sVcom.fontlab.metricsRight
p3
Vl
p4
sVpublic.markColor
p5
V1,0.6,0.994,1
p6
s."
Ligature2: "sous-table 'rlig' Ligatures requises  dans Latin lookup 2" s periodcentered l
Ligature2: "sous-table 'liga' Ligatures standard dans Latin lookup 1" s periodcentered l
EndChar

StartChar: s_s
Encoding: 329 1001360 329
GlifName: s_s
Width: 876
VWidth: 0
Flags: W
LayerCount: 2
Fore
SplineSet
35 115 m 257
 80 51 145 7 222 -5 c 256
 330 -22 440 37 433 132 c 256
 427 222 320 258 222 270 c 256
 145 279 62 301 51 373 c 256
 37 454 126 510 222 510 c 256
 303 510 392.064 456.371 428 384 c 256
 465.146 309.192 540.355 261.541 619.317 249.296 c 256
 727.356 232.541 836.995 291.272 830.317 386.296 c 256
 823.995 476.273 717.346 512.532 619.317 524.296 c 256
 542.345 533.532 460.063 555.413 448.317 627.296 c 256
 435.062 708.421 523.317 764.296 619.317 764.296 c 256
 691.522 764.296 765.316 735.689 827.949 659.351 c 1281
EndSplineSet
Validated: 524323
PickledDataWithLists: "(dp0
Vcom.fontlab.metricsLeft
p1
Vs
p2
sVcom.fontlab.metricsRight
p3
g2
sVcom.fontlab.recipe
p4
Vs_s
p5
sVpublic.markColor
p6
V1,0.6,0.994,1
p7
s."
Ligature2: "sous-table 'rlig' Ligatures requises  dans Latin lookup 2" s periodcentered s
Ligature2: "sous-table 'liga' Ligatures standard dans Latin lookup 1" s periodcentered s
EndChar

StartChar: s_s_e
Encoding: 330 1001376 330
GlifName: s_s_e
Width: 1269
VWidth: 0
Flags: W
LayerCount: 2
Fore
SplineSet
35 115 m 257
 80 51 145 7 222 -5 c 256
 330 -22 440 37 433 132 c 256
 427 222 320 258 222 270 c 256
 145 279 62 301 51 373 c 256
 37 454 126 510 222 510 c 256
 303 510 392.064 479.371 428 407 c 256
 465.146 332.192 540.317 284.296 619.317 272.296 c 256
 727.317 255.296 837.317 314.296 830.317 409.296 c 256
 824.317 499.296 717.317 535.296 619.317 547.296 c 256
 542.317 556.296 459.317 578.296 448.317 650.296 c 256
 434.317 731.296 523.317 787.296 619.317 787.296 c 256
 700.317 787.296 783.317 751.296 850.317 652.296 c 257
 897.317 743.296 961.317 777.296 1039.32 791.296 c 256
 1140.32 808.296 1234.32 742.296 1220.32 654.296 c 256
 1203.24 550.642 1056.44 548.963 946.806 529.757 c 256
 870.287 516.352 811.875 494.409 828.317 423.296 c 256
 848.317 336.296 915.317 251.296 1039.32 267.296 c 256
 1134.32 280.296 1210.32 353.296 1227.32 448.296 c 1281
EndSplineSet
Validated: 524323
PickledDataWithLists: "(dp0
Vcom.fontlab.metricsLeft
p1
Vs
p2
sVcom.fontlab.metricsRight
p3
Ve
p4
sVpublic.markColor
p5
V1,0.6,0.994,1
p6
s."
Ligature2: "sous-table 'rlig' Ligatures requises  dans Latin lookup 2" s periodcentered s e
Ligature2: "sous-table 'liga' Ligatures standard dans Latin lookup 1" s periodcentered s e
EndChar

StartChar: s_t
Encoding: 331 1001408 331
GlifName: s_t
Width: 744
VWidth: 0
Flags: W
LayerCount: 2
Fore
SplineSet
428 676 m 257
 428 407 l 1281
358 493 m 257
 672 493 l 1281
430 96 m 257
 445 36 498 -11 565 -13 c 256
 630 -15 687 27 703 91 c 1281
EndSplineSet
Refer: 324 115 N 1 0 0 1 0 0 2
Validated: 35
PickledDataWithLists: "(dp0
Vcom.fontlab.metricsLeft
p1
Vs
p2
sVcom.fontlab.metricsRight
p3
Vt
p4
sVpublic.markColor
p5
V1,0.6,0.994,1
p6
s."
Ligature2: "sous-table 'rlig' Ligatures requises  dans Latin lookup 2" s periodcentered t
Ligature2: "sous-table 'liga' Ligatures standard dans Latin lookup 1" s periodcentered t
EndChar

StartChar: seven
Encoding: 337 55 337
GlifName: seven
Width: 572
VWidth: 0
Flags: HW
LayerCount: 2
Fore
SplineSet
14.742275638 650.498595571 m 1025
14.742275638 650.498595571 m 1
 12.8409781598 663.029996301 17.3756304361 674.967408149 25.5186 683.145 c 256
 33.8897 691.551 46.0741 695.983 59 693 c 257
 80 689 91 668 103 649 c 256
 190 515 385 515 472 649 c 256
 484 668 494 689 516 693 c 257
 528.926 695.983 541.11 691.551 549.481 683.146 c 256
 557.948 674.643 562.514 662.074 560 649 c 257
 132 0 l 1025
103 340 m 257
 516 340 l 1281
EndSplineSet
EndChar

StartChar: six
Encoding: 338 54 338
GlifName: six
Width: 527
VWidth: 0
Flags: W
LayerCount: 2
Fore
SplineSet
70 415 m 257
 64 399 63 380 80 372 c 256
 97 364 111 373 119 390 c 257
 209 559 485 443 486 226 c 256
 487 101 387 -1 263 3 c 256
 135 7 40 122 40 254 c 256
 40 484 215 677 444 700 c 1281
EndSplineSet
Validated: 35
EndChar

StartChar: slash
Encoding: 339 47 339
GlifName: slash
Width: 372
VWidth: 0
Flags: W
LayerCount: 2
Fore
SplineSet
61 0 m 257
 321 700 l 1281
EndSplineSet
Validated: 3
EndChar

StartChar: t
Encoding: 341 116 341
GlifName: t
Width: 406
VWidth: 0
Flags: W
LayerCount: 2
Fore
SplineSet
90 676 m 257
 90 159 l 257
 73 72 138 -10 227 -13 c 256
 292 -15 349 27 365 91 c 1281
20 493 m 257
 334 493 l 1281
EndSplineSet
Validated: 35
EndChar

StartChar: t_e
Encoding: 342 1001744 342
GlifName: t_e
Width: 774
VWidth: 0
Flags: W
LayerCount: 2
Fore
SplineSet
90 676 m 257
 90 159 l 257
 73 72 138 -10 227 -13 c 256
 292 -15 349 27 365 91 c 1281
20 493 m 257
 269 493 l 258
 369 493 702 491 726 639 c 256
 740 727 646 793 545 776 c 256
 467 762 403 729 356 638 c 256
 304 537 325 401 360 341 c 256
 395 281 461 241 545 252 c 256
 640 265 716 338 733 433 c 1281
EndSplineSet
Validated: 35
PickledDataWithLists: "(dp0
Vcom.fontlab.metricsLeft
p1
Vt
p2
sVcom.fontlab.metricsRight
p3
Ve
p4
sVpublic.markColor
p5
V1,0.6,0.994,1
p6
s."
Ligature2: "sous-table 'rlig' Ligatures requises  dans Latin lookup 2" t periodcentered e
Ligature2: "sous-table 'liga' Ligatures standard dans Latin lookup 1" t periodcentered e
EndChar

StartChar: t_t_e
Encoding: 345 1001856 345
GlifName: t_t_e
Width: 1046
VWidth: 0
Flags: W
LayerCount: 2
Fore
SplineSet
362 676 m 257
 362 159 l 257
 345 72 410 -10 499 -13 c 256
 564 -15 621 27 637 91 c 1281
90 676 m 257
 90 159 l 257
 73 72 138 -10 227 -13 c 256
 292 -15 349 27 365 91 c 1281
20 493 m 257
 541 493 l 258
 641 493 974 491 998 639 c 256
 1012 727 918 793 817 776 c 256
 739 762 675 729 628 638 c 256
 576 537 597 401 632 341 c 256
 667 281 733 241 817 252 c 256
 912 265 988 338 1005 433 c 1281
EndSplineSet
Validated: 35
PickledDataWithLists: "(dp0
Vcom.fontlab.metricsLeft
p1
Vt
p2
sVcom.fontlab.metricsRight
p3
Ve
p4
sVpublic.markColor
p5
V1,0.6,0.994,1
p6
s."
Ligature2: "sous-table 'rlig' Ligatures requises  dans Latin lookup 2" t periodcentered t e
Ligature2: "sous-table 'liga' Ligatures standard dans Latin lookup 1" t periodcentered t e
EndChar

StartChar: thorn
Encoding: 346 254 346
GlifName: thorn
Width: 556
VWidth: 0
Flags: W
LayerCount: 2
Fore
SplineSet
117.312 217.888 m 256
 134.016 96.32 220.32 -8.54399 334.464 0.736 c 256
 448.608 10.944 515.424 127.872 517.28 250.368 c 256
 520.064 378.432 452.32 503.712 334.464 513.92 c 256
 192.48 525.984 95.04 375.648 117.312 217.888 c 256
44 648 m 257
 33 673 52 701 79 701 c 256
 106 701 124 673 114 648 c 257
 114 -189 l 1281
EndSplineSet
Validated: 524331
PickledDataWithLists: "(dp0
Vcom.fontlab.metricsLeft
p1
Vp
p2
sVcom.fontlab.metricsRight
p3
g2
s."
EndChar

StartChar: three
Encoding: 347 51 347
GlifName: three
Width: 507
VWidth: 0
Flags: W
LayerCount: 2
Fore
SplineSet
30 701 m 257
 370 701 l 257
 390 707 411 694 412 673 c 257
 413 661 408 650 398 644 c 258
 72 446 l 258
 49 432 31 409 44 389 c 257
 54 375 75 376 87 389 c 257
 210 537 463 435 455 219 c 256
 451 99 350 6 228 -7 c 256
 157 -15 86 5 30 49 c 1281
EndSplineSet
Validated: 35
EndChar

StartChar: tilde
Encoding: 348 732 348
GlifName: tilde
Width: 284
VWidth: 0
Flags: W
LayerCount: 2
Fore
SplineSet
21 576 m 257
 19.3429 611.627 41.8839 640.04 81.0483 639.968 c 256
 137.727 639.863 140.573 573.19 203.737 573.06 c 256
 244.768 572.975 264.644 601.654 263 637 c 1281
EndSplineSet
Validated: 524323
PickledDataWithLists: "(dp0
Vcom.fontlab.recipe
p1
Vspace+tildecomb
p2
s."
EndChar

StartChar: two
Encoding: 349 50 349
GlifName: two
Width: 626
VWidth: 0
Flags: W
LayerCount: 2
Fore
SplineSet
120 395 m 257
 37 544 158 724 328 706 c 256
 441 694 521 586 491 480 c 256
 485 459 476 440 462 423 c 257
 21 43 l 257
 16 18 38 -4 63 0 c 257
 84 4 95 25 106 43 c 256
 202 194 424 194 519 43 c 257
 531 25 541 4 562 0 c 257
 571.423 -1.5077 580.562 0.6784 588.024 5.32667 c 256
 600.36 13.0106 608.115 27.423 605 43 c 1281
EndSplineSet
Validated: 524323
EndChar

StartChar: u
Encoding: 350 117 350
GlifName: u
Width: 555
VWidth: 0
Flags: W
LayerCount: 2
Fore
SplineSet
55.3616 456.401 m 257
 48.9065 467.159 48.9703 479.035 53.4571 488.643 c 256
 59.337 501.234 72.813 509.93 89.1678 507.11 c 256
 100.26 505.093 108.284 497.963 113.759 488.442 c 256
 119.081 479.187 121.994 467.673 122.974 456.401 c 256
 129.934 387.794 97.1221 322.17 89.1677 253.564 c 256
 72.2646 106.407 173.683 -27.8233 308.908 -13.9031 c 256
 429.218 -0.977179 494.842 124.305 494.842 253.564 c 258
 494.842 500.15 l 1281
494.842 500.15 m 257
 494.842 0.0170898 l 1281
EndSplineSet
Validated: 524323
EndChar

StartChar: u_e
Encoding: 351 1003792 351
GlifName: u_e
Width: 945
VWidth: 0
Flags: W
LayerCount: 2
Fore
SplineSet
56 456 m 257
 41 481 61 512 90 507 c 256
 112 503 122 479 124 456 c 256
 131 388 98 322 90 254 c 256
 73 106 175 -28 310 -14 c 256
 430 -1 496 124 496 254 c 258
 496 500 l 1281
904 171 m 257
 887 76 811 3 716 -10 c 256
 592 -26 514 59 502 174 c 256
 498.933 203.902 552.008 214.846 620.264 226.888 c 256
 730.052 246.259 879.118 268.472 897 377 c 256
 911 465 817 531 716 514 c 256
 638 500 574 467 527 376 c 256
 475 275 496 139 531 79 c 1281
EndSplineSet
Validated: 524323
PickledDataWithLists: "(dp0
Vcom.fontlab.metricsLeft
p1
Vu
p2
sVcom.fontlab.metricsRight
p3
Ve
p4
sVpublic.markColor
p5
V1,0.6,0.994,1
p6
s."
Ligature2: "sous-table 'rlig' Ligatures requises  dans Latin lookup 2" u periodcentered e
Ligature2: "sous-table 'liga' Ligatures standard dans Latin lookup 1" u periodcentered e
EndChar

StartChar: u_i_l
Encoding: 352 1003824 352
GlifName: u_i_l
Width: 716
VWidth: 0
Flags: W
LayerCount: 2
Fore
SplineSet
56 456 m 257
 41 481 61 512 90 507 c 256
 112 503 122 479 124 456 c 256
 131 388 98 322 90 254 c 256
 73 106 175 -28 310 -14 c 256
 430 -1 490 124 496 254 c 1281
EndSplineSet
Refer: 247 105 N 1 0 0 1 375 0 2
Refer: 259 108 N 1 0 0 1 548 0 2
Validated: 524331
PickledDataWithLists: "(dp0
Vcom.fontlab.metricsLeft
p1
Vu
p2
sVcom.fontlab.metricsRight
p3
Vl
p4
sVpublic.markColor
p5
V1,0.6,0.994,1
p6
s."
Ligature2: "sous-table 'rlig' Ligatures requises  dans Latin lookup 2" u periodcentered i l
Ligature2: "sous-table 'liga' Ligatures standard dans Latin lookup 1" u periodcentered i l
EndChar

StartChar: u_l
Encoding: 353 1003856 353
GlifName: u_l
Width: 571
VWidth: 0
Flags: W
LayerCount: 2
Fore
SplineSet
56 456 m 257
 41 481 61 512 90 507 c 256
 112 503 122 479 124 456 c 256
 131 388 98 322 90 254 c 256
 73 106 175 -28 310 -14 c 256
 430 -1 496 124 496 254 c 1281
426 648 m 257
 416 673 434 700 461 700 c 256
 473.616 700 484.485 694.105 491.364 685.274 c 256
 499.206 675.205 501.86 661.318 496 648 c 257
 496 2 l 1281
EndSplineSet
Validated: 524323
PickledDataWithLists: "(dp0
Vcom.fontlab.metricsLeft
p1
Vu
p2
sVcom.fontlab.metricsRight
p3
Vl
p4
sVpublic.markColor
p5
V1,0.6,0.994,1
p6
s."
Ligature2: "sous-table 'rlig' Ligatures requises  dans Latin lookup 2" u periodcentered l
Ligature2: "sous-table 'liga' Ligatures standard dans Latin lookup 1" u periodcentered l
Substitution2: "sous-table 'case' Formes sensibles +AOAA la casse dans Latin lookup 0" U_L
EndChar

StartChar: u_n_e
Encoding: 354 1003920 354
GlifName: u_n_e
Width: 1341
VWidth: 0
Flags: W
LayerCount: 2
Fore
SplineSet
56 456 m 257
 41 481 61 512 90 507 c 256
 112 503 122 479 124 456 c 256
 131 388 98 322 90 254 c 256
 73 106 175 -28 310 -14 c 256
 430 -1 496 124 496 254 c 1281
929 376 m 256
 896 312 906 238 904 171 c 257
 904 172 904 173 904 174 c 256
 904 207.959 974.889 213.486 1056.68 225.157 c 256
 1162.74 240.294 1287.14 265.767 1299 377 c 256
 1309 466 1219 531 1118 514 c 256
 1040 500 976 467 929 376 c 256
EndSplineSet
Refer: 269 110 N 1 0 0 1 405 0 2
Validated: 524331
PickledDataWithLists: "(dp0
Vcom.fontlab.metricsLeft
p1
Vu
p2
sVcom.fontlab.metricsRight
p3
Ve
p4
sVpublic.markColor
p5
V1,0.6,0.994,1
p6
s."
LCarets2: 3 0 0 0
Ligature2: "sous-table 'rlig' Ligatures requises  dans Latin lookup 2" u n periodcentered e
Ligature2: "sous-table 'liga' Ligatures standard dans Latin lookup 1" u n periodcentered e
EndChar

StartChar: underscore
Encoding: 359 95 359
GlifName: underscore
Width: 541
VWidth: 0
Flags: W
LayerCount: 2
Fore
SplineSet
520.625 0 m 257
 20.8141 0 l 1281
EndSplineSet
Validated: 524291
EndChar

StartChar: v
Encoding: 361 118 361
GlifName: v
Width: 462
VWidth: 0
Flags: W
LayerCount: 2
Fore
SplineSet
31 501 m 257
 122 367 179 212 198 51 c 257
 200 27 209 1 231 1 c 256
 253 1 261 27 264 51 c 256
 282 212 339 367 431 501 c 1281
EndSplineSet
Validated: 3
EndChar

StartChar: w
Encoding: 362 119 362
GlifName: w
Width: 663
VWidth: 0
Flags: W
LayerCount: 2
Fore
SplineSet
306 501.419 m 257
 374 360.857 418 207.8 434 51.6203 c 256
 437 26.6315 445 1.64268 466 1.64268 c 256
 487 1.64268 496 26.6315 498 51.6203 c 257
 515 207.8 558 360.857 627 501.419 c 1281
306 501.419 m 257
 374 360.857 418 207.8 434 51.6203 c 256
 437 26.6315 445 1.64268 466 1.64268 c 256
 487 1.64268 496 26.6315 498 51.6203 c 257
 515 207.8 558 360.857 627 501.419 c 1281
52 501.419 m 257
 120 360.857 164 207.8 180 51.6203 c 256
 183 26.6315 191 1.64268 212 1.64268 c 256
 233 1.64268 242 26.6315 244 51.6203 c 257
 261 207.8 304 360.857 373 501.419 c 1281
EndSplineSet
Guideline: "" "" 0 -7.6 0 0 0
Validated: 524291
EndChar

StartChar: x
Encoding: 367 120 367
GlifName: x
Width: 529
VWidth: 0
Flags: W
LayerCount: 2
Fore
SplineSet
57 456 m 257
 47.6411 468.999 49.366 484.43 57.2552 495.267 c 256
 64.5393 505.272 77.0782 511.36 91 508 c 256
 113 503 120 478 126 456 c 256
 171 293 356 207 401 43 c 256
 407 21 414 -3 436 -8 c 256
 450.47 -11.4927 463.446 -5.02701 470.58 5.43449 c 256
 477.745 15.9396 479.019 30.474 470 43 c 1281
57 43 m 257
 48.6351 31.3821 49.1246 18.0365 54.9559 7.7805 c 256
 61.6727 -4.03284 75.4768 -11.747 91 -8 c 256
 113 -3 120 21 126 43 c 256
 171 207 356 293 401 456 c 256
 407 478 414 503 436 508 c 256
 449.978 511.374 462.562 505.223 469.833 495.145 c 256
 477.647 484.315 479.324 468.95 470 456 c 1281
EndSplineSet
Validated: 524323
EndChar

StartChar: x_c
Encoding: 368 1005328 368
GlifName: x_c
Width: 685
VWidth: 0
Flags: W
LayerCount: 2
Fore
SplineSet
57 456 m 257
 39 481 62 515 91 508 c 256
 113 503 120 478 126 456 c 256
 148 375 206 313 263 250 c 257
 263 249 l 1281
57 43 m 257
 39 18 62 -15 91 -8 c 256
 113 -3 120 21 126 43 c 256
 148 125 206 187 263 249 c 1281
EndSplineSet
Refer: 180 99 N 1 0 0 1 203 0 2
Validated: 35
PickledDataWithLists: "(dp0
Vcom.fontlab.metricsLeft
p1
Vx
p2
sVcom.fontlab.metricsRight
p3
Vc
p4
sVpublic.markColor
p5
V1,0.6,0.994,1
p6
s."
Ligature2: "sous-table 'rlig' Ligatures requises  dans Latin lookup 2" x periodcentered c
Ligature2: "sous-table 'liga' Ligatures standard dans Latin lookup 1" x periodcentered c
Substitution2: "sous-table 'case' Formes sensibles +AOAA la casse dans Latin lookup 0" X_C
EndChar

StartChar: x_l
Encoding: 369 1005376 369
GlifName: x_l
Width: 338
VWidth: 0
Flags: W
LayerCount: 2
Fore
SplineSet
57 456 m 257
 39 481 62 515 91 508 c 256
 113 503 120 478 126 456 c 256
 148 375 206 313 263 250 c 257
 263 249 l 1281
57 43 m 257
 39 18 62 -15 91 -8 c 256
 113 -3 120 21 126 43 c 256
 148 125 206 187 263 249 c 1281
EndSplineSet
Refer: 259 108 N 1 0 0 1 170 -2 2
Validated: 524323
PickledDataWithLists: "(dp0
Vcom.fontlab.metricsLeft
p1
Vx
p2
sVcom.fontlab.metricsRight
p3
Vl
p4
sVpublic.markColor
p5
V1,0.6,0.994,1
p6
s."
Ligature2: "sous-table 'rlig' Ligatures requises  dans Latin lookup 2" x periodcentered l
Ligature2: "sous-table 'liga' Ligatures standard dans Latin lookup 1" x periodcentered l
EndChar

StartChar: x_l_l
Encoding: 370 1005424 370
GlifName: x_l_l
Width: 475
VWidth: 0
Flags: W
LayerCount: 2
Fore
SplineSet
57 456 m 257
 39 481 62 515 91 508 c 256
 113 503 120 478 126 456 c 256
 148 375 206 313 263 250 c 257
 263 249 l 1281
57 43 m 257
 39 18 62 -15 91 -8 c 256
 113 -3 120 21 126 43 c 256
 148 125 206 187 263 249 c 1281
EndSplineSet
Refer: 259 108 N 1 0 0 1 170 0 2
Refer: 259 108 N 1 0 0 1 307 0 2
Validated: 524323
PickledDataWithLists: "(dp0
Vcom.fontlab.metricsLeft
p1
Vx
p2
sVcom.fontlab.metricsRight
p3
Vl
p4
sVpublic.markColor
p5
V1,0.6,0.994,1
p6
s."
Ligature2: "sous-table 'rlig' Ligatures requises  dans Latin lookup 2" x periodcentered l l
Ligature2: "sous-table 'liga' Ligatures standard dans Latin lookup 1" x periodcentered l l
EndChar

StartChar: x_s
Encoding: 371 1005472 371
GlifName: x_s
Width: 815
VWidth: 0
Flags: W
LayerCount: 2
Fore
SplineSet
59 456 m 257
 41 481 64 515 93 508 c 256
 115 503 122 478 128 456 c 256
 166 319 299 234 372 115 c 256
 412 49 481 7 558 -5 c 256
 666 -22 776 37 769 132 c 256
 763 222 656 258 558 270 c 256
 481 279 398 301 387 373 c 256
 373 454 462 510 558 510 c 256
 639 510 716 472 764 407 c 1281
57 43 m 257
 39 18 62 -15 91 -8 c 256
 113 -3 117 18 123 40 c 256
 146 124 204 187 262 251 c 1281
EndSplineSet
Validated: 35
PickledDataWithLists: "(dp0
Vcom.fontlab.metricsLeft
p1
Vx
p2
sVcom.fontlab.metricsRight
p3
Vs
p4
sVpublic.markColor
p5
V1,0.6,0.994,1
p6
s."
Ligature2: "sous-table 'rlig' Ligatures requises  dans Latin lookup 2" x periodcentered s
Ligature2: "sous-table 'liga' Ligatures standard dans Latin lookup 1" x periodcentered s
Substitution2: "sous-table 'case' Formes sensibles +AOAA la casse dans Latin lookup 0" X_S
EndChar

StartChar: x_s_s
Encoding: 372 1005520 372
GlifName: x_s_s
Width: 1192
VWidth: 0
Flags: W
LayerCount: 2
Fore
SplineSet
59 456 m 257
 41 481 64 515 93 508 c 256
 115 503 122 478 128 456 c 256
 166 319 299 234 372 115 c 256
 412 49 481 7 558 -5 c 256
 666 -22 776 37 769 132 c 256
 763 222 656 258 558 270 c 256
 481 279 398 301 387 373 c 256
 373 454 462 510 558 510 c 256
 639 510 716 472 764 407 c 1281
57 43 m 257
 39 18 62 -15 91 -8 c 256
 113 -3 117 18 123 40 c 256
 146 124 204 187 262 251 c 1281
1141 407 m 257
 1093 472 1016 510 935 510 c 256
 839 510 750 454 764 373 c 256
 775 301 858 279 935 270 c 256
 1033 258 1140 222 1146 132 c 256
 1153 37 1043 -22 935 -5 c 256
 867.108 5.5806 808.733 40.8144 764.983 92.9245 c 1281
EndSplineSet
Validated: 524323
PickledDataWithLists: "(dp0
Vcom.fontlab.metricsLeft
p1
Vx
p2
sVcom.fontlab.metricsRight
p3
Vs
p4
sVpublic.markColor
p5
V1,0.6,0.994,1
p6
s."
Ligature2: "sous-table 'rlig' Ligatures requises  dans Latin lookup 2" x periodcentered s s
Ligature2: "sous-table 'liga' Ligatures standard dans Latin lookup 1" x periodcentered s s
EndChar

StartChar: y
Encoding: 373 121 373
GlifName: y
Width: 532
VWidth: 0
Flags: W
LayerCount: 2
Fore
SplineSet
14.2475 448.938 m 257
 5.88988 462.519 8.12838 477.773 16.3485 488.3 c 256
 23.5269 497.492 35.2667 503.079 48.495 500.799 c 256
 58.2361 499.105 65.594 493.744 70.9656 486.225 c 256
 78.0041 476.372 81.632 462.812 82.7419 448.938 c 256
 89.5914 379.465 56.3224 324.669 48.4944 255.195 c 256
 31.8599 106.463 134.602 -29.5485 271.592 -14.871 c 256
 392.926 -2.15049 459.464 125.055 459.464 255.195 c 258
 459.464 497.863 l 1281
-20 -276.131 m 257
 1.527 -183.173 91.549 -123.485 185.485 -138.162 c 256
 299.97 -157.732 375.314 -287.873 493.713 -276.131 c 256
 585.692 -266.346 640.488 -174.367 596.455 -103.915 c 256
 577.928 -74.5801 540.995 -58.7792 510.142 -39.5711 c 256
 482.334 -22.2584 459.465 -2.1777 459.465 33.0755 c 258
 459.465 255.195 l 1281
EndSplineSet
Validated: 524323
EndChar

StartChar: z
Encoding: 377 122 377
GlifName: z
Width: 546
VWidth: 0
Flags: W
LayerCount: 2
Fore
SplineSet
80.381 453.866 m 257
 71.5894 465.434 72.0961 479.216 78.1938 489.597 c 256
 84.8405 500.914 98.1306 508.19 113.262 504.155 c 257
 126.19 501.217 131.263 489.711 136.073 477.228 c 256
 139.18 469.166 142.178 460.697 147.111 453.866 c 256
 189.663 395.84 340.531 395.84 382.116 453.866 c 257
 389.853 474.175 394.689 499.32 415.965 504.155 c 257
 430.645 508.07 443.592 501.338 450.421 490.6 c 256
 457.088 480.115 457.924 465.81 448.846 453.866 c 257
 46.5325 51.5524 l 257
 32.9822 36.1543 39.0453 17.2258 52.4803 7.00835 c 256
 60.1404 1.1828 70.1969 -1.8109 80.381 0.296099 c 257
 100.69 5.13161 100.69 31.2433 113.262 51.5524 c 256
 164.519 135.69 364.708 135.69 415.965 51.5524 c 256
 428.537 31.2433 427.57 6.09871 448.846 0.296099 c 257
 464.203 -3.28729 477.664 4.51008 484.351 16.2297 c 256
 490.297 26.6507 490.888 40.1728 482.695 51.5524 c 1281
EndSplineSet
Validated: 524323
EndChar

StartChar: zero
Encoding: 380 48 380
GlifName: zero
Width: 563
VWidth: 0
Flags: W
LayerCount: 2
Fore
SplineSet
40 351 m 256
 40 169 135 1 281 1 c 256
 427 1 523 169 523 351 c 256
 523 532 427 700 281 700 c 256
 135 700 40 532 40 351 c 256
EndSplineSet
Validated: 9
EndChar
